<svg xmlns="http://www.w3.org/2000/svg" viewBox="0 0 1467.09 218.33"><defs><style>.cls-1{fill:#df8844;}.cls-2{fill:#6eb6ea;}.cls-3{fill:#7d7a79;}</style></defs><title>consumer-product</title><g id="Слой_2" data-name="Слой 2"><g id="Layer_1" data-name="Layer 1"><g id="NVCP_LOGO" data-name="NVCP LOGO"><path class="cls-1" d="M808.53,101.83h.31l4.84,5.42,4.82-5.42h.3V112H817v-6.3l-3.12,3.74h-.35l-3.16-3.74V112h-1.81Zm-7,1.72h-3V102h7.88v1.55h-3V112h-1.82Z"/><path class="cls-1" d="M39.23,38.05A39.23,39.23,0,0,0,0,77.29v35.84H29.78V77.91a20.79,20.79,0,0,1,2.77-10.82c1.75-2.81,4-4.45,6.68-4.47s4.93,1.66,6.68,4.47a20.79,20.79,0,0,1,2.77,10.82v35.22H78.47V77.29A39.25,39.25,0,0,0,39.23,38.05"/><path class="cls-1" d="M752.19,38.05A39.23,39.23,0,0,0,713,77.29v35.84h29.78V77.91a20.89,20.89,0,0,1,2.77-10.82c1.76-2.81,4-4.45,6.68-4.47s4.94,1.66,6.69,4.47a20.7,20.7,0,0,1,2.76,10.82v35.22h29.79V77.29a39.23,39.23,0,0,0-39.24-39.24"/><path class="cls-1" d="M110.51,28.41a16.55,16.55,0,1,0-23.41,0l3.66,3.66c6.11,6.1,6.54,7.73.73,13.53l-3.32,3.32a14.94,14.94,0,0,0-4.42,10.64v53.56h30.11V59.56a15,15,0,0,0-4.41-10.64l-3.32-3.32c-5.81-5.8-5.38-7.43.73-13.53Z"/><path class="cls-1" d="M163.87,89.8c-1.76,3.24-4,5.17-6.68,5.17S152.27,93,150.5,89.8a27,27,0,0,1-2.76-12.47,27,27,0,0,1,2.76-12.48c1.77-3.23,4-5.15,6.69-5.17s4.92,1.94,6.68,5.17a24.6,24.6,0,0,1,2.55,8.8h29.82a39.23,39.23,0,1,0,0,7.37H166.42a24.49,24.49,0,0,1-2.55,8.78"/><path class="cls-1" d="M301.88,70.26a29.76,29.76,0,0,1,2-5.8c1.32-2.85,4-5.17,6.67-5.18s4.87,1.91,6.74,5.28a23.83,23.83,0,0,1,1.88,5.66ZM310.52,38a39.24,39.24,0,1,0,28,66.74,34.49,34.49,0,0,0,8.58-19.47H320.54s-3.69,9.27-10,9.27c-2.65,0-4.92-1.91-6.67-5.16a24.07,24.07,0,0,1-2.47-8h46.24s3.15-18.87-9.49-31.64A38,38,0,0,0,310.52,38"/><path class="cls-1" d="M580.68,70.26a29.11,29.11,0,0,1,2-5.8c1.32-2.85,4-5.17,6.66-5.18s4.88,1.91,6.74,5.28a23.39,23.39,0,0,1,1.88,5.66ZM589.31,38a39.24,39.24,0,1,0,28,66.74,34.63,34.63,0,0,0,8.59-19.47H599.34s-3.69,9.27-10,9.27c-2.65,0-4.92-1.91-6.66-5.16a23.62,23.62,0,0,1-2.46-8h46.22s3.17-18.87-9.47-31.64A38,38,0,0,0,589.31,38"/><path class="cls-1" d="M366.74,0a14.89,14.89,0,0,0-14.88,14.91l0,98.21h29.8l-.05-98.22A14.91,14.91,0,0,0,366.74,0"/><path class="cls-1" d="M425,95c-5.21,0-9.45-7.91-9.45-17.67s4.24-17.68,9.45-17.68,9.46,7.92,9.46,17.68S430.24,95,425,95m0-56.91a39.24,39.24,0,1,0,39.23,39.24A39.24,39.24,0,0,0,425,38.05"/><path class="cls-1" d="M670,95c-5.22,0-9.45-7.91-9.45-17.67s4.23-17.68,9.45-17.68,9.45,7.92,9.45,17.68S675.26,95,670,95m0-56.91a39.24,39.24,0,1,0,39.24,39.24A39.25,39.25,0,0,0,670,38.05"/><path class="cls-1" d="M507.07,95c-5.21,0-9.45-7.91-9.45-17.67s4.24-17.68,9.45-17.68,9.45,7.92,9.45,17.68S512.29,95,507.07,95M546.3,77.29l.05,0,0-62.43a14.89,14.89,0,1,0-29.78,0V39.25a40,40,0,0,0-9.47-1.15,39.24,39.24,0,0,0-27.75,67,39.23,39.23,0,0,0,55.5,0A39.23,39.23,0,0,0,546.3,77.32Z"/><path class="cls-1" d="M275.61,107.92a5.23,5.23,0,0,0-.79-2.72L258.5,80.53,269.79,60a14.89,14.89,0,1,0-25.65-15.12L230.65,69V52.94a14.89,14.89,0,1,0-29.77,0v60.19h29.77V89.56l15.73,23.57h24a5.21,5.21,0,0,0,5.19-5.2"/><path class="cls-2" d="M1007.32,29.91V105.4c0,5.87,3.49,10.06,11.07,10.06h12V29.91ZM1406.11,91.3s-14.59-41.63-17.28-49.52c-1.81-5.29-4.3-11.87-16.19-11.87h-27.19v85.55h9.22c7,0,11.4-3.12,11.4-10.27V45.38h.35l26.39,70.08h24.7l26.38-70.08h.39v59.84c0,6.08,3.27,10.24,11.43,10.24h11.38V29.91h-25.47c-9,0-14.58,2.47-17.33,10.51-1.78,5.25-17.78,50.88-17.78,50.88Zm-457.41.76s-19.88-51.9-21-54.89c-1.52-4.09-3.61-7.26-11.15-7.26H899.4l35.24,85.55h25.65l36.39-85.55h-15c-6.52,0-9,2.8-10.63,6.86l-22,55.29Zm252.52-44.22H1213c8.39,0,13.39-3,13.39-10.71V29.91h-33.42c-28,0-41.4,16.48-41.4,42.77,0,32.8,20.42,42.78,41.4,42.78h33.42v-7.3c0-7.58-5.23-10.64-12.81-10.64h-12.31c-13.34,0-25.67-4.79-25.67-24.84,0-17.41,9.34-24.84,25.67-24.84m-89.66,35.55c0,8.63-4,15.23-15.51,15.23h-12c-8.36,0-13.39-2.24-13.39-9.12,0-6.58,4.63-9.14,13.39-9.14h27.55Zm-11.23-53.48h-47.24v6.61c0,5.75,3.06,11.38,11.21,11.38l30.17,0c12.62,0,17.09,4.07,17.09,14.17v1.43h-31.93c-23.68,0-32.42,11-32.42,25.91,0,18.06,12.11,26,32.5,26h21.23c27.8,0,33.73-13.9,33.73-32.28V61.93c0-19.76-7.32-32-34.34-32m179.93,68.48c15,0,23.86-10.31,23.86-25.71,0-16.19-9.34-25.72-23.86-25.72-15.29,0-23.92,10.29-23.92,25.72,0,14.74,8.38,25.71,23.92,25.71m0-69.52c28.12,0,48.07,15.34,48.07,43.81,0,27.23-18.53,43.82-48.07,43.82-28.84,0-48.07-15.9-48.07-43.82,0-27.57,19-43.81,48.07-43.81"/><rect class="cls-3" x="853.77" y="7.99" width="4.5" height="122.95"/><path class="cls-3" d="M44.16,172.53a45.35,45.35,0,0,0-11.45-1.48c-13.46,0-22,8.33-22,20.49s8.57,20.56,22,20.56a50.13,50.13,0,0,0,11.45-1.56l1.41,5.76a46.2,46.2,0,0,1-13.32,2c-16.75,0-28.75-11.91-28.75-26.79s12-26.72,28.75-26.72a42,42,0,0,1,13.4,1.94Z"/><path class="cls-3" d="M116,171.05c-10.91,0-18.07,8.8-18.07,20.57S105.06,212.1,116,212.1s18-8.73,18-20.48-7.1-20.57-18-20.57m0,47.28c-14.65,0-25.16-12.07-25.16-26.71s10.51-26.8,25.16-26.8,25.16,12.16,25.16,26.8S130.61,218.33,116,218.33"/><polygon class="cls-3" points="226.49 217.47 196.1 176.5 196.1 217.47 189.1 217.47 189.1 165.6 196.03 165.6 226.49 206.57 226.49 165.6 233.49 165.6 233.49 217.47 226.49 217.47"/><path class="cls-3" d="M303.27,218.33a56.68,56.68,0,0,1-21-4.2l1.56-5.54a62.2,62.2,0,0,0,19.31,3.67c8.42,0,13.25-3.28,13.25-7.87,0-4.13-2.5-6.23-14.33-10.59-13.64-5.07-18-8.57-18-16.6,0-8.49,6.93-12.38,19.7-12.38A68.48,68.48,0,0,1,322,167.46l-1.32,5.69A71.92,71.92,0,0,0,303.89,171c-9.19,0-12.77,1.47-12.77,6.22,0,5,3.35,6.62,15.66,11.45,13.39,5.3,16.66,8.27,16.66,15.58,0,8.26-7.87,14.1-20.17,14.1"/><path class="cls-3" d="M391.75,218.33c-13.48,0-21.5-9.58-21.5-20.17V165.6h7.24v32.72c0,8.72,6,13.7,14.26,13.7s14.34-5.38,14.34-13.7V165.6h7.15v32.56c0,10.59-8,20.17-21.49,20.17"/><polygon class="cls-3" points="507.41 217.47 507.41 178.38 491.36 209.69 486.92 209.69 470.94 178.38 470.94 217.47 464.01 217.47 464.01 165.6 470.94 165.6 489.18 200.34 507.41 165.6 514.26 165.6 514.26 217.47 507.41 217.47"/><polygon class="cls-3" points="565.81 217.47 565.81 165.6 601.64 165.6 601.64 171.75 573.06 171.75 573.06 187.56 599.85 187.56 599.85 193.72 573.06 193.72 573.06 211.32 601.64 211.32 601.64 217.47 565.81 217.47"/><path class="cls-3" d="M675.08,171.52H658V190.6h17.13c5.92,0,9.81-3.82,9.81-9.58s-4.51-9.5-9.81-9.5M689,217.47l-15.52-21.11H658v21.11h-7.18V165.6h25.16c10,0,16.21,7.32,16.21,15.42a14.75,14.75,0,0,1-10.83,14.41l16.2,22Z"/><path class="cls-3" d="M821.18,171.52h-17v19.7h17c5.92,0,9.73-4.13,9.73-9.89a9.6,9.6,0,0,0-9.73-9.81m.63,25.54H804.13v20.41H797V165.6h24.86c10.19,0,16.35,7.56,16.35,15.73s-6.16,15.73-16.35,15.73"/><path class="cls-3" d="M908.17,171.52H891V190.6h17.13c5.92,0,9.81-3.82,9.81-9.58s-4.5-9.5-9.81-9.5m14,45.95-15.5-21.11H891v21.11h-7.18V165.6H909c10,0,16.19,7.32,16.19,15.42a14.73,14.73,0,0,1-10.82,14.41l16.2,22Z"/><path class="cls-3" d="M997.89,171.05c-10.89,0-18.07,8.8-18.07,20.57S987,212.1,997.89,212.1s18-8.73,18-20.48-7.09-20.57-18-20.57m0,47.28c-14.65,0-25.16-12.07-25.16-26.71s10.51-26.8,25.16-26.8,25.18,12.16,25.18,26.8-10.53,26.71-25.18,26.71"/><path class="cls-3" d="M1083.26,171.83h-5.07v39.41h5.07c11.74,0,23-6.77,23-19.71s-11.23-19.7-23-19.7m-1.18,45.64H1071V165.6h11.06c18.46,0,31.48,10.9,31.48,25.93s-13,25.94-31.48,25.94"/><path class="cls-3" d="M1181.93,218.33c-13.48,0-21.49-9.58-21.49-20.17V165.6h7.24v32.72c0,8.72,6,13.7,14.25,13.7s14.33-5.38,14.33-13.7V165.6h7.16v32.56c0,10.59-8,20.17-21.49,20.17"/><path class="cls-3" d="M1290.89,172.53a45.6,45.6,0,0,0-11.46-1.48c-13.47,0-22,8.33-22,20.49s8.57,20.56,22,20.56a50.36,50.36,0,0,0,11.46-1.56l1.4,5.76a46.26,46.26,0,0,1-13.32,2c-16.76,0-28.75-11.91-28.75-26.79s12-26.72,28.75-26.72a42.1,42.1,0,0,1,13.4,1.94Z"/><polygon class="cls-3" points="1359.26 171.83 1359.26 217.47 1352.18 217.47 1352.18 171.83 1334.58 171.83 1334.58 165.59 1376.79 165.59 1376.79 171.83 1359.26 171.83"/><path class="cls-3" d="M1440,218.33a56.59,56.59,0,0,1-21-4.2l1.55-5.54a62.26,62.26,0,0,0,19.32,3.67c8.41,0,13.24-3.28,13.24-7.87,0-4.13-2.49-6.23-14.33-10.59-13.64-5.07-18-8.57-18-16.6,0-8.49,6.94-12.38,19.71-12.38a68.48,68.48,0,0,1,18.23,2.64l-1.32,5.69a71.92,71.92,0,0,0-16.76-2.17c-9.18,0-12.77,1.47-12.77,6.22,0,5,3.35,6.62,15.66,11.45,13.39,5.3,16.66,8.27,16.66,15.58,0,8.26-7.85,14.1-20.17,14.1"/></g></g></g></svg>