<svg xmlns="http://www.w3.org/2000/svg" width="104" height="107" viewBox="0 0 104 107"><defs><clipPath id="t9dya"><path d="M.5 106.32h103.42V.63H.5z"/></clipPath></defs><g><g><g><g><path fill="#6c7ed6" d="M55.15 18.512c-.32 0-.643-.102-.922-.314-.702-.534-.858-1.564-.348-2.299L63.99 1.31c.51-.735 1.492-.9 2.196-.365.701.534.857 1.564.348 2.3l-10.111 14.59a1.548 1.548 0 0 1-1.273.678"/></g><g><path fill="#6c7ed6" d="M49.223 18.512c-.486 0-.965-.235-1.273-.678L37.84 3.244c-.51-.736-.354-1.766.349-2.3.7-.534 1.684-.37 2.194.365l10.11 14.59c.51.735.354 1.765-.348 2.299-.279.212-.601.314-.922.314"/></g></g><g><g><path fill="#8cc9f9" d="M60.957 24.15c-.351-4.75-4.142-8.49-8.769-8.49s-8.418 3.74-8.768 8.49z"/></g><g><path fill="#60b8fe" d="M55.304 16.258a8.42 8.42 0 0 0-3.117-.598c-4.627 0-8.417 3.74-8.767 8.49h6.232c.267-3.623 2.537-6.656 5.652-7.892"/></g><g><path fill="#8cc9f9" d="M7.65 99.25v4.208a2.871 2.871 0 0 0 2.863 2.862h83.342a2.871 2.871 0 0 0 2.863-2.862V99.25z"/></g><g><path fill="#23a8fe" d="M13.882 103.458V99.25H7.65v4.208a2.871 2.871 0 0 0 2.863 2.862h6.233a2.872 2.872 0 0 1-2.864-2.862"/></g><g><path fill="#b1dbfc" d="M7.458 23.78C3.631 23.78.5 26.911.5 30.738v62.189c0 3.827 3.131 6.958 6.958 6.958h69.924V23.78z"/></g><g><g><path fill="#8cc9f9" d="M6.732 92.927V30.738c0-3.827 3.131-6.958 6.96-6.958H7.457C3.631 23.78.5 26.911.5 30.738v62.189c0 3.827 3.131 6.958 6.958 6.958h6.233c-3.828 0-6.959-3.131-6.959-6.958"/></g></g><g><path fill="#60b8fe" d="M74.567 30.93H10.038a2.388 2.388 0 0 0-2.388 2.388v57.014c0 1.319 1.07 2.388 2.388 2.388h64.529c1.32 0 2.388-1.07 2.388-2.388V33.318c0-1.319-1.069-2.388-2.388-2.388"/></g><g><path fill="#23a8fe" d="M13.882 90.332V33.318c0-1.319 1.07-2.388 2.389-2.388h-6.233a2.388 2.388 0 0 0-2.388 2.388v57.014c0 1.32 1.07 2.388 2.388 2.388h6.233a2.388 2.388 0 0 1-2.389-2.388"/></g><g><path fill="#23a8fe" d="M7.65 85.42v4.91c0 1.32 1.07 2.39 2.388 2.39h64.529c1.32 0 2.388-1.07 2.388-2.39v-4.91z"/></g><g><path fill="#0193fa" d="M13.882 90.34v-4.91H7.65v4.91c0 1.32 1.07 2.389 2.388 2.389h6.233a2.388 2.388 0 0 1-2.389-2.388"/></g><g><path fill="#b1dbfc" d="M66.584 46.575l-6.974-6.973a1.571 1.571 0 1 1 2.222-2.222l6.973 6.973a1.572 1.572 0 0 1-2.221 2.222"/></g><g><path fill="#b1dbfc" d="M64.581 54.614L51.57 41.602a1.572 1.572 0 0 1 2.222-2.222l13.012 13.012a1.572 1.572 0 0 1-2.223 2.222"/></g><g><path fill="#ff8188" d="M98.79 23.78H76.96v76.105h21.83a5.024 5.024 0 0 0 5.01-5.01V28.79c0-2.755-2.254-5.01-5.01-5.01"/></g><g/><g clip-path="url(#t9dya)"><path fill="#ff656f" d="M76.96 99.885h6.285V23.78H76.96z"/></g><g clip-path="url(#t9dya)"><path fill="#b1dbfc" d="M95.746 36.298a5.368 5.368 0 1 1-10.736 0 5.368 5.368 0 0 1 10.736 0"/></g><g clip-path="url(#t9dya)"><path fill="#b1dbfc" d="M95.746 54.658a5.368 5.368 0 1 1-10.735 0 5.368 5.368 0 0 1 10.735 0"/></g><g clip-path="url(#t9dya)"><path fill="#8cc9f9" d="M91.351 36.298c0-1.779.866-3.354 2.198-4.331a5.368 5.368 0 1 0 0 8.661 5.36 5.36 0 0 1-2.198-4.33"/></g><g clip-path="url(#t9dya)"><path fill="#8cc9f9" d="M91.351 54.658a5.36 5.36 0 0 1 2.198-4.33 5.368 5.368 0 1 0 0 8.661 5.36 5.36 0 0 1-2.198-4.331"/></g><g clip-path="url(#t9dya)"><path fill="#ff656f" d="M84.347 67.923a1.57 1.57 0 1 0-.305 3.11c.89 0 1.57-.734 1.57-1.57 0-.73-.524-1.402-1.265-1.54"/></g><g clip-path="url(#t9dya)"><path fill="#ff656f" d="M90.69 67.922a1.573 1.573 0 0 0-1.88 1.54c0 .867.708 1.57 1.572 1.57a1.57 1.57 0 1 0 .308-3.11"/></g><g clip-path="url(#t9dya)"><path fill="#ff656f" d="M96.416 67.922a1.575 1.575 0 0 0-1.266 1.54c0 .845.69 1.57 1.573 1.57.873 0 1.572-.714 1.572-1.57 0-.986-.912-1.738-1.879-1.54"/></g><g clip-path="url(#t9dya)"><path fill="#ff656f" d="M84.347 74.68a1.57 1.57 0 1 0 0 0"/></g><g clip-path="url(#t9dya)"><path fill="#ff656f" d="M90.382 74.65c-.858 0-1.572.698-1.572 1.573 0 1.368 1.675 2.117 2.682 1.11.293-.293.461-.698.461-1.11 0-.875-.715-1.573-1.571-1.573"/></g><g clip-path="url(#t9dya)"><path fill="#ff656f" d="M96.416 74.68a1.574 1.574 0 0 0-1.266 1.54 1.573 1.573 0 0 0 3.145 0c0-.979-.907-1.734-1.879-1.54"/></g><g clip-path="url(#t9dya)"><path fill="#ff656f" d="M84.347 81.442a1.571 1.571 0 0 0-1.877 1.54 1.572 1.572 0 0 0 3.142 0c0-.695-.47-1.376-1.265-1.54"/></g><g clip-path="url(#t9dya)"><path fill="#ff656f" d="M90.69 81.442a1.574 1.574 0 0 0-1.88 1.539 1.572 1.572 0 0 0 3.142 0c.001-.785-.58-1.412-1.262-1.54"/></g><g clip-path="url(#t9dya)"><path fill="#ff656f" d="M96.416 81.442a1.573 1.573 0 0 0-1.266 1.539c0 .86.7 1.57 1.573 1.57.886 0 1.572-.726 1.572-1.57 0-1.01-.94-1.734-1.879-1.54"/></g><g clip-path="url(#t9dya)"><path fill="#ff656f" d="M84.347 88.2a1.572 1.572 0 1 0-.305 3.113c.877 0 1.57-.723 1.57-1.57 0-.691-.47-1.378-1.265-1.543"/></g><g clip-path="url(#t9dya)"><path fill="#ff656f" d="M90.382 88.17a1.572 1.572 0 0 0 0 3.142 1.571 1.571 0 0 0 0-3.142"/></g><g clip-path="url(#t9dya)"><path fill="#ff656f" d="M96.416 88.201a1.576 1.576 0 0 0-1.266 1.54c0 .869.713 1.57 1.573 1.57.877 0 1.572-.717 1.572-1.57 0-.979-.902-1.736-1.879-1.54"/></g></g></g></g></svg>