<svg xmlns="http://www.w3.org/2000/svg" width="168" height="123" viewBox="0 0 168 123"><g><g><g><path fill="#0a3e25" fill-opacity=".05" d="M88 122.631c28.719 0 52-2.38 52-5.315 0-2.936-23.281-5.316-52-5.316s-52 2.38-52 5.316c0 2.935 23.281 5.315 52 5.315z"/></g><g><g><path fill="#946c5a" d="M115.305 69.446l23.05-27.992a4.76 4.76 0 0 0 1.087-3.025V38a4.758 4.758 0 0 0-8.316-3.163L104.96 64.274"/></g><g><path fill="#d1d8db" d="M121.27 45.94l8.08 6.464 4.623-5.611-7.868-6.293z"/></g><g><path fill="#946c5a" d="M60.137 69.446L37.086 41.454A4.76 4.76 0 0 1 36 38.429V38a4.759 4.759 0 0 1 8.316-3.163l26.166 29.438"/></g><g><path fill="#d1d8db" d="M54.183 45.94l-8.08 6.464-4.623-5.611 7.868-6.293z"/></g><g><path fill="#946c5a" d="M115.311 79.79v6.651c0 4.572-1.818 8.96-5.05 12.192l-.122.122H65.312l-.122-.122a17.245 17.245 0 0 1-5.05-12.192V79.79"/></g><g><path fill="#67ac5b" d="M70.482 64.27L44.62 76.339a8.62 8.62 0 1 0 8.621 8.62l15.517-3.448-1.724 12.069-6.897 20.689a5.171 5.171 0 0 0 5.173 5.172h10.344l6.897-13.793h10.344l6.897 13.793h10.344a5.171 5.171 0 0 0 5.172-5.172l-6.896-20.69-1.724-12.068 15.517 3.448a8.62 8.62 0 1 0 8.62-8.62L104.964 64.27"/></g><g><path fill="#fae0b8" d="M99.788 66l6.896 15.517 1.724 12.069-15.517 5.172H82.547L67.03 93.586l1.724-12.07L75.65 66"/></g><g><path fill="#9037aa" d="M122.408 72.417l-4.928 11.498-5.56-1.235 1.601-14.41z"/></g><g><path fill="#9037aa" d="M57.967 83.915L53.04 72.417l8.886-4.147 1.602 14.41z"/></g><g><path fill="#d5ac90" d="M97.663 81.519H89.45V69.45h-3.448v12.069h-8.214l-7.385-3.694L69 80.981l7.61 3.805c.238.119.504.18.77.18h8.621v8.621h3.448v-8.62h8.62c.268 0 .533-.062.771-.181l7.605-3.815-1.396-3.146z"/></g><g><path fill="#9037aa" d="M114.125 110.715l-16.996 3.4-2.509-5.016 17.068-5.689z"/></g><g><path fill="#9037aa" d="M61.32 110.716l16.994 3.399 2.509-5.016-17.068-5.689z"/></g><g><path fill="#97c05c" d="M118.757 50.482c0-4.64-3.317-8.845-8.682-11.942C109.423 23.443 99.682 16 87.724 16c-11.959 0-21.7 7.443-22.351 22.54-5.366 3.097-8.683 7.303-8.683 11.942 0 7.251 8.069 13.446 19.482 15.992 3.376 2.932 7.319 4.697 11.552 4.697s8.176-1.765 11.552-4.697c11.412-2.546 19.481-8.74 19.481-15.992"/></g><g><path fill="#9037aa" d="M114.724 42.026c-1.293-1.27-2.844-2.446-4.652-3.49a30.423 30.423 0 0 0-1.08-6.925L98.067 29.79l-10.345 3.448-10.345-3.448-10.925 1.82a30.36 30.36 0 0 0-1.081 6.927c-1.807 1.043-3.357 2.22-4.652 3.49l11.486 3.28 5.567-1.855a31.022 31.022 0 0 1 9.814-1.593h.272c3.337 0 6.65.538 9.814 1.593l5.567 1.855z"/></g><g><path fill="#657b88" d="M79.106 36.688a3.448 3.448 0 1 1-6.896 0 3.448 3.448 0 0 1 6.896 0"/></g><g><path fill="#657b88" d="M103.236 36.688a3.448 3.448 0 1 1-6.896 0 3.448 3.448 0 0 1 6.896 0"/></g><g><path fill="#657b88" d="M87.452 62.555h.537a29.22 29.22 0 0 0 16.259-4.922l3.395-2.264-1.913-2.869-3.394 2.264a25.8 25.8 0 0 1-14.347 4.343h-.537a25.782 25.782 0 0 1-14.345-4.343L69.713 52.5 67.8 55.369l3.395 2.264a29.214 29.214 0 0 0 16.257 4.922"/></g><g><path fill="#74564a" d="M91.166 95.308a3.448 3.448 0 1 1-6.896 0 3.448 3.448 0 0 1 6.896 0"/></g></g><g><g><path fill="#fedb41" d="M139.795 0C133.338 0 128 5.246 128 11.703c0 6.458 5.338 11.795 11.795 11.795s11.703-5.337 11.703-11.795C151.498 5.246 146.252 0 139.795 0"/></g><g><path fill="#fc3" d="M151.493 11.703c0 6.458-5.246 11.795-11.703 11.795V0c6.457 0 11.703 5.246 11.703 11.703"/></g><g><path fill="#fea832" d="M139.791 2.75c-4.929 0-9.041 4.02-9.041 8.95 0 4.929 4.112 9.04 9.041 9.04 4.93 0 8.95-4.111 8.95-9.04 0-4.93-4.02-8.95-8.95-8.95"/></g><g><path fill="#fe9923" d="M148.74 11.7c0 4.929-4.02 9.04-8.95 9.04V2.75c4.93 0 8.95 4.02 8.95 8.95"/></g><g><path fill="#fedb41" d="M141.17 11.017c1.144 0 2.066.923 2.066 2.066v1.468a2.062 2.062 0 0 1-2.065 2.066h-.689v.688c0 .454-.344.688-.688.688s-.689-.234-.689-.688v-.688h-.78a2.062 2.062 0 0 1-2.065-2.066c0-.908 1.377-.908 1.377 0 0 .386.303.689.688.689h.78v-2.846h-.78a2.062 2.062 0 0 1-2.065-2.065V8.952c0-1.143.922-2.065 2.065-2.065h.78v-.689c0-.454.345-.688.689-.688s.688.234.688.688v.689h.689c1.143 0 2.065.922 2.065 2.065 0 .909-1.377.909-1.377 0a.682.682 0 0 0-.688-.688h-.689v2.753zm-2.065-2.753h-.78a.683.683 0 0 0-.688.69v1.382c0 .387.303.691.688.691h.78zm2.754 4.819a.682.682 0 0 0-.688-.689h-.689v2.846h.689a.682.682 0 0 0 .688-.689z"/></g><g><path fill="#fc3" d="M141.167 11.017c1.143 0 2.065.923 2.065 2.066v1.468a2.062 2.062 0 0 1-2.065 2.066h-.689v.688c0 .454-.344.688-.688.688V5.51c.344 0 .688.234.688.688v.689h.689c1.143 0 2.065.922 2.065 2.065 0 .909-1.377.909-1.377 0a.682.682 0 0 0-.688-.688h-.689v2.753zm.684 2.066a.68.68 0 0 0-.685-.689h-.686v2.846h.686a.68.68 0 0 0 .685-.689z"/></g></g><g><g><path fill="#fedb41" d="M7.773 64C3.517 64 0 67.457 0 71.712c0 4.256 3.517 7.773 7.773 7.773 4.255 0 7.712-3.517 7.712-7.773A7.717 7.717 0 0 0 7.773 64"/></g><g><path fill="#fc3" d="M15.482 71.712c0 4.256-3.457 7.773-7.712 7.773V64a7.717 7.717 0 0 1 7.712 7.712"/></g><g><path fill="#fea832" d="M7.768 65.81c-3.248 0-5.958 2.65-5.958 5.898 0 3.248 2.71 5.958 5.958 5.958s5.898-2.71 5.898-5.958a5.91 5.91 0 0 0-5.898-5.898"/></g><g><path fill="#fe9923" d="M13.668 71.708c0 3.248-2.65 5.958-5.898 5.958V65.81a5.91 5.91 0 0 1 5.898 5.898"/></g><g><path fill="#fedb41" d="M8.676 71.26a1.36 1.36 0 0 1 1.361 1.36v.968a1.36 1.36 0 0 1-1.36 1.361h-.455v.454c0 .3-.226.453-.453.453s-.454-.154-.454-.453v-.454h-.514a1.36 1.36 0 0 1-1.361-1.36c0-.6.907-.6.907 0 0 .253.2.453.454.453h.514v-1.875h-.514a1.36 1.36 0 0 1-1.361-1.361v-.908a1.36 1.36 0 0 1 1.361-1.36h.514v-.454c0-.3.227-.454.454-.454s.453.154.453.454v.453h.454a1.36 1.36 0 0 1 1.361 1.361c0 .6-.907.6-.907 0a.45.45 0 0 0-.454-.453h-.454v1.814zm-1.36-1.815H6.8a.45.45 0 0 0-.454.456v.912c0 .256.2.456.454.456h.514zm1.814 3.173c0-.253-.2-.451-.454-.451h-.454v1.865h.454a.448.448 0 0 0 .454-.451z"/></g><g><path fill="#fc3" d="M8.677 71.26a1.36 1.36 0 0 1 1.361 1.36v.968a1.36 1.36 0 0 1-1.36 1.361h-.454v.454c0 .3-.227.453-.454.453V67.63c.227 0 .454.154.454.454v.453h.453a1.36 1.36 0 0 1 1.361 1.361c0 .6-.907.6-.907 0a.45.45 0 0 0-.454-.453h-.453v1.814zm.454 1.358c0-.253-.2-.451-.454-.451h-.453v1.865h.453a.448.448 0 0 0 .454-.451z"/></g></g><g><g><path fill="#fedb41" d="M31.967 8C27.606 8 24 11.543 24 15.905s3.606 7.968 7.967 7.968c4.362 0 7.906-3.606 7.906-7.968A7.91 7.91 0 0 0 31.967 8"/></g><g><path fill="#fc3" d="M39.875 15.905c0 4.362-3.543 7.968-7.905 7.968V8a7.91 7.91 0 0 1 7.905 7.905"/></g><g><path fill="#fea832" d="M31.967 9.86c-3.33 0-6.107 2.716-6.107 6.045 0 3.33 2.778 6.108 6.107 6.108 3.33 0 6.046-2.778 6.046-6.108 0-3.33-2.716-6.045-6.046-6.045"/></g><g><path fill="#fe9923" d="M38.015 15.905c0 3.33-2.715 6.108-6.045 6.108V9.86c3.33 0 6.045 2.716 6.045 6.045"/></g><g><path fill="#fedb41" d="M32.897 15.44c.772 0 1.395.623 1.395 1.395v.992c0 .772-.623 1.395-1.395 1.395h-.465v.465c0 .307-.232.465-.465.465-.232 0-.465-.158-.465-.465v-.465h-.527a1.393 1.393 0 0 1-1.395-1.395c0-.613.93-.613.93 0 0 .26.205.465.465.465h.527V16.37h-.527a1.393 1.393 0 0 1-1.395-1.395v-.93c0-.772.623-1.395 1.395-1.395h.527v-.465c0-.307.233-.465.465-.465.233 0 .465.158.465.465v.465h.465c.772 0 1.395.623 1.395 1.395 0 .614-.93.614-.93 0a.46.46 0 0 0-.465-.465h-.465v1.86zm-1.395-1.86h-.527a.46.46 0 0 0-.465.465v.93c0 .26.205.465.465.465h.527zm1.86 3.255a.46.46 0 0 0-.465-.465h-.465v1.922h.465a.46.46 0 0 0 .465-.465z"/></g><g><path fill="#fc3" d="M32.9 15.44c.772 0 1.395.623 1.395 1.395v.992c0 .772-.623 1.395-1.395 1.395h-.465v.465c0 .307-.233.465-.465.465V11.72c.233 0 .465.158.465.465v.465h.465c.772 0 1.395.623 1.395 1.395 0 .614-.93.614-.93 0a.46.46 0 0 0-.465-.465h-.465v1.86zm.469 1.395a.462.462 0 0 0-.468-.465h-.468v1.922h.468a.462.462 0 0 0 .468-.465z"/></g></g><g><g><path fill="#fedb41" d="M159.967 56c-4.361 0-7.967 3.543-7.967 7.905s3.606 7.968 7.967 7.968c4.362 0 7.906-3.606 7.906-7.968A7.91 7.91 0 0 0 159.967 56"/></g><g><path fill="#fc3" d="M167.875 63.905c0 4.362-3.543 7.968-7.905 7.968V56a7.91 7.91 0 0 1 7.905 7.905"/></g><g><path fill="#fea832" d="M159.967 57.86c-3.33 0-6.107 2.716-6.107 6.045 0 3.33 2.778 6.108 6.107 6.108 3.33 0 6.046-2.778 6.046-6.108 0-3.33-2.716-6.045-6.046-6.045"/></g><g><path fill="#fe9923" d="M166.015 63.905c0 3.33-2.715 6.108-6.045 6.108V57.86c3.33 0 6.045 2.716 6.045 6.045"/></g><g><path fill="#fedb41" d="M160.897 63.44c.772 0 1.395.623 1.395 1.395v.992c0 .772-.623 1.395-1.395 1.395h-.465v.465c0 .307-.232.465-.465.465-.232 0-.465-.158-.465-.465v-.465h-.527a1.393 1.393 0 0 1-1.395-1.395c0-.613.93-.613.93 0 0 .26.205.465.465.465h.527V64.37h-.527a1.393 1.393 0 0 1-1.395-1.395v-.93c0-.772.623-1.395 1.395-1.395h.527v-.465c0-.307.233-.465.465-.465.233 0 .465.158.465.465v.465h.465c.772 0 1.395.623 1.395 1.395 0 .614-.93.614-.93 0a.46.46 0 0 0-.465-.465h-.465v1.86zm-1.395-1.86h-.527a.46.46 0 0 0-.465.465v.93c0 .26.205.465.465.465h.527zm1.86 3.255a.46.46 0 0 0-.465-.465h-.465v1.922h.465a.46.46 0 0 0 .465-.465z"/></g><g><path fill="#fc3" d="M160.9 63.44c.772 0 1.395.623 1.395 1.395v.992c0 .772-.623 1.395-1.395 1.395h-.465v.465c0 .307-.233.465-.465.465V59.72c.233 0 .465.158.465.465v.465h.465c.772 0 1.395.623 1.395 1.395 0 .614-.93.614-.93 0a.46.46 0 0 0-.465-.465h-.465v1.86zm.469 1.395a.462.462 0 0 0-.468-.465h-.468v1.922h.468a.462.462 0 0 0 .468-.465z"/></g></g></g></g></svg>