<svg xmlns="http://www.w3.org/2000/svg" width="81" height="90" viewBox="0 0 81 90"><defs><clipPath id="uyjza"><path d="M2.3 31.48v20.24h8.775V31.48H2.3z"/></clipPath><clipPath id="uyjzb"><path d="M24.982 83.348H16.82V56.57h8.162z"/></clipPath><clipPath id="uyjzc"><path d="M67.15 10.58h4.63v62.032h-4.63z"/></clipPath></defs><g><g transform="rotate(-30 40 45.5)"><g><path fill="#b1dbfc" d="M75.486 36.99H72.65v9.218h2.836c1.696 0 3.083-1.356 3.083-3.014v-3.19c0-1.658-1.387-3.014-3.083-3.014"/></g><g><path fill="#8cc9f9" d="M76.282 37.096a3.12 3.12 0 0 0-.796-.106H72.65v9.218h2.836c.275 0 .541-.04.796-.106z"/></g><g><g/><g clip-path="url(#uyjza)"><path fill="#60b8fe" d="M11.075 31.48H3.752c-.798 0-1.452.64-1.452 1.423v17.394c0 .783.654 1.424 1.452 1.424h7.323z"/></g></g><g><path fill="#23a8fe" d="M6.827 50.297V32.903c0-.782.654-1.423 1.452-1.423H3.752c-.798 0-1.452.64-1.452 1.423v17.394c0 .783.654 1.424 1.452 1.424h4.527c-.798 0-1.452-.64-1.452-1.424"/></g><g><path fill="#60b8fe" d="M26.57 26.64V23.47c0-1.15-.913-2.091-2.027-2.091h-1.576c-1.115 0-2.027.94-2.027 2.091v3.168z"/></g><g><path fill="#23a8fe" d="M25.545 21.658a1.958 1.958 0 0 0-1.002-.278h-1.576c-1.115 0-2.027.941-2.027 2.092v3.167h3.58v-3.168c.001-.774.415-1.452 1.025-1.813"/></g><g><path fill="#b1dbfc" d="M67.415 12.71L36.34 29.288v24.626l31.075 16.578z"/></g><g><path fill="#8cc9f9" d="M36.34 53.909l31.075 16.578v-4.63L36.34 49.28z"/></g><g><path fill="#4f67d2" d="M34.479 56.569h-4.475l-1.694 6.566h2.434c1.36 0 2.551-.89 2.908-2.17l1.235-4.435a2.197 2.197 0 0 1-.408.039"/></g><g><path fill="#324ccc" d="M33.073 56.57h-3.07l-1.693 6.565h2.434c.224 0 .442-.026.653-.072z"/></g><g><path fill="#6c7ed6" d="M26.46 74.696a3.548 3.548 0 0 1-.253-2.42l3.935-15.706H16.82v23.25c0 1.948 1.57 3.528 3.507 3.528h4.733c2.597 0 4.293-2.741 3.147-5.085z"/></g><g><g/><g clip-path="url(#uyjzb)"><path fill="#4f67d2" d="M21.475 79.82V56.57H16.82v23.25c0 1.948 1.57 3.528 3.507 3.528h4.655c-1.937 0-3.507-1.58-3.507-3.527"/></g></g><g><path fill="#23a8fe" d="M34.485 26.47H13.027c-1.17 0-2.127.957-2.127 2.127v25.996c0 1.17.957 2.127 2.127 2.127h21.458c1.17 0 2.127-.957 2.127-2.127V28.597c0-1.17-.956-2.127-2.127-2.127"/></g><g><path fill="#0193fa" d="M15.542 54.593V28.597c0-1.17.958-2.127 2.127-2.127h-4.642c-1.17 0-2.127.957-2.127 2.127v25.996c0 1.17.957 2.127 2.127 2.127h4.642a2.133 2.133 0 0 1-2.127-2.127"/></g><g><path fill="#ff656f" d="M70.992 72.612h-2.054a1.792 1.792 0 0 1-1.788-1.788V12.368c0-.984.804-1.788 1.788-1.788h2.054c.983 0 1.787.804 1.787 1.788v58.457c0 .983-.804 1.787-1.787 1.787"/></g><g><g/><g clip-path="url(#uyjzc)"><path fill="#ff4756" d="M70.782 70.77V12.423c0-.71.407-1.327.998-1.635a1.82 1.82 0 0 0-.842-.207h-1.946a1.847 1.847 0 0 0-1.842 1.842V70.77c0 1.012.829 1.84 1.842 1.84h1.946c.303 0 .589-.075.842-.206a1.845 1.845 0 0 1-.998-1.634"/></g></g><g><g><path fill="#0193fa" d="M6.558 41.75a1.15 1.15 0 0 0-1.15-1.15H2.3v2.302h3.107c.636 0 1.151-.516 1.151-1.152"/></g></g><g><g><path fill="#0193fa" d="M6.558 47.281c0-.635-.515-1.151-1.15-1.151H2.3v2.302h3.107a1.15 1.15 0 0 0 1.151-1.151"/></g></g><g><g><path fill="#0193fa" d="M5.407 35.06H2.3v2.302h3.107a1.151 1.151 0 1 0 0-2.302"/></g></g></g></g></svg>