<svg xmlns="http://www.w3.org/2000/svg" width="177" height="142" viewBox="0 0 177 142"><defs><clipPath id="o3o1a"><path d="M70.465 29.44H50.65v25.882h19.815V29.44z"/></clipPath></defs><g><g><g><g><path fill="#092339" d="M109.09 100.854L93.2 84.963l4.323-4.323 15.891 15.89z"/></g><g><path fill="#134a79" d="M80.23 71.994L64.34 56.103l4.323-4.323 15.89 15.89z"/></g><g><path fill="#fb8454" d="M52.983 116.532l-4.323-4.324L59.468 101.4l4.323 4.324z"/></g><g><path fill="#134a79" d="M70.853 98.661l-4.323-4.323L80.948 79.92l4.323 4.324z"/></g><g><g><path fill="#134a79" d="M107.605 44.616l-6.485 6.485 9.367 9.367 10.088-15.852a9.172 9.172 0 0 0-12.97 0"/></g><g><path fill="#092339" d="M120.58 57.58a9.172 9.172 0 0 0 0-12.97l-12.97 12.97 6.485 6.485z"/></g><g><path fill="#fac15c" d="M44.306 85.95L42 88.254l17.468 17.468 8.935-3.17 5.333-11.097c-7.958-7.958-19.717-9.79-29.43-5.507"/></g><g><path fill="#77aad4" d="M98.963 43.17L68.7 73.433l11.529 11.53 18.679-11.585 11.584-18.679z"/></g><g><path fill="#4a8ec6" d="M91.759 96.491L80.23 84.962 110.493 54.7l11.528 11.53z"/></g><g><path fill="#1d71b8" d="M124.585 94.728L113.416 83.56l-8.646 8.646 11.47 17.235z"/></g><g><path fill="#134a79" d="M104.766 92.21l-8.646 8.646 11.168 11.17 11.832-5.463z"/></g><g><path fill="#092339" d="M107.29 112.026l11.169 11.17 8.647-8.648-2.703-8.466-8.466-2.702z"/></g><g><path fill="#134a79" d="M135.754 105.899l-8.646 8.646-11.168-11.169 8.646-8.646z"/></g><g><g/><g clip-path="url(#o3o1a)"><path fill="#77aad4" d="M70.465 40.609L59.297 29.44l-8.647 8.646 11.472 17.236z"/></g></g><g><g><path fill="#4a8ec6" d="M50.646 38.09L42 46.737l11.169 11.168 11.83-5.46z"/></g></g><g><path fill="#1d71b8" d="M61.816 49.26l-8.646 8.647 11.169 11.168 8.646-8.646-2.702-8.467z"/></g><g><path fill="#4a8ec6" d="M61.82 49.256l8.646-8.646 11.168 11.168-8.645 8.646z"/></g><g><path fill="#f9b233" d="M79.245 120.89c4.283-9.714 2.45-21.473-5.507-29.43l-2.162 2.162-12.106 12.105 17.47 17.469z"/></g></g></g><g transform="rotate(45 66.5 7.5)"><path fill="#a3e1f6" d="M66.31 9.31l-5.657 3.657L64.31 7.31l-3.657-5.657L66.31 5.31l5.657-3.657L68.31 7.31l3.657 5.657z"/></g><g transform="rotate(45 104.5 137)"><path fill="#a3e1f6" d="M104.66 138.074l-4 2.586 2.586-4-2.586-4 4 2.586 4-2.586-2.586 4 2.586 4z"/></g><g transform="rotate(45 8.5 50)"><path fill="#f7a6d4" d="M8.56 51.698l-6.05 3.91 3.91-6.049-3.91-6.049 6.05 3.91 6.049-3.91-3.91 6.05 3.91 6.049z"/></g><g transform="rotate(45 165.5 109)"><path fill="#f7a6d4" d="M165.361 112.2l-8.031 5.193 5.192-8.032-5.192-8.031 8.031 5.192 8.032-5.192-5.192 8.031 5.192 8.032z"/></g></g></g></svg>