<svg xmlns="http://www.w3.org/2000/svg" width="104" height="105" viewBox="0 0 104 105"><g><g clip-path="url(#clip-E8806045-FFBB-4718-B9DF-C704493AC386)"><path fill="#fff" d="M81 84.628l-9.923 10.02a1.881 1.881 0 0 1-2.682 0c-4.912-4.958-6.348-12.113-4.32-18.361l-3.01-3.04-4.774 4.82a1.89 1.89 0 0 1-1.341.561c-.502 0-.985-.202-1.341-.561l-12.202-12.32-4.819 4.865 5.99 6.048c.741.748.741 1.96 0 2.707l-24.677 24.915a1.88 1.88 0 0 1-2.682 0L.556 89.48a1.928 1.928 0 0 1 0-2.709l24.677-24.915a1.883 1.883 0 0 1 2.683 0l5.99 6.05 4.819-4.866-9.204-9.292a10.631 10.631 0 0 1-3.088-7.527c0-2.193.656-4.284 1.869-6.05l-4.296-4.336a1.925 1.925 0 0 1 0-2.708l8.666-8.75a1.884 1.884 0 0 1 2.682 0l4.297 4.339a10.483 10.483 0 0 1 13.446 1.23l9.202 9.292 4.82-4.866-5.991-6.047a1.925 1.925 0 0 1 0-2.708L85.805.7a1.889 1.889 0 0 1 2.684 0l14.662 14.804a1.924 1.924 0 0 1 0 2.708L78.473 43.128a1.88 1.88 0 0 1-2.682 0l-5.99-6.048-4.82 4.865 12.203 12.32c.741.748.741 1.96 0 2.707l-4.771 4.819 3.01 3.039c6.188-2.047 13.273-.596 18.184 4.362.356.36.555.845.555 1.354 0 .507-.199.995-.555 1.354l-9.924 10.02.666.671c.742.748.742 1.961 0 2.71a1.881 1.881 0 0 1-2.681 0zm9.915-59.484L78.934 13.056l-5.57 5.619 11.982 12.088zm-9.3-14.796l11.982 12.095 5.53-5.584-11.98-12.096zM65.153 26.97l11.98 12.096 5.532-5.585-11.981-12.095zm-52.36 52.862l11.98 12.097 5.57-5.623L18.36 74.21zm9.299 14.805L10.11 82.54l-5.532 5.585 11.981 12.096zm16.475-16.623L26.577 65.918l-5.533 5.584L33.03 83.6zm-4.77-25.368l16.093 16.248 18.21-18.386L52.008 34.26zM45.641 30.66c-1.729 0-3.457.664-4.773 1.993l-8.665 8.75a6.797 6.797 0 0 0-1.977 4.818c0 1.289.354 2.523 1.012 3.59l17.958-18.13a6.695 6.695 0 0 0-3.555-1.021zM28.03 34.48l2.834 2.86 2.99-3.021 2.993-3.02-2.833-2.86zM73.16 55.617l-2.38-2.4-18.21 18.376 2.379 2.401zm-7.397 16.96a17.838 17.838 0 0 1 5.984-6.041L69.73 64.5l-5.983 6.04zm23.73-1.941A13.918 13.918 0 0 0 81 67.756c-3.595 0-7.188 1.38-9.924 4.142-5.018 5.064-5.436 13.04-1.251 18.586z"/></g></g></svg>