<svg xmlns="http://www.w3.org/2000/svg" width="108" height="17" viewBox="0 0 108 17"><defs><clipPath id="2uu1a"><path d="M0 16.551h107.271V0H0z"/></clipPath></defs><g><g><g><g/><g clip-path="url(#2uu1a)"><path fill="#fff" d="M81.049 8.272c0 5.146-3.498 8.28-9.08 8.28-5.46 0-9.082-3.006-9.082-8.28 0-5.208 3.59-8.272 9.082-8.272 5.31 0 9.08 2.898 9.08 8.272zm-4.57 0c0-3.056-1.763-4.86-4.51-4.86-2.892 0-4.523 1.953-4.523 4.86 0 2.788 1.583 4.859 4.523 4.859 2.84 0 4.51-1.946 4.51-4.859zM37.972.195c5.102 0 6.486 2.314 6.486 6.053v4.016c0 3.474-1.122 6.102-6.376 6.102H34.07c-3.851 0-6.14-1.504-6.14-4.92 0-2.823 1.652-4.897 6.126-4.897h6.037v-.272c0-1.906-.856-2.677-3.232-2.677l-5.7-.003c-1.54 0-2.12-1.07-2.12-2.157V.195zm2.12 9.53h-5.205c-1.658 0-2.533.482-2.533 1.732 0 1.306.951 1.73 2.533 1.73h2.27c2.177 0 2.936-1.25 2.936-2.886zm16.94-6.146c-3.088 0-4.851 1.403-4.851 4.698 0 3.797 2.327 4.699 4.852 4.699h2.323c1.435 0 2.425.573 2.425 2.007v1.383h-6.32c-3.96 0-7.82-1.884-7.82-8.089 0-4.97 2.53-8.082 7.82-8.082h6.32v1.362c0 1.46-.95 2.022-2.535 2.022zM9.388 11.945L13.535 1.49c.304-.773.774-1.295 2.002-1.295h2.847l-6.875 16.17H6.66L0 .196h3.24c1.424 0 1.817.599 2.11 1.37.206.565 3.97 10.38 3.97 10.38zm86.44-.149s3.02-8.623 3.353-9.615c.519-1.517 1.572-1.986 3.273-1.986h4.819v16.17h-2.156c-1.54 0-2.158-.785-2.158-1.932V3.117h-.071l-4.985 13.249h-4.67L88.25 3.116h-.076v11.31c0 1.353-.832 1.94-2.15 1.94h-1.74V.195h5.144c2.242 0 2.708 1.245 3.055 2.242.506 1.488 3.262 9.36 3.262 9.36zM24.755.195v16.17h-2.273c-1.431 0-2.088-.792-2.088-1.9V.195z"/></g></g></g></g></svg>