<svg xmlns="http://www.w3.org/2000/svg" width="99" height="105" viewBox="0 0 99 105"><g><g clip-path="url(#clip-C7B0733A-39F8-4B87-99AD-0AB9AE750642)" transform="rotate(-16 1107.5 1294.5)"><path fill="#fefefe" d="M98.837 34.486c.759.21 1.283.9 1.283 1.684v17.746a1.75 1.75 0 0 1-1.283 1.685l-5.47 1.522v21.765c0 .966-.785 1.75-1.755 1.75H78.106a1.753 1.753 0 0 1-1.756-1.75v-5.032L38.118 62.154h-1.25l-4.035 6.084 7.037 21.037h3.427c.97 0 1.755.783 1.755 1.749V96.7c0 .966-.786 1.749-1.755 1.749H25.535a1.754 1.754 0 0 1-1.665-1.198L12.19 62.154h-.442c-.97 0-1.755-.782-1.755-1.75v-1.897c-3.919-.81-6.873-4.277-6.873-8.42V39.999c0-4.61 3.661-8.383 8.239-8.587a7.94 7.94 0 0 1 6.57-3.478h20.19L76.35 16.232v-5.033c0-.966.787-1.749 1.756-1.749h13.506c.97 0 1.755.783 1.755 1.749v21.765zm-8.157-6.69l-10.32-5.792V30.7l10.32 5.791zM80.624 60.57l10.319 5.808v-25.24l-10.32-5.807zm-.252-42.707L90.69 23.65V12.255H80.37zM18.4 30.805a4.355 4.355 0 0 0-4.345 4.357v22.54h22.703V30.805zM7.204 49.363c0 2.2 1.29 4.077 3.095 4.792V34.482c-1.805.715-3.095 2.593-3.095 4.791zm19.56 42.77l.726 2.07h14.752v-2.07zm3.411-23.09H19.083l6.428 19.673h11.124zm3.327-7.522h-16.51l1.337 4.14h12.51zm43.627 8.622v-50.71L41.012 30.608V58.97zm13.654 6.254v-6.872l-10.32-5.546v12.418zm6.263-38.756l-3.095-.884v16.558l3.095-.883z"/></g></g></svg>