<svg xmlns="http://www.w3.org/2000/svg" width="14" height="14" viewBox="0 0 14 14"><g><g><path fill="none" stroke="#fff" stroke-linecap="round" stroke-linejoin="round" stroke-miterlimit="50" d="M12.926 9.947v1.8a1.2 1.2 0 0 1-1.307 1.198 11.868 11.868 0 0 1-5.175-1.84 11.694 11.694 0 0 1-3.598-3.599 11.867 11.867 0 0 1-1.841-5.199A1.2 1.2 0 0 1 2.198 1h1.8a1.2 1.2 0 0 1 1.199 1.031 7.7 7.7 0 0 0 .42 1.686 1.2 1.2 0 0 1-.27 1.265l-.762.761a9.595 9.595 0 0 0 3.598 3.598l.761-.761a1.2 1.2 0 0 1 1.266-.27 7.7 7.7 0 0 0 1.685.42 1.2 1.2 0 0 1 1.031 1.217z"/></g></g></svg>