<svg xmlns="http://www.w3.org/2000/svg" width="101" height="105" viewBox="0 0 101 105"><g><g clip-path="url(#clip-D41745B6-051E-47B6-B23A-14F33011A330)"><path fill="#fefefe" d="M93.786 25.193c3.94 0 7.147 3.184 7.147 7.1v59.78c0 3.915-3.207 7.1-7.147 7.1H78.403v3.966a1.87 1.87 0 0 1-1.876 1.864H24.405a1.87 1.87 0 0 1-1.876-1.864v-3.967H7.147c-3.94 0-7.147-3.184-7.147-7.1v-59.78c0-3.915 3.206-7.1 7.147-7.1h29.025a15.976 15.976 0 0 1 2.987-3.998L21.079 3.232a1.855 1.855 0 0 1 0-2.636 1.884 1.884 0 0 1 2.653 0l18.417 18.296a16.194 16.194 0 0 1 8.318-2.291c2.999 0 5.86.821 8.318 2.29L77.201.597a1.885 1.885 0 0 1 2.653 0 1.855 1.855 0 0 1 0 2.636l-18.079 17.96a16.008 16.008 0 0 1 2.985 4.001zm-43.32-4.865a12.395 12.395 0 0 0-9.863 4.864H60.33a12.397 12.397 0 0 0-9.865-4.864zM26.28 101.286h48.37v-2.113H26.28zm70.9-68.993c0-1.86-1.524-3.372-3.395-3.372H7.146c-1.87 0-3.394 1.512-3.394 3.372v59.79c0 1.859 1.523 3.372 3.395 3.372h86.64c1.87 0 3.393-1.513 3.393-3.373z"/></g><g clip-path="url(#clip-F3F7A07B-AE2E-4236-A7F5-90C766E7CB46)"><path fill="#fefefe" d="M92.127 32c1.034 0 1.873.831 1.873 1.855v56.29A1.865 1.865 0 0 1 92.127 92H8.873A1.864 1.864 0 0 1 7 90.145v-56.29C7 32.831 7.838 32 8.873 32zM10.746 88.29h79.498V35.71H10.746z"/></g></g></svg>