<svg xmlns="http://www.w3.org/2000/svg" width="16" height="16" viewBox="0 0 16 16"><defs><clipPath id="3zv9b"><path fill="#fff" d="M8 16A8 8 0 1 0 8 0a8 8 0 0 0 0 16z"/></clipPath><clipPath id="3zv9a"><path d="M3 12.233h9.983V3.02H3z"/></clipPath></defs><g><g><g><g><path fill="#041920" fill-opacity=".5" d="M4.17 5.73h5.284v4.878H4.17zm.585 4.338h4.124V6.27H4.755z"/></g><g><path fill="#041920" fill-opacity=".5" d="M10.04 7.35h1.755v-.54H10.04z"/></g><g><g><path fill="#041920" fill-opacity=".5" d="M10.917 10.61c-.483 0-.877-.363-.877-.81 0-.447.394-.81.877-.81.484 0 .878.363.878.81 0 .447-.394.81-.878.81zm.006-1.08c-.164 0-.298.121-.298.27 0 .149.134.27.298.27.164 0 .297-.121.297-.27 0-.149-.133-.27-.297-.27z"/></g><g/><g clip-path="url(#3zv9a)"><path fill="#041920" fill-opacity=".5" d="M10.04 6.27h1.755v-.54H10.04z"/></g><g clip-path="url(#3zv9a)"><path fill="#041920" fill-opacity=".5" d="M10.04 8.43h1.755v-.54H10.04z"/></g><g clip-path="url(#3zv9a)"><path fill="#041920" fill-opacity=".5" d="M4.17 11.693H3V4.655h3.559c.035-.16.101-.31.192-.443l-1.797-.694.226-.498 2.011.776c.23-.14.505-.22.8-.22.296 0 .571.08.801.22l2.012-.776.225.498-1.797.694c.091.134.157.283.193.443h3.558v7.038h-1.189v.54h-1.755v-.54H5.925v.54H4.17zm3.827-7.578c-.384 0-.711.226-.833.54H8.83c-.121-.314-.449-.54-.832-.54zm-3.24 7.038v.54h.585v-.54h5.29v.54h.586v-.54h1.19V5.195H3.585v5.958z"/></g></g></g><g><path fill="none" stroke="#041920" stroke-miterlimit="50" stroke-opacity=".5" stroke-width="1.4" d="M8 16A8 8 0 1 0 8 0a8 8 0 0 0 0 16z" clip-path="url(&quot;#3zv9b&quot;)"/></g></g></g></svg>