<svg xmlns="http://www.w3.org/2000/svg" width="16" height="15" viewBox="0 0 16 15"><g><g><path fill="#fff" d="M14.382 15l-3.722-3.722a5.822 5.822 0 0 1-3.812 1.417A5.854 5.854 0 0 1 1 6.848 5.854 5.854 0 0 1 6.848 1a5.854 5.854 0 0 1 5.847 5.848 5.822 5.822 0 0 1-1.417 3.812L15 14.382zM1.874 6.848a4.98 4.98 0 0 0 4.974 4.973 4.98 4.98 0 0 0 4.973-4.973 4.98 4.98 0 0 0-4.973-4.974 4.98 4.98 0 0 0-4.974 4.974z"/><path fill="none" stroke="#fff" stroke-miterlimit="50" stroke-width=".2" d="M14.382 15l-3.722-3.722a5.822 5.822 0 0 1-3.812 1.417A5.854 5.854 0 0 1 1 6.848 5.854 5.854 0 0 1 6.848 1a5.854 5.854 0 0 1 5.847 5.848 5.822 5.822 0 0 1-1.417 3.812L15 14.382zM1.874 6.848a4.98 4.98 0 0 0 4.974 4.973 4.98 4.98 0 0 0 4.973-4.973 4.98 4.98 0 0 0-4.973-4.974 4.98 4.98 0 0 0-4.974 4.974z"/></g></g></svg>