<svg xmlns="http://www.w3.org/2000/svg" width="16" height="16" viewBox="0 0 16 16"><defs><clipPath id="5i68a"><path fill="#fff" d="M8 16A8 8 0 1 0 8 0a8 8 0 0 0 0 16z"/></clipPath></defs><g><g><g><path fill="none" stroke="#041920" stroke-miterlimit="50" stroke-opacity=".5" stroke-width="1.4" d="M8 16A8 8 0 1 0 8 0a8 8 0 0 0 0 16z" clip-path="url(&quot;#5i68a&quot;)"/></g><g><path fill="#041920" fill-opacity=".5" d="M13 6.042v.948l-1.172.586v2.455H10.07v-.73a8.597 8.597 0 0 0-4.14-1.568v2.923h-.586v.34c0 .274.146.499.391.625.27.14.59.121.835-.047l1.043-.716c.195-.13.43-.202.66-.202.657 0 1.192.526 1.192 1.172 0 .646-.535 1.172-1.192 1.172h-2.05a1.467 1.467 0 0 1-1.465-1.465v-.879h-.586V7.687A1.173 1.173 0 0 1 3 6.516c0-.647.526-1.172 1.172-1.172h.879a8.616 8.616 0 0 0 5.02-1.613V3h1.757v2.456zm-6.098 6.015a1.393 1.393 0 0 1-1.212.177c.148.113.333.18.533.18h2.05a.604.604 0 0 0 .606-.586.604.604 0 0 0-.94-.484zM5.334 7.693a8.227 8.227 0 0 0-.288-.005h-.288v2.382h.576zm.596-1.806a9.214 9.214 0 0 1-.88.042h-.878a.584.584 0 0 0-.586.582c0 .32.263.58.586.58h.879c.294 0 .587.015.879.043zm4.14-1.446a9.196 9.196 0 0 1-3.554 1.37V7.22a9.197 9.197 0 0 1 3.554 1.37zm.586 5.004h.576v-5.86h-.576zm1.748-3.041l-.576-.293v.81l.576-.293z"/></g></g></g></svg>