<svg xmlns="http://www.w3.org/2000/svg" width="16" height="16" viewBox="0 0 16 16"><defs><clipPath id="gkh1a"><path fill="#fff" d="M8 16A8 8 0 1 0 8 0a8 8 0 0 0 0 16z"/></clipPath></defs><g><g><g><path fill="#041920" fill-opacity=".5" d="M5.773 4h6.691v5.646c0 .934-.746 1.694-1.663 1.694H4.664C3.709 11.344 3 10.504 3 9.566V6.823c0-.622.498-1.13 1.11-1.13h1.663zm0 5.082h-1.11V6.823a.56.56 0 0 0-.554-.564.56.56 0 0 0-.554.564v2.743c0 .632.463 1.21 1.109 1.21h.01a1.12 1.12 0 0 0 1.099-1.13zm0-2.823h-.704c.095.166.15.359.15.564v1.694h.554zm.554 3.396c0 .418-.152.821-.423 1.13H10.8c.611 0 1.109-.507 1.109-1.13v-5.09H6.327z"/></g><g><path fill="#041920" fill-opacity=".5" d="M6.88 5.69h4.473v1.694H6.88zm.556 1.136h3.372v-.568H7.436z"/></g><g><path fill="#041920" fill-opacity=".5" d="M6.88 8.515h4.473V7.95H6.88z"/></g><g><path fill="#041920" fill-opacity=".5" d="M6.88 9.645h4.473V9.08H6.88z"/></g></g><g><path fill="none" stroke="#041920" stroke-miterlimit="50" stroke-opacity=".5" stroke-width="1.4" d="M8 16A8 8 0 1 0 8 0a8 8 0 0 0 0 16z" clip-path="url(&quot;#gkh1a&quot;)"/></g></g></svg>