<svg xmlns="http://www.w3.org/2000/svg" width="89" height="105" viewBox="0 0 89 105"><g><g><g><path fill="#fff" d="M79.336 47.737C85.568 57.86 89 68.277 89 77.074c0 8.501-2.529 15.215-7.515 19.952-5.57 5.291-14.131 7.974-25.448 7.974H32.963c-11.317 0-19.878-2.683-25.447-7.974C2.529 92.29 0 85.576 0 77.074c0-8.797 3.432-19.216 9.664-29.337 5.67-9.208 13.17-17.247 20.75-22.28a4.881 4.881 0 0 1-.746-2.598 4.93 4.93 0 0 1 2.832-4.453L27.986 4.534a.967.967 0 0 1-.015-.051c-.404-1.396-.152-2.69.69-3.55.842-.86 2.132-1.143 3.541-.776l.082.023c.068.022 6.807 2.152 9.044 2.788 1.427.404 3.93.403 5.355-.005 2.214-.634 8.882-2.756 8.95-2.777.027-.009.054-.017.082-.024 1.408-.37 2.7-.087 3.542.772.837.854 1.09 2.137.697 3.522L56.398 18.36a4.933 4.933 0 0 1 2.933 4.5 4.88 4.88 0 0 1-.745 2.597c7.58 5.033 15.08 13.073 20.75 22.28zM54.39 24.495c.91 0 1.65-.736 1.65-1.64 0-.904-.74-1.64-1.65-1.64H34.607a1.647 1.647 0 0 0-1.646 1.64c0 .904.739 1.64 1.649 1.64zM31.076 3.28c.006.07.02.16.052.27l4.677 14.382h4.611l-2.392-5.964a1.64 1.64 0 0 1 .917-2.133c.844-.336 1.8.073 2.138.914l2.881 7.183h1.068l2.881-7.183a1.648 1.648 0 0 1 2.14-.914 1.64 1.64 0 0 1 .916 2.133l-2.392 5.964h4.528l3.66-14.31.013-.048a1.5 1.5 0 0 0 .057-.29 1.52 1.52 0 0 0-.254.042c-.652.207-6.807 2.164-8.992 2.79-2.008.575-5.153.577-7.162.006-2.21-.627-8.434-2.594-9.088-2.8a1.561 1.561 0 0 0-.26-.042zm48.138 91.37c4.309-4.094 6.494-10.008 6.494-17.577 0-8.199-3.26-18.008-9.178-27.62-5.668-9.206-13.208-17.165-20.715-21.877-.452.135-.93.209-1.426.209h-3.517l1.59 2.378c.504.754.3 1.772-.456 2.275a1.646 1.646 0 0 1-2.283-.455l-2.808-4.198h-4.831l-2.807 4.199a1.649 1.649 0 0 1-2.283.454 1.637 1.637 0 0 1-.457-2.275l1.59-2.378H34.61c-.495 0-.974-.074-1.426-.21-7.507 4.713-15.046 12.672-20.715 21.878-5.918 9.612-9.177 19.421-9.177 27.62 0 7.57 2.185 13.483 6.494 17.577 4.937 4.69 12.734 7.068 23.177 7.068h23.074c10.441 0 18.24-2.377 23.177-7.068z"/></g><g><path fill="#fff" d="M45 52.246c-3.21 0-6.803 1.772-6.803 4.144 0 2.371 3.592 4.143 6.803 4.143 9.374 0 17 6.316 17 14.077 0 3.26-1.378 6.435-3.88 8.945-2.118 2.124-4.97 3.698-8.13 4.503C49.502 90.308 47.45 92 45 92c-2.449 0-4.502-1.693-4.988-3.942-3.16-.805-6.013-2.38-8.131-4.503-2.503-2.51-3.88-5.686-3.88-8.945 0-2.739 2.286-4.967 5.098-4.967 2.811 0 5.097 2.228 5.097 4.966 0 2.372 3.592 4.144 6.804 4.144 3.211 0 6.803-1.772 6.803-4.144 0-2.37-3.592-4.142-6.803-4.142-9.374 0-17-6.316-17-14.077 0-3.26 1.378-6.437 3.88-8.945 2.12-2.125 4.97-3.698 8.13-4.504C40.498 40.693 42.55 39 45 39c2.454 0 4.51 1.7 4.991 3.954 5.426 1.343 9.584 4.74 11.257 9.264.498 1.35.75 2.752.75 4.172 0 2.738-2.286 4.966-5.097 4.966-2.81 0-5.098-2.228-5.098-4.966 0-.27-.05-.54-.147-.802-.704-1.906-3.565-3.342-6.656-3.342m-.005 11.596c-5.621 0-10.195-3.344-10.195-7.452 0-4.11 4.574-7.453 10.195-7.453 4.595 0 8.644 2.273 9.847 5.527.23.623.348 1.272.348 1.926 0 .914.763 1.658 1.702 1.658.938 0 1.702-.744 1.702-1.658a8.786 8.786 0 0 0-.55-3.05c-1.369-3.7-5.185-6.539-9.96-7.407-.804-.146-1.387-.829-1.387-1.625v-.341c0-.915-.763-1.659-1.702-1.659-.938 0-1.702.744-1.702 1.659v.32c0 .794-.579 1.476-1.38 1.625-6.094 1.128-10.516 5.536-10.516 10.478 0 5.937 6.1 10.768 13.598 10.768 5.622 0 10.195 3.343 10.195 7.452s-4.573 7.451-10.195 7.451c-5.621 0-10.195-3.342-10.195-7.45 0-.915-.763-1.66-1.7-1.66-.94 0-1.703.745-1.703 1.66 0 4.941 4.423 9.347 10.517 10.477.8.149 1.38.831 1.38 1.625v.32c0 .915.763 1.659 1.701 1.659.939 0 1.702-.744 1.702-1.659v-.32c0-.794.58-1.476 1.38-1.625 6.094-1.13 10.517-5.536 10.517-10.478 0-5.939-6.1-10.768-13.599-10.768"/></g></g></g></svg>