<svg xmlns="http://www.w3.org/2000/svg" width="297" height="24" viewBox="0 0 297 24"><defs><clipPath id="75ula"><path d="M74.621 23.777H0V.75h149.243v23.027z"/></clipPath><clipPath id="75ulb"><path d="M0 23.777h296.109V.75H0z"/></clipPath></defs><g><g><g><g><g/><g clip-path="url(#75ula)"><path fill="#fff" d="M112.76 12.259c0 7.158-4.867 11.518-12.632 11.518-7.595 0-12.636-4.18-12.636-11.518C87.492 5.013 92.486.75 100.128.75c7.388 0 12.632 4.031 12.632 11.509zm-6.357 0c0-4.252-2.454-6.763-6.275-6.763-4.023 0-6.293 2.719-6.293 6.763 0 3.878 2.203 6.76 6.293 6.76 3.95 0 6.275-2.708 6.275-6.76zM52.828 1.02c7.1 0 9.024 3.217 9.024 8.416v5.585c0 4.829-1.56 8.483-8.87 8.483H47.4c-5.358 0-8.541-2.09-8.541-6.841 0-3.925 2.298-6.808 8.521-6.808h8.4v-.378c0-2.65-1.19-3.723-4.497-3.723l-7.93-.004c-2.142 0-2.95-1.487-2.95-3v-1.73zm2.952 13.258h-7.243c-2.307 0-3.523.67-3.523 2.404 0 1.812 1.322 2.4 3.523 2.4h3.158c3.03 0 4.085-1.736 4.085-4.003zm23.568-8.553c-4.298 0-6.751 1.952-6.751 6.533 0 5.278 3.239 6.533 6.75 6.533h3.233c1.996 0 3.374.796 3.374 2.79v1.923H77.16c-5.508 0-10.88-2.619-10.88-11.246 0-6.91 3.523-11.238 10.88-11.238h8.794v1.894c0 2.029-1.322 2.811-3.527 2.811zM13.06 17.36L18.83 2.82c.422-1.073 1.077-1.8 2.785-1.8h3.96l-9.563 22.484H9.265L0 1.021h4.509c1.98 0 2.526.833 2.933 1.905.288.786 5.526 14.433 5.526 14.433zm120.26-.207s4.2-11.99 4.665-13.37c.721-2.109 2.188-2.761 4.553-2.761h6.704v22.484h-2.999c-2.142 0-3.002-1.093-3.002-2.687V5.083h-.1l-6.934 18.422h-6.497L122.78 5.084h-.106v15.723c0 1.882-1.157 2.698-2.991 2.698h-2.42V1.021h7.155c3.12 0 3.768 1.73 4.25 3.118.705 2.068 4.539 13.013 4.539 13.013zM34.44 1.02v22.484h-3.162c-1.991 0-2.906-1.103-2.906-2.643V1.021z"/></g></g><g/><g clip-path="url(#75ulb)"><path fill="#fff" d="M158.993 10.025h1.497V1.08h-1.498z"/></g><g clip-path="url(#75ulb)"><path fill="#fff" d="M167.352 3.725l4.714 6.107c.127.172.318.258.567.258.417 0 .742-.32.742-.727V1.079h-1.46v6.272l-4.7-6.094c-.137-.18-.327-.267-.58-.267a.744.744 0 0 0-.742.74v8.296h1.459z"/></g><g clip-path="url(#75ulb)"><path fill="#fff" d="M181.715 10.027V2.435h2.903V1.08h-7.303v1.355h2.904v7.592z"/></g><g clip-path="url(#75ulb)"><path fill="#fff" d="M190.055 6.087h3.715a.67.67 0 0 0 .676-.661.678.678 0 0 0-.676-.678h-3.715V2.435h4.753V1.08h-5.496c-.41 0-.755.34-.755.742v7.46c0 .405.345.745.755.745h5.536V8.672h-4.793z"/></g><g clip-path="url(#75ulb)"><path fill="#fff" d="M207.12 3.805c0 1.143-.662 2.102-1.704 2.496l2.283 3.726h-1.747l-2.125-3.5h-2.535v3.5h-1.5V1.823a.76.76 0 0 1 .757-.743h3.654c1.662 0 2.917 1.171 2.917 2.725m-1.497.004c0-.953-.77-1.384-1.486-1.384h-2.845v2.77h2.844c.717 0 1.487-.434 1.487-1.386"/></g><g clip-path="url(#75ulb)"><path fill="#fff" d="M218.063 7.35l-4.701-6.093c-.137-.18-.327-.267-.581-.267a.751.751 0 0 0-.741.74v8.295h1.458V3.727l4.712 6.107c.13.17.321.257.57.257.417 0 .742-.32.742-.729V1.08h-1.459z"/></g><g clip-path="url(#75ulb)"><path fill="#fff" d="M227.819.99c.291 0 .525.159.64.438l3.574 8.598h-1.54l-.891-2.215h-3.58l-.894 2.215h-1.538l3.576-8.601a.683.683 0 0 1 .652-.435zm0 2.3l-1.308 3.274h2.613z"/></g><g clip-path="url(#75ulb)"><path fill="#fff" d="M234.127 2.436h2.9v7.591h1.5V2.436h2.901V1.08h-7.3z"/></g><g clip-path="url(#75ulb)"><path fill="#fff" d="M245.685 10.025h1.498V1.08h-1.498z"/></g><g clip-path="url(#75ulb)"><path fill="#fff" d="M256.429 10.163c-2.573 0-4.511-1.984-4.511-4.614 0-2.626 1.938-4.604 4.51-4.604s4.513 1.978 4.513 4.604c0 2.63-1.94 4.614-4.512 4.614m-.004-7.85c-1.772 0-3.01 1.33-3.01 3.236 0 1.911 1.238 3.246 3.01 3.246 1.774 0 3.011-1.335 3.011-3.246 0-1.905-1.237-3.235-3.011-3.235"/></g><g clip-path="url(#75ulb)"><path fill="#fff" d="M272.225 10.09a.73.73 0 0 0 .744-.728V1.08h-1.46V7.35l-4.7-6.094c-.137-.18-.327-.267-.58-.267a.752.752 0 0 0-.744.74v8.296h1.46V3.728l4.714 6.106c.13.17.32.257.566.257"/></g><g clip-path="url(#75ulb)"><path fill="#fff" d="M282.959 7.811h-3.582l-.892 2.215h-1.54l3.575-8.601a.687.687 0 0 1 .654-.435c.292 0 .524.159.64.438l3.575 8.598h-1.537zm-1.785-4.52l-1.306 3.273h2.612z"/></g><g clip-path="url(#75ulb)"><path fill="#fff" d="M290.355 10.027h5.444V8.658h-4.689V1.08h-1.498v8.203c0 .404.34.744.743.744"/></g><g clip-path="url(#75ulb)"><path fill="#fff" d="M166.719 14.475a.718.718 0 0 0-.628.345l-2.884 4.578-2.881-4.576a.707.707 0 0 0-.617-.347.706.706 0 0 0-.717.727v8.308h1.446v-6.013l2.184 3.51a.687.687 0 0 0 .585.328c.241 0 .449-.113.591-.321l2.178-3.516v6.012h1.445V15.19a.7.7 0 0 0-.702-.714"/></g><g clip-path="url(#75ulb)"><path fill="#fff" d="M183.813 14.565c3.266 0 5.46 1.797 5.46 4.471 0 2.677-2.194 4.474-5.46 4.474h-1.383a.76.76 0 0 1-.758-.742v-7.461a.76.76 0 0 1 .758-.742h1.383m.197 7.57c1.875 0 3.766-.96 3.766-3.102s-1.891-3.1-3.767-3.1h-.836v6.203h.837"/></g><g clip-path="url(#75ulb)"><path fill="#fff" d="M192.248 23.511h1.497v-8.946h-1.498z"/></g><g clip-path="url(#75ulb)"><path fill="#fff" d="M200.648 14.475a.67.67 0 0 1 .64.433l3.575 8.602h-1.537l-.895-2.215h-3.579l-.895 2.215h-1.54l3.577-8.602a.688.688 0 0 1 .654-.433zm0 2.298l-1.306 3.284h2.611z"/></g><g clip-path="url(#75ulb)"><path fill="#fff" d="M218.063 20.837l-4.7-6.093c-.137-.181-.326-.269-.582-.269a.752.752 0 0 0-.741.742v8.293h1.458v-6.298l4.712 6.106c.13.17.321.257.57.257.417 0 .742-.32.742-.73v-8.28h-1.459z"/></g><g clip-path="url(#75ulb)"><path fill="#fff" d="M225.33 19.573h3.713c.38 0 .676-.291.676-.665a.677.677 0 0 0-.676-.677h-3.714v-2.312h4.752v-1.354h-5.496a.76.76 0 0 0-.755.742v7.462a.76.76 0 0 0 .755.742h5.536v-1.355h-4.792z"/></g><g clip-path="url(#75ulb)"><path fill="#fff" d="M232.762 15.92h2.904v7.591h1.497V15.92h2.9v-1.355h-7.3z"/></g><g clip-path="url(#75ulb)"><path fill="#fff" d="M250.155 20.545l-1.779-5.581c-.088-.278-.347-.459-.658-.459a.662.662 0 0 0-.643.459l-1.78 5.58-1.62-5.858-.033-.116h-1.482l2.36 8.477c.084.323.36.533.699.533.321 0 .582-.181.67-.46l1.829-5.816 1.842 5.816c.089.278.353.46.672.46.331 0 .598-.203.696-.53l2.364-8.48h-1.485z"/></g><g clip-path="url(#75ulb)"><path fill="#fff" d="M260.396 14.438c2.573 0 4.511 1.977 4.511 4.6 0 2.635-1.938 4.619-4.51 4.619s-4.512-1.984-4.512-4.618c0-2.624 1.94-4.602 4.511-4.602m0 7.85c1.775 0 3.015-1.335 3.015-3.248 0-1.904-1.24-3.232-3.015-3.232-1.775 0-3.015 1.328-3.015 3.232 0 1.913 1.24 3.249 3.015 3.249"/></g><g clip-path="url(#75ulb)"><path fill="#fff" d="M275.534 17.29c0 1.14-.664 2.1-1.706 2.494l2.287 3.727h-1.75l-2.124-3.499h-2.537v3.499h-1.497v-8.204c0-.402.345-.742.753-.742h3.654c1.665 0 2.92 1.172 2.92 2.725m-1.505 0c0-.951-.768-1.384-1.482-1.384h-2.843v2.766h2.843c.714 0 1.482-.433 1.482-1.381"/></g><g clip-path="url(#75ulb)"><path fill="#fff" d="M286.9 14.565h-2.044l-3.873 3.482v-3.482h-1.496v8.946h1.496v-3.715l4.088 3.674.044.041h2.043l-5.084-4.603z"/></g><g clip-path="url(#75ulb)"><path fill="#fff" d="M293.207 18.441c-2.113-.966-2.485-1.238-2.485-1.823 0-.437.239-.84 1.978-.84.846 0 1.925.132 2.813.346l.162.04.243-1.264-.14-.041c-.784-.233-2.176-.422-3.102-.422-2.323 0-3.451.726-3.451 2.22 0 1.278.891 1.91 2.891 2.838 1.994.925 2.499 1.22 2.499 1.758 0 .654-.778 1.06-2.032 1.06-.909 0-1.99-.19-3.126-.55l-.156-.048-.356 1.23.138.052c1.156.43 2.365.659 3.5.659 2.176 0 3.528-.946 3.528-2.466 0-1.21-.762-1.77-2.904-2.749"/></g><g clip-path="url(#75ulb)"><path fill="#fff" d="M173.233 19.573h3.714c.38 0 .676-.291.676-.665a.678.678 0 0 0-.676-.677h-3.714v-2.312h4.754v-1.354h-5.497c-.41 0-.755.34-.755.742v7.462c0 .402.345.742.754.742h5.536v-1.355h-4.792z"/></g></g></g></g></svg>