<svg xmlns="http://www.w3.org/2000/svg" xmlns:xlink="http://www.w3.org/1999/xlink" viewBox="0 0 68.54 66.92"><defs><style>.cls-1{fill:none;}.cls-2{clip-path:url(#clip-path);}</style><clipPath id="clip-path" transform="translate(-11.73 -13.54)"><rect class="cls-1" width="92" height="94"/></clipPath></defs><title>mtv-dance-black</title><g id="Слой_2" data-name="Слой 2"><g id="Layer_1" data-name="Layer 1"><g class="cls-2"><path d="M24.2,65.65h-.9l-1,6.11c0,.14,0,.24,0,.31s0,.16-.08.28l.25,0h.71a5.33,5.33,0,0,0,1.51-.18,2.31,2.31,0,0,0,1-.61,3.59,3.59,0,0,0,.84-1.39,5.76,5.76,0,0,0,.3-1.89,2.57,2.57,0,0,0-.67-1.93,2.65,2.65,0,0,0-1.94-.66" transform="translate(-11.73 -13.54)"/><path d="M37.22,69.29,37,67.82c-.05-.3-.09-.54-.12-.74s-.05-.38-.07-.57,0-.37,0-.57,0-.45,0-.73l-.11,0c-.09.3-.16.55-.22.76s-.13.4-.19.58-.14.38-.22.57l-.31.72-.37.86c-.06.15-.11.27-.16.37l-.12.29-.14.3c0,.11-.11.23-.19.38l.72,0H37l.35,0c0-.16-.08-.28-.1-.36s0-.2-.06-.37" transform="translate(-11.73 -13.54)"/><path d="M11.73,80.46H80.27V57.54H11.73ZM26.5,74.54a7.28,7.28,0,0,1-3,.58h-5L20.38,62.9h4.46a5.5,5.5,0,0,1,2.13.4,4.64,4.64,0,0,1,1.66,1.14,5.27,5.27,0,0,1,1.08,1.75,6.25,6.25,0,0,1,.38,2.25,7.45,7.45,0,0,1-.25,2,7.2,7.2,0,0,1-.73,1.73A5.79,5.79,0,0,1,28,73.53a6.11,6.11,0,0,1-1.47,1m11.78.58-.45-2.42H33.49l-1.08,2.42H28.7L35,62.9h4.07l2.59,12.22Zm14.82,0H49.37l-2-5.16c-.16-.4-.29-.74-.39-1s-.2-.57-.3-.83-.18-.54-.26-.82-.19-.64-.3-1l-.11,0q0,.64,0,1.08c0,.29,0,.58-.06.84s-.06.56-.1.87-.1.68-.16,1.12l-.67,5H41.66l2-12.22h3.74l2,5.21c.16.4.3.75.41,1s.2.56.3.82.18.54.26.83.19.64.3,1.06l.09,0c0-.43,0-.79.05-1.09s0-.57.06-.85,0-.57.09-.87.09-.68.15-1.12l.68-5h3.32Zm10.81-.2a3.67,3.67,0,0,1-1.18.4,10.12,10.12,0,0,1-1.76.13A6.81,6.81,0,0,1,58.52,75a5.1,5.1,0,0,1-3-3,6.9,6.9,0,0,1-.41-2.44,7.63,7.63,0,0,1,.52-2.82,6.73,6.73,0,0,1,1.52-2.32,6.31,6.31,0,0,1,4.7-1.85,7.2,7.2,0,0,1,3.91,1l-.52,3.34a4.19,4.19,0,0,0-1.48-1,4.85,4.85,0,0,0-1.86-.35,3.31,3.31,0,0,0-1.38.28,3.23,3.23,0,0,0-1.07.8,3.8,3.8,0,0,0-.7,1.23,5,5,0,0,0-.24,1.58,3,3,0,0,0,.87,2.3,3.57,3.57,0,0,0,2.5.8,4.61,4.61,0,0,0,1.31-.17,6.3,6.3,0,0,0,1.25-.54Zm9.49-9.21H69.67l-.24,1.34-.05.3c0,.07,0,.17-.08.3l.3,0h3.48l-.47,2.71H68.92l-.24,1.43c0,.14,0,.24-.06.31a1.86,1.86,0,0,1-.07.28l.3,0H72.3l-.45,2.81h-7l2-12.22h7.09Z" transform="translate(-11.73 -13.54)"/><path d="M60.09,55.9A36.77,36.77,0,0,1,59.82,52c0-.83.11-4.18.11-6.88,0-2.28-.49-6.32-.49-8.52a30.86,30.86,0,0,0,0-3.75c1-.68,2-1.12,4.88-2.88.94-.57,2.74-1.53,2.74-2.69,0-.51-.14-.85-.87-1.45a2.52,2.52,0,0,0-1.68-.53c-1.48,0-2.15,1.49-3.39,2.25-1.9,1.16-2.9,1.73-3.29,1.94A3.85,3.85,0,0,0,56,29c-1.09,0-2.35.49-2.35,1.89,0,.65.21,1.35-.65,1.8-.49.3-2.84,1.65-5.35,3.16-2.11,1.28-3.1,1.18-4,1.71a1.88,1.88,0,0,0-1,1.66A2.56,2.56,0,0,0,43,40.45a2.31,2.31,0,0,0,2,1.12c1.51,0,2.77-1.33,5.11-3,1.46-1,2.8-2.12,3.58-2.12s1.19.53,1.19,2.7c0,7.27-.44,8.42-.44,13.46,0,.91,0,2.59.07,3.28H50.6V44l-7.42,6.25L35.77,44V55.9h-24V13.54h23.4l8,8.48,8.06-8.48H74.76V31.66a57.11,57.11,0,0,0-4.54,9c-.5,1.3-.74,2.24-1.39,2.24S68,42.2,68,41.55c-.15-1.39-.46-4-.6-4.95-.28-1.85-.65-3.81-2.72-3.81a2.92,2.92,0,0,0-3.14,3.13,22.75,22.75,0,0,0,1.78,6.52c.45,1.17,2.8,7.35,3.14,8.25a2.67,2.67,0,0,0,2.83,2.08c1.73,0,2.32-.63,3-3.05.6-2.06,1.63-5.41,2.47-7.52h0V55.9ZM80.27,32.39V55.9H76.4V38.7a45.5,45.5,0,0,1,3.87-6.31M76.4,29.26V13.54l3.87,2.32v8.61a48.48,48.48,0,0,0-3.87,4.79M45.32,17.4l-2.14,2.24-5.76-6.07,7.32,3.22Zm.25,33h2.67l.72-.61V47.53ZM37.41,55.9h3.18V50.21l-3.18-2.68Z" transform="translate(-11.73 -13.54)"/></g></g></g></svg>