<svg xmlns="http://www.w3.org/2000/svg" xmlns:xlink="http://www.w3.org/1999/xlink" viewBox="0 0 68.54 66.92"><defs><style>.cls-1{fill:none;}.cls-2{clip-path:url(#clip-path);}.cls-3{fill:#fff;}</style><clipPath id="clip-path" transform="translate(-11.73 -13.54)"><rect class="cls-1" width="92" height="94"/></clipPath></defs><title>mtv-dance-white</title><g id="Слой_2" data-name="Слой 2"><g id="Слой_1-2" data-name="Слой 1"><g id="Layer_1" data-name="Layer 1"><g class="cls-2"><path class="cls-3" d="M24.2,65.65h-.9l-1,6.11v.31a.45.45,0,0,1-.08.28h1a5.48,5.48,0,0,0,1.51-.18,2.26,2.26,0,0,0,1-.61,3.61,3.61,0,0,0,.84-1.39,5.79,5.79,0,0,0,.3-1.89,2.58,2.58,0,0,0-.67-1.93,2.65,2.65,0,0,0-1.94-.66" transform="translate(-11.73 -13.54)"/><path class="cls-3" d="M37.22,69.29,37,67.82c0-.3-.09-.54-.12-.74s-.05-.38-.07-.57a5.42,5.42,0,0,1,0-.57v-.73H36.7c-.09.3-.16.55-.22.76s-.13.4-.19.58-.14.38-.22.57l-.31.72-.37.86c-.06.15-.11.27-.16.37l-.12.29-.14.3c0,.11-.11.23-.19.38h2.57a1.13,1.13,0,0,0-.1-.36,1.8,1.8,0,0,0-.06-.37" transform="translate(-11.73 -13.54)"/><path class="cls-3" d="M11.73,80.46H80.27V57.54H11.73ZM26.5,74.54a7.36,7.36,0,0,1-3,.58h-5L20.38,62.9h4.46a5.56,5.56,0,0,1,2.13.4,4.53,4.53,0,0,1,1.66,1.14,5.29,5.29,0,0,1,1.08,1.75,6.37,6.37,0,0,1,.38,2.25,7.51,7.51,0,0,1-.25,2,7.14,7.14,0,0,1-.73,1.73A5.61,5.61,0,0,1,28,73.53a6.16,6.16,0,0,1-1.47,1m11.78.58-.45-2.42H33.49l-1.08,2.42H28.7L35,62.9h4.07l2.59,12.22Zm14.82,0H49.37l-2-5.16c-.16-.4-.29-.74-.39-1s-.2-.57-.3-.83-.18-.54-.26-.82-.19-.64-.3-1H46v1.08a3.82,3.82,0,0,1-.06.84c-.06.26-.06.56-.1.87s-.1.68-.16,1.12l-.67,5H41.66l2-12.22H47.4l2,5.21c.16.4.3.75.41,1s.2.56.3.82.18.54.26.83.19.64.3,1.06h.09a7.06,7.06,0,0,1,.05-1.09c0-.3,0-.57.06-.85s0-.57.09-.87A8.75,8.75,0,0,0,51.11,68l.68-5h3.32Zm10.81-.2a3.83,3.83,0,0,1-1.18.4,10.35,10.35,0,0,1-1.76.13A6.76,6.76,0,0,1,58.52,75a5.11,5.11,0,0,1-3-3,7,7,0,0,1-.41-2.44,7.58,7.58,0,0,1,.52-2.82,6.77,6.77,0,0,1,1.52-2.32,6.34,6.34,0,0,1,4.7-1.85,7.16,7.16,0,0,1,3.91,1l-.52,3.34a4.13,4.13,0,0,0-1.48-1,4.73,4.73,0,0,0-1.86-.35,3.28,3.28,0,0,0-1.38.28,3.23,3.23,0,0,0-1.07.8,3.67,3.67,0,0,0-.7,1.23,5,5,0,0,0-.24,1.58,3,3,0,0,0,.87,2.3,3.6,3.6,0,0,0,2.5.8,4.49,4.49,0,0,0,1.31-.17,6.56,6.56,0,0,0,1.25-.54Zm9.49-9.21H69.67L69.43,67l-.05.3a.51.51,0,0,1-.08.3h3.78l-.47,2.71H68.92l-.24,1.43a.47.47,0,0,1-.06.31,2.29,2.29,0,0,1-.07.28H72.3l-.45,2.81h-7l2-12.22h7.09Z" transform="translate(-11.73 -13.54)"/><path class="cls-3" d="M60.09,55.9a36.32,36.32,0,0,1-.27-3.9c0-.83.11-4.18.11-6.88,0-2.28-.49-6.32-.49-8.52a29.33,29.33,0,0,0,0-3.75c1-.68,2-1.12,4.88-2.88.94-.57,2.74-1.53,2.74-2.69,0-.51-.14-.85-.87-1.45a2.54,2.54,0,0,0-1.68-.53c-1.48,0-2.15,1.49-3.39,2.25-1.9,1.16-2.9,1.73-3.29,1.94A3.91,3.91,0,0,0,56,29c-1.09,0-2.35.49-2.35,1.89,0,.65.21,1.35-.65,1.8-.49.3-2.84,1.65-5.35,3.16-2.11,1.28-3.1,1.18-4,1.71a1.89,1.89,0,0,0-1,1.66A2.54,2.54,0,0,0,43,40.45a2.3,2.3,0,0,0,2,1.12c1.51,0,2.77-1.33,5.11-3,1.46-1,2.8-2.12,3.58-2.12s1.19.53,1.19,2.7c0,7.27-.44,8.42-.44,13.46,0,.91,0,2.59.07,3.28H50.6V44l-7.42,6.25L35.77,44V55.9h-24V13.54h23.4l8,8.48,8.06-8.48H74.76V31.66a57.06,57.06,0,0,0-4.54,9c-.5,1.3-.74,2.24-1.39,2.24S68,42.2,68,41.55c-.15-1.39-.46-4-.6-4.95-.28-1.85-.65-3.81-2.72-3.81a2.92,2.92,0,0,0-3.14,2.68,3.38,3.38,0,0,0,0,.45,23,23,0,0,0,1.78,6.52c.45,1.17,2.8,7.35,3.14,8.25a2.68,2.68,0,0,0,2.83,2.08c1.73,0,2.32-.63,3-3.05.6-2.06,1.63-5.41,2.47-7.52h0V55.9ZM80.27,32.39V55.9H76.4V38.7a45.78,45.78,0,0,1,3.87-6.31M76.4,29.26V13.54l3.87,2.32v8.61a48.22,48.22,0,0,0-3.87,4.79M45.32,17.4l-2.14,2.24-5.76-6.07,7.32,3.22Zm.25,33h2.67l.72-.61V47.53Zm-8.16,5.5h3.18V50.21l-3.18-2.68Z" transform="translate(-11.73 -13.54)"/></g></g></g></g></svg>