<svg xmlns="http://www.w3.org/2000/svg" xmlns:xlink="http://www.w3.org/1999/xlink" viewBox="0 0 68.54 66.92"><defs><style>.cls-1{fill:none;}.cls-2{clip-path:url(#clip-path);}.cls-3{fill:#fb2e7b;}</style><clipPath id="clip-path" transform="translate(-11.73 -13.54)"><rect class="cls-1" width="92" height="94"/></clipPath></defs><title>mtv-hits-colored</title><g id="Слой_2" data-name="Слой 2"><g id="Layer_1" data-name="Layer 1"><g class="cls-2"><path class="cls-3" d="M11.73,80.46H80.27V57.54H11.73Zm23.55-5.34L36,70.88a2.11,2.11,0,0,1,.06-.31c0-.06.05-.15.08-.27l-.3,0h-4L31,75.12H27.72l2-12.22H33l-.64,4c0,.14-.05.25-.07.31s0,.15-.08.27l.3,0h4l.73-4.59h3.3L38.59,75.12Zm8.16,0h-3.3L42.08,62.9h3.33Zm7.43,0H47.56L49,66.33c0-.15,0-.25,0-.31a1.66,1.66,0,0,1,.09-.28,1.37,1.37,0,0,1-.3,0H46.46l.46-2.88h8.44l-.45,2.88H52.35Zm9.7-7.66,1,.51.56.29a3.15,3.15,0,0,1,1.14,1.18,3.31,3.31,0,0,1,.42,1.64,5.16,5.16,0,0,1-.25,1.72,3.36,3.36,0,0,1-.83,1.29,4.24,4.24,0,0,1-1.56,1,5.13,5.13,0,0,1-1.95.38q-.53,0-1,0a6.24,6.24,0,0,1-.81-.13,4.49,4.49,0,0,1-.73-.25,5.53,5.53,0,0,1-.75-.4,5.26,5.26,0,0,1-.78-.54,8.73,8.73,0,0,1-.67-.68l1.71-2.56a4.55,4.55,0,0,0,1.36,1.24,3,3,0,0,0,1.52.4,1.25,1.25,0,0,0,.9-.31,1,1,0,0,0,.33-.78,1,1,0,0,0-.31-.68A5.11,5.11,0,0,0,58.79,70a11.19,11.19,0,0,1-1.47-.87,3,3,0,0,1-.79-.82,3.18,3.18,0,0,1-.35-.77,2.71,2.71,0,0,1-.13-.83,4,4,0,0,1,1-2.82,4.06,4.06,0,0,1,1.45-1,4.3,4.3,0,0,1,1.75-.39,5.59,5.59,0,0,1,4,1.53l-1.49,2.4a4.47,4.47,0,0,0-1.13-.88,2.54,2.54,0,0,0-1.13-.24,1,1,0,0,0-.76.26.87.87,0,0,0-.28.68c0,.43.36.82,1.08,1.18" transform="translate(-11.73 -13.54)"/><path class="cls-3" d="M60.09,55.9A36.77,36.77,0,0,1,59.82,52c0-.83.11-4.18.11-6.88,0-2.28-.49-6.32-.49-8.52a30.86,30.86,0,0,0,0-3.75c1-.68,2-1.12,4.88-2.88.94-.57,2.74-1.53,2.74-2.69,0-.51-.14-.85-.87-1.45a2.52,2.52,0,0,0-1.68-.53c-1.48,0-2.15,1.49-3.39,2.25-1.9,1.16-2.9,1.73-3.29,1.94A3.85,3.85,0,0,0,56,29c-1.09,0-2.35.49-2.35,1.89,0,.65.21,1.35-.65,1.8-.49.3-2.84,1.65-5.35,3.16-2.11,1.28-3.1,1.18-4,1.71a1.88,1.88,0,0,0-1,1.66A2.56,2.56,0,0,0,43,40.45a2.33,2.33,0,0,0,2,1.12c1.51,0,2.77-1.33,5.11-3,1.46-1,2.8-2.12,3.58-2.12s1.19.53,1.19,2.7c0,7.27-.44,8.42-.44,13.46,0,.91,0,2.59.07,3.28H50.6V44l-7.42,6.25L35.77,44V55.9h-24V13.54h23.4l8,8.48,8.06-8.48H74.76V31.66a57.11,57.11,0,0,0-4.54,9c-.5,1.3-.74,2.24-1.39,2.24S68,42.2,68,41.55c-.15-1.39-.46-4-.6-4.95-.28-1.85-.65-3.81-2.72-3.81a2.92,2.92,0,0,0-3.14,3.13,22.75,22.75,0,0,0,1.78,6.52c.45,1.17,2.8,7.35,3.14,8.24a2.67,2.67,0,0,0,2.83,2.09c1.73,0,2.32-.63,3-3.05.6-2.06,1.63-5.41,2.47-7.52h0V55.9ZM80.27,32.39V55.9H76.4V38.7a45.5,45.5,0,0,1,3.87-6.31M76.4,29.26V13.54l3.87,2.32v8.61a48.48,48.48,0,0,0-3.87,4.79M45.32,17.4l-2.14,2.24-5.76-6.07,7.32,3.22Zm.25,33h2.67l.72-.61V47.53ZM37.41,55.9h3.18V50.21l-3.18-2.68Z" transform="translate(-11.73 -13.54)"/></g></g></g></svg>