<svg xmlns="http://www.w3.org/2000/svg" width="31" height="32" viewBox="0 0 31 32"><defs><clipPath id="er0ja"><path d="M0 19.89v10.344h30.938V19.89z"/></clipPath><clipPath id="er0jb"><path d="M28.451.03H0v19.119h28.451z"/></clipPath><clipPath id="er0jc"><path d="M30.936.03H29.19v7.093h1.746V.03z"/></clipPath></defs><g><g><g><g><path fill="#fff" d="M26.49 23.55h-.414l-.448 2.767-.025.14a1.4 1.4 0 0 1-.033.126.542.542 0 0 1 .107-.017H26c.282 0 .512-.028.693-.082.18-.056.332-.147.46-.274.16-.16.285-.37.376-.63.092-.26.138-.547.138-.861 0-.381-.102-.672-.303-.87-.202-.199-.493-.299-.874-.299"/></g><g><g/><g clip-path="url(#er0ja)"><path fill="#fff" d="M0 19.89h30.938v10.344H0zm5.291 6.636H3.767a.796.796 0 0 0-.132.017 1.894 1.894 0 0 0 .057-.265L4.33 22.3h-1.5l-.877 5.527h3.132zM7.973 22.3h-1.5l-.878 5.527h1.491zm2.984 5.527l2.917-5.527h-1.69l-1.077 2.445-.071.16-.026.06a10.654 10.654 0 0 0-.35.97l-.022-.003s0 .003-.002.005v-.006l-.016-.003-.05-.39a5.721 5.721 0 0 0-.047-.31l-.058-.317-.029-.15-.024-.107-.488-2.354h-1.59l1.473 5.527zm6.525-5.527h-3.206l-.878 5.527h3.19l.199-1.268H15.22a.938.938 0 0 0-.134.017c.017-.055.028-.096.034-.124l.025-.141.108-.647h1.673l.216-1.234H15.56a.938.938 0 0 0-.133.016c.017-.06.028-.104.033-.132l.025-.141.108-.604h1.691zm5.724 5.527l.88-5.527h-1.494l-.332 2.072h-1.498a.807.807 0 0 0-.134.017l.033-.124a.739.739 0 0 0 .034-.142l.291-1.823h-1.504l-.879 5.527h1.495l.348-2.163h1.49c.034 0 .08-.005.141-.016l-.041.124-.025.141-.299 1.914zm5.813-2.142c.078-.284.116-.578.116-.881 0-.371-.047-.71-.14-1.016a2.079 2.079 0 0 0-.438-.79 1.982 1.982 0 0 0-.762-.515c-.308-.122-.678-.183-1.107-.183h-1.936l-.876 5.527h2.266c.276 0 .523-.02.744-.062a2.582 2.582 0 0 0 1.295-.654c.2-.185.37-.398.512-.638.14-.24.25-.503.326-.788z"/></g></g><g><path fill="#fcfdff" d="M16.484 16.658l.325-.273V15.37l-1.529 1.288z"/></g><g><path fill="#fcfdff" d="M15.156 1.768l-.26-.276L11.59.04l2.604 2.74z"/></g><g><path fill="#fcfdff" d="M11.59 19.15h1.438v-2.57l-1.438-1.21z"/></g><g><g/><g clip-path="url(#er0jb)"><path fill="#fcfdff" d="M14.198 3.857L10.562.03H0v19.12h10.849v-5.371l3.349 2.82 3.347-2.82v5.37h1.74c-.015-.313-.03-1.07-.03-1.48 0-2.275.199-2.795.199-6.074 0-.98-.219-1.219-.536-1.219-.353 0-.957.488-1.615.956-1.056.75-1.625 1.348-2.308 1.348-.404 0-.634-.177-.89-.504-.049-.061-.185-.333-.185-.549 0-.242.098-.52.47-.746.402-.242.846-.196 1.801-.771 1.131-.683 2.195-1.29 2.412-1.429.39-.204.297-.519.297-.81 0-.635.568-.854 1.058-.854.467 0 .758.173.829.205a45.6 45.6 0 0 0 1.482-.879c.56-.342.863-1.012 1.53-1.012.28 0 .528.053.758.237.33.27.393.423.393.655 0 .523-.812.958-1.236 1.216-1.312.793-1.728.99-2.204 1.298.066.286.022 1.094.023 1.69 0 .993.22 2.819.22 3.846 0 1.218-.05 2.73-.05 3.106 0 .606.07 1.295.126 1.77h6.622v-6.182c-.383.95-.844 2.464-1.117 3.394-.32 1.09-.588 1.376-1.367 1.376-.606 0-.997-.202-1.276-.942a2595.42 2595.42 0 0 1-1.418-3.72c-.508-1.34-.804-2.358-.804-2.943 0-1.036.725-1.415 1.416-1.415.935 0 1.1.885 1.227 1.721.065.433.206 1.607.272 2.236.031.29.06.612.385.612.299 0 .403-.424.629-1.01.69-1.794 1.717-3.552 2.053-4.07V.03H17.832z"/></g></g><g><path fill="#fcfdff" d="M29.19 19.15h1.746V8.54c-.473.622-1.373 2.04-1.746 2.847z"/></g><g><g/><g clip-path="url(#er0jc)"><path fill="#fcfdff" d="M29.19 7.124c.42-.622 1.317-1.712 1.746-2.159V1.08L29.19.03z"/></g></g></g></g></g></svg>