<svg xmlns="http://www.w3.org/2000/svg" width="33" height="32" viewBox="0 0 33 32"><g><g><g><g><path fill="#fff" d="M10.951 23.54c-.228 0-.437.044-.628.133a1.515 1.515 0 0 0-.499.37 1.74 1.74 0 0 0-.332.565c-.082.22-.122.456-.122.711 0 .388.101.691.3.907.122.133.272.236.449.312a1.49 1.49 0 0 0 1.186-.021c.19-.089.354-.212.491-.37.134-.158.242-.345.319-.562.078-.215.116-.454.116-.715 0-.421-.112-.748-.337-.981-.223-.232-.538-.349-.943-.349"/></g><g><g><path fill="#fff" d="M0 19.93h31.049v10.381H0zm6.182 5.889a1.772 1.772 0 0 1-.07-.108c.471-.077.833-.265 1.089-.561.255-.297.383-.68.383-1.151 0-1.098-.674-1.647-2.022-1.647H3.683l-.889 5.538H4.29l.176-1.081.053-.35c.014-.094.026-.184.037-.27.012-.086.02-.175.025-.27.006-.094.012-.208.017-.341l.042-.008c.044.128.082.236.111.325a5.237 5.237 0 0 0 .209.499l.154.324.566 1.172h1.729l-1.04-1.771a2.956 2.956 0 0 0-.071-.125c-.019-.034-.039-.063-.057-.092a2.983 2.983 0 0 1-.059-.083zm7.463.135c.111-.346.166-.68.166-1.003 0-.405-.065-.782-.195-1.128-.13-.348-.32-.65-.569-.905a2.178 2.178 0 0 0-.85-.545c-.324-.114-.71-.171-1.158-.171-1.162 0-2.042.389-2.639 1.166-.415.55-.624 1.211-.624 1.982 0 .35.046.662.137.933.092.272.237.532.437.775.266.334.578.584.941.755.364.169.762.253 1.2.253.587 0 1.116-.103 1.585-.312a2.654 2.654 0 0 0 1.113-.879c.193-.266.345-.573.456-.92zm2.506.406c-.263-.244-.395-.59-.395-1.04 0-.26.038-.498.113-.714.075-.217.18-.402.316-.557a1.39 1.39 0 0 1 .486-.362c.188-.086.396-.129.623-.129.305 0 .587.053.844.158.258.105.481.255.67.449l.233-1.514c-.466-.294-1.056-.44-1.772-.44-.864 0-1.574.28-2.129.839-.298.3-.527.651-.686 1.052a3.48 3.48 0 0 0-.235 1.277c0 .41.061.778.186 1.106.125.327.302.605.532.835.23.23.51.408.841.533.329.125.699.187 1.109.187.305 0 .571-.021.798-.062.227-.042.405-.102.533-.18l.224-1.397a2.558 2.558 0 0 1-.566.246c-.182.053-.38.079-.589.079-.494 0-.872-.122-1.136-.366zm7.716 1.53l-1.871-2.777 2.727-2.761h-1.896l-1.06 1.148c-.1.106-.183.196-.25.271l-.187.212a3.247 3.247 0 0 0-.17.216 8.286 8.286 0 0 1-.207.275l-.029-.012a5.151 5.151 0 0 0 .143-.626l.057-.361.184-1.123h-1.505l-.882 5.538h1.498l.232-1.431c.016-.121.031-.225.045-.311.015-.086.025-.166.034-.241.009-.075.014-.154.021-.238l.001-.025h.033c.05.105.093.193.132.266l.113.207c.036.067.074.138.116.213.042.075.096.165.162.27l.796 1.29zm2.709-3.474c-.327-.162-.491-.339-.491-.533 0-.128.044-.231.129-.308a.495.495 0 0 1 .346-.117c.194 0 .363.036.511.108.147.072.317.205.511.399l.674-1.085a2.638 2.638 0 0 0-.832-.529 2.736 2.736 0 0 0-.98-.165c-.262 0-.525.058-.791.174a1.926 1.926 0 0 0-.657.457c-.31.333-.465.76-.465 1.281a1.4 1.4 0 0 0 .216.724c.078.127.196.25.357.369.161.12.383.252.665.395.234.123.397.231.491.325a.43.43 0 0 1 .141.308c0 .144-.05.261-.15.353a.578.578 0 0 1-.407.137c-.248 0-.48-.06-.689-.179-.212-.118-.417-.306-.617-.561l-.773 1.156c.111.127.212.231.304.312.091.08.21.162.353.245.116.072.229.132.338.179.107.047.218.084.332.112.113.027.235.047.366.058.13.011.275.017.436.017.3 0 .594-.057.882-.171.287-.114.524-.265.707-.454.176-.177.302-.373.377-.587.075-.214.113-.473.113-.779 0-.266-.064-.514-.191-.742a1.401 1.401 0 0 0-.517-.533 7.644 7.644 0 0 0-.253-.133 17.572 17.572 0 0 1-.436-.233z"/></g></g><g><path fill="#fff" d="M5.445 23.63h-.474l-.125.823a2.769 2.769 0 0 1-.028.137l-.038.129a.853.853 0 0 1 .138-.017h.402c.45 0 .673-.197.673-.59 0-.321-.182-.482-.548-.482"/></g><g><path fill="#fff" d="M29.3 19.189h1.752V8.54c-.474.626-1.377 2.047-1.752 2.857z"/></g><g><g><path fill="#fff" d="M14.249 3.84L10.601 0H0v19.188h10.889v-5.39l3.36 2.831 3.36-2.831v5.39h1.745a46.344 46.344 0 0 1-.029-1.485c0-2.284.2-2.806.2-6.097 0-.984-.22-1.223-.538-1.223-.355 0-.961.489-1.622.959-1.059.753-1.63 1.353-2.316 1.353-.405 0-.636-.178-.893-.507a1.143 1.143 0 0 1-.185-.549c0-.243.097-.524.471-.749.404-.243.85-.196 1.808-.775 1.135-.685 2.203-1.295 2.421-1.433.39-.205.297-.521.298-.814 0-.636.571-.857 1.061-.857.469 0 .761.174.831.206.177-.098.631-.357 1.489-.881.562-.345.866-1.017 1.536-1.017.281 0 .53.054.76.239.332.272.394.424.394.657 0 .525-.814.962-1.241 1.22-1.316.796-1.733.995-2.211 1.303.066.287.022 1.099.023 1.697 0 .996.222 2.828.222 3.859 0 1.223-.051 2.739-.051 3.116 0 .609.069 1.3.126 1.778h6.645v-6.204c-.384.952-.847 2.473-1.12 3.405-.321 1.095-.591 1.382-1.371 1.382-.61 0-1.001-.203-1.283-.946l-1.422-3.733c-.509-1.345-.807-2.367-.807-2.954 0-1.04.728-1.42 1.422-1.42.937 0 1.104.889 1.231 1.728.066.434.207 1.612.274 2.243.031.291.058.614.386.614.299 0 .404-.425.63-1.013.694-1.801 1.723-3.565 2.06-4.085V0H17.897z"/></g></g><g><path fill="#fff" d="M16.538 16.692l.327-.274V15.4l-1.535 1.292z"/></g><g><path fill="#fff" d="M11.63 19.193h1.443v-2.579L11.63 15.4z"/></g><g><path fill="#fff" d="M29.3 7.119c.422-.623 1.322-1.718 1.752-2.166v-3.9L29.3 0z"/></g><g><path fill="#fff" d="M15.219 1.744l-.262-.277L11.64.01l2.613 2.75z"/></g><g><g><path fill="#fff" d="M32.437 18.5l-.186.539h-.001l-.19-.539h-.17v.688h.115v-.531h.002l.191.531h.099l.191-.531h.002v.531h.114V18.5z"/></g></g><g><path fill="#fff" d="M31.25 18.604h.218v.584h.12v-.584h.219V18.5h-.557z"/></g></g></g></g></svg>