<svg xmlns="http://www.w3.org/2000/svg" width="33" height="32" viewBox="0 0 33 32"><defs><clipPath id="e5zqa"><path d="M32.345 19.037V0H0v19.037z"/></clipPath></defs><g><g><g><g><path fill="#fff" d="M11.459 25.05l-.115-.66c-.022-.132-.041-.242-.054-.33a4.181 4.181 0 0 1-.049-.515 26.85 26.85 0 0 1-.012-.327l-.05-.008c-.04.132-.072.245-.099.339l-.083.264a2.784 2.784 0 0 1-.1.255l-.139.322-.165.388a5.701 5.701 0 0 1-.071.165c-.018.044-.038.088-.057.131a7.555 7.555 0 0 1-.145.306c.138-.011.246-.017.323-.017h.73c.035 0 .088.006.161.017-.023-.072-.037-.125-.047-.161a3.436 3.436 0 0 1-.028-.169"/></g><g><path fill="#fff" d="M5.608 23.42h-.405l-.445 2.747-.025.136c-.005.03-.016.073-.033.128a.547.547 0 0 1 .111-.016h.318c.274 0 .501-.028.681-.083.178-.055.331-.146.457-.272.16-.16.285-.369.376-.627.09-.259.136-.542.136-.85 0-.38-.1-.668-.301-.867-.201-.197-.491-.296-.87-.296"/></g><g><path fill="#fff" d="M0 19.77h30.803v10.299H0zm6.63 7.637a2.724 2.724 0 0 0 1.173-1.085 3.299 3.299 0 0 0 .441-1.654c-.001-.368-.059-.705-.175-1.01a2.387 2.387 0 0 0-.48-.788 2.137 2.137 0 0 0-.745-.512 2.489 2.489 0 0 0-.955-.181H3.887l-.872 5.494H5.27c.522 0 .975-.088 1.36-.264zm6.803.264l-1.162-5.494h-1.827l-2.816 5.494h1.663l.485-1.089h1.945l.205 1.089zm6.048-5.494h-1.492l-.306 2.252a14.715 14.715 0 0 0-.136 1.279c-.008.131-.016.294-.021.486l-.041.009a16.3 16.3 0 0 0-.132-.475 8.56 8.56 0 0 0-.255-.742l-.182-.466-.908-2.343h-1.683l-.874 5.494h1.485l.305-2.227.071-.504c.018-.137.035-.266.044-.387.012-.121.02-.248.025-.38.006-.132.011-.294.018-.486l.049-.009c.05.182.093.337.132.467a17.553 17.553 0 0 0 .251.742c.047.129.107.284.177.466l.908 2.318h1.675zm4.2 4.017c-.192.111-.38.191-.562.244a2.124 2.124 0 0 1-.587.078c-.49 0-.866-.121-1.128-.363-.262-.242-.393-.586-.393-1.031 0-.259.037-.495.111-.709.076-.215.18-.399.315-.553.135-.154.296-.274.483-.359.187-.085.395-.128.621-.128.304 0 .583.052.838.157.257.104.48.253.667.445l.23-1.501c-.462-.291-1.05-.437-1.76-.437-.86 0-1.566.277-2.116.833a3.043 3.043 0 0 0-.684 1.044c-.156.399-.234.82-.234 1.266 0 .407.062.772.186 1.097.124.325.3.601.53.829.228.228.507.404.834.528.328.124.696.185 1.104.185.302 0 .567-.02.792-.061.227-.042.403-.101.53-.178zm4.23-4.017h-3.184l-.875 5.494h3.168l.198-1.262h-1.547a.831.831 0 0 0-.136.016.939.939 0 0 0 .032-.128l.025-.135.108-.644h1.659l.214-1.221h-1.568a.828.828 0 0 0-.131.017c.016-.061.027-.106.032-.136l.025-.137.107-.602h1.675z"/></g><g><g/><g clip-path="url(#e5zqa)"><path fill="#fff" d="M17.755 0h10.571v8.14c-.334.516-1.356 2.266-2.043 4.052-.225.583-.329 1.005-.626 1.005-.325 0-.352-.32-.383-.609a73.451 73.451 0 0 0-.271-2.225c-.127-.833-.292-1.714-1.222-1.714-.688 0-1.41.377-1.41 1.408 0 .583.295 1.597.801 2.931.198.526 1.257 3.302 1.41 3.703.279.738.668.938 1.273.938.774 0 1.042-.284 1.359-1.37.271-.925.731-2.434 1.112-3.379v6.156h-6.592a15.769 15.769 0 0 1-.125-1.764c0-.374.05-1.878.05-3.091 0-1.023-.22-2.841-.22-3.829-.001-.594.043-1.399-.022-1.683.473-.306.887-.503 2.193-1.294.423-.255 1.23-.689 1.23-1.21 0-.23-.061-.382-.39-.651-.229-.183-.475-.237-.754-.237-.665 0-.966.667-1.524 1.009-.851.52-1.302.777-1.477.874-.069-.032-.359-.204-.825-.204-.486 0-1.052.218-1.052.85-.001.29.092.604-.295.807-.217.137-1.276.742-2.403 1.422-.95.573-1.392.527-1.793.768-.37.224-.467.502-.467.743 0 .215.135.485.183.546.255.326.484.503.886.503.681 0 1.247-.596 2.298-1.343.655-.466 1.257-.951 1.609-.951.315 0 .533.237.533 1.213 0 3.265-.198 3.783-.198 6.048 0 .407.015 1.161.029 1.474h-1.731v-5.348l-3.333 2.809-3.334-2.809v5.348H0V0h10.516l3.62 3.81zm-3.619 2.741L11.543.013l3.291 1.445.26.275zm-2.597 12.532l1.431 1.208v2.565h-1.431zm3.671 1.294l1.523-1.292v1.018l-.325.274zm13.853-5.261c.372-.803 1.268-2.214 1.738-2.835v10.565h-1.738zm0-11.306l1.738 1.044v3.87a21.996 21.996 0 0 0-1.738 2.148zm3.282 18.353v.684h-.114v-.527h-.002l-.189.527h-.099l-.189-.527h-.002v.527h-.114v-.684h.169l.188.535h.002l.183-.535zm-1.339 0h.553v.104h-.218v.58h-.119v-.58h-.216z"/></g></g></g></g></g></svg>