<svg xmlns="http://www.w3.org/2000/svg" width="34" height="32" viewBox="0 0 34 32"><defs><clipPath id="6ptta"><path d="M0 0v19.488h29V0z"/></clipPath><clipPath id="6pttb"><path d="M33.117 19.79v-1h-.727v1h.727z"/></clipPath></defs><g><g><g><g><path fill="#fff" d="M0 20.24h31.535v10.543H0zm12.349 8.088l.894-5.625h-1.517l-.338 2.112H9.554a.796.796 0 0 0-.14.017l.038-.127c.01-.028.018-.076.03-.144l.296-1.858H8.25l-.893 5.625h1.517l.355-2.204h1.833c.03 0 .078-.006.14-.017l-.038.127a1.297 1.297 0 0 0-.03.143l-.304 1.951zm3.156-5.625H13.97l-.9 5.625h1.527zm3.185 1.326h1.175l.21-1.326h-3.884l-.211 1.326h1.076a.779.779 0 0 0 .14-.017.723.723 0 0 0-.042.127l-.026.144-.641 4.045h1.519zm3.78.775c-.333-.164-.498-.346-.498-.543 0-.13.044-.234.131-.313a.497.497 0 0 1 .35-.12c.197 0 .37.037.519.111.15.073.323.209.52.406l.685-1.105a2.687 2.687 0 0 0-.846-.538 2.77 2.77 0 0 0-.996-.168c-.265 0-.532.06-.803.178-.27.119-.492.274-.666.465-.316.339-.473.773-.473 1.303 0 .125.019.252.058.38a1.366 1.366 0 0 0 .524.732c.164.121.389.256.676.403.236.123.403.233.498.33.096.096.143.2.143.313 0 .146-.05.266-.152.359-.1.094-.238.14-.413.14a1.39 1.39 0 0 1-.701-.183 2.177 2.177 0 0 1-.625-.57l-.785 1.175c.112.13.215.236.308.318.093.081.213.164.358.248.119.075.233.135.343.184.109.047.222.085.338.113.115.029.239.048.371.06.132.011.28.016.443.016.305 0 .603-.058.896-.173a2.03 2.03 0 0 0 .718-.462c.18-.18.308-.38.384-.597.076-.217.113-.482.113-.792a1.513 1.513 0 0 0-.717-1.298c-.05-.028-.137-.073-.258-.136-.121-.062-.269-.14-.443-.236z"/></g><g><path fill="#fff" d="M15.455 1.771l-.267-.281L11.82.01l2.654 2.793z"/></g><g><path fill="#fff" d="M16.797 16.952l.332-.279V15.64l-1.559 1.312z"/></g><g><g/><g clip-path="url(#6ptta)"><path fill="#fff" d="M14.472 3.9L10.767 0H0v19.488h11.06v-5.475l3.412 2.876 3.413-2.876v5.475h1.772a47.63 47.63 0 0 1-.03-1.508c0-2.32.203-2.85.203-6.192 0-1-.223-1.242-.546-1.242-.36 0-.976.496-1.647.974-1.076.765-1.656 1.374-2.353 1.374-.411 0-.645-.181-.907-.515-.049-.062-.187-.338-.187-.558 0-.247.099-.532.478-.761.41-.246.863-.2 1.836-.786 1.154-.697 2.238-1.315 2.459-1.456.397-.209.302-.529.302-.826 0-.648.58-.871 1.078-.871.477 0 .774.176.845.209.179-.099.64-.363 1.512-.895.571-.35.879-1.033 1.56-1.033.285 0 .537.056.772.243.336.276.399.431.399.667 0 .533-.826.977-1.259 1.239-1.337.809-1.761 1.011-2.246 1.324.067.291.022 1.115.023 1.723 0 1.011.226 2.873.226 3.919 0 1.242-.052 2.783-.052 3.166 0 .618.07 1.32.127 1.805H29v-6.302c-.39.968-.861 2.512-1.138 3.46-.326 1.111-.6 1.402-1.392 1.402-.62 0-1.018-.205-1.303-.96-.156-.411-1.241-3.253-1.445-3.792-.517-1.365-.819-2.403-.819-3 0-1.055.739-1.441 1.444-1.441.952 0 1.121.901 1.25 1.754.066.441.21 1.638.278 2.278.032.296.059.624.392.624.304 0 .411-.432.641-1.029.704-1.829 1.75-3.62 2.092-4.148V0H18.178z"/></g></g><g><path fill="#fff" d="M11.81 19.493h1.466v-2.619L11.81 15.64z"/></g><g><path fill="#fff" d="M29.75 19.486h1.78V8.67c-.482.635-1.4 2.08-1.78 2.902z"/></g><g><path fill="#fff" d="M29.75 7.23c.428-.633 1.342-1.745 1.78-2.2V1.069L29.75 0z"/></g><g><g/><g clip-path="url(#6pttb)"><path fill="#fff" d="M32.946 18.79l-.188.547h-.002l-.193-.547h-.173v.699h.118v-.54h.001l.194.54h.101l.194-.54H33v.54h.116v-.699z"/></g></g><g><path fill="#fff" d="M31.74 18.895h.222v.593h.122v-.593h.222v-.105h-.566z"/></g></g></g></g></svg>