<svg xmlns="http://www.w3.org/2000/svg" xmlns:xlink="http://www.w3.org/1999/xlink" viewBox="0 0 68.54 66.92"><defs><style>.cls-1{fill:none;}.cls-2{clip-path:url(#clip-path);}</style><clipPath id="clip-path" transform="translate(-11.73 -13.57)"><rect class="cls-1" width="92" height="94"/></clipPath></defs><title>mtv-rocks-black</title><g id="Слой_2" data-name="Слой 2"><g id="Layer_1" data-name="Layer 1"><g class="cls-2"><path d="M35.91,65.52a3.18,3.18,0,0,0-1.39.3,3.38,3.38,0,0,0-1.1.81,3.78,3.78,0,0,0-.73,1.25,4.28,4.28,0,0,0-.27,1.57,2.63,2.63,0,0,0,1.65,2.69,3,3,0,0,0,1.23.25,3.36,3.36,0,0,0,1.39-.29,3.23,3.23,0,0,0,1.08-.82A3.87,3.87,0,0,0,38.48,70a4.68,4.68,0,0,0,.25-1.58A3,3,0,0,0,38,66.29a2.76,2.76,0,0,0-2.08-.77" transform="translate(-11.73 -13.57)"/><path d="M23.75,65.73H22.7l-.27,1.81c0,.14-.05.24-.06.31l-.09.28.31,0h.88c1,0,1.49-.43,1.49-1.3,0-.71-.4-1.06-1.21-1.06" transform="translate(-11.73 -13.57)"/><path d="M11.73,80.49H80.27V57.57H11.73Zm13.64-9.92a1.27,1.27,0,0,1,.13.19,1,1,0,0,1,.13.2,2.76,2.76,0,0,1,.16.27l2.29,3.91H24.27L23,72.55c-.14-.28-.25-.51-.34-.71s-.18-.38-.25-.55-.14-.36-.21-.55L22,70l-.09,0c0,.29,0,.54,0,.75s0,.41-.05.6l-.09.6c0,.2-.07.46-.11.77l-.39,2.38H17.9l2-12.22H24q4.45,0,4.46,3.63a3.71,3.71,0,0,1-.85,2.54,3.82,3.82,0,0,1-2.4,1.24l.15.24m16.5.29a6.83,6.83,0,0,1-1,2,5.83,5.83,0,0,1-2.46,1.94,8.57,8.57,0,0,1-3.5.69A6.31,6.31,0,0,1,32.24,75a5.8,5.8,0,0,1-2.08-1.66,5.41,5.41,0,0,1-1-1.71,6.45,6.45,0,0,1-.31-2,7,7,0,0,1,1.38-4.37,6.9,6.9,0,0,1,5.84-2.57,7.82,7.82,0,0,1,2.56.37,4.9,4.9,0,0,1,1.88,1.21,5.63,5.63,0,0,1,1.26,2,6.91,6.91,0,0,1,.43,2.48,7.17,7.17,0,0,1-.37,2.22m5.51.9a3.56,3.56,0,0,0,2.51.81,4.92,4.92,0,0,0,1.3-.17,6.3,6.3,0,0,0,1.25-.54l-.5,3.08a3.69,3.69,0,0,1-1.17.4,10.16,10.16,0,0,1-1.77.13,6.75,6.75,0,0,1-2.44-.41,5.1,5.1,0,0,1-1.86-1.18A5,5,0,0,1,43.53,72a6.72,6.72,0,0,1-.41-2.44,7.63,7.63,0,0,1,.52-2.82,6.8,6.8,0,0,1,1.51-2.32,6.32,6.32,0,0,1,4.7-1.85,7.2,7.2,0,0,1,3.91,1l-.51,3.34a4.28,4.28,0,0,0-1.48-1,4.94,4.94,0,0,0-1.87-.35,3.26,3.26,0,0,0-1.37.28,3,3,0,0,0-1.07.8,3.53,3.53,0,0,0-.7,1.23,4.72,4.72,0,0,0-.25,1.58,3,3,0,0,0,.87,2.29m13.14,3.38L58.77,72.3q-.23-.36-.36-.6l-.26-.47-.25-.46c-.08-.16-.18-.35-.29-.58h-.07v0c0,.19,0,.36,0,.52s0,.35-.08.54-.06.42-.09.69l-.52,3.15H53.5l1.94-12.22h3.33l-.41,2.48c0,.31-.09.58-.13.79s-.07.42-.12.61-.09.39-.14.59a.87.87,0,0,0,0,.19l.06,0c.18-.23.34-.43.46-.6s.25-.33.37-.48l.42-.47c.14-.17.33-.36.55-.6l2.34-2.53h4.19l-6,6.09,4.13,6.13Zm9.88-7.67,1,.52.56.29a3.15,3.15,0,0,1,1.14,1.18,3.31,3.31,0,0,1,.42,1.64,5.16,5.16,0,0,1-.25,1.72,3.48,3.48,0,0,1-.83,1.29,4.41,4.41,0,0,1-1.56,1,5.13,5.13,0,0,1-2,.38,9.21,9.21,0,0,1-1,0,4.92,4.92,0,0,1-.81-.12,6.44,6.44,0,0,1-.74-.25,6.12,6.12,0,0,1-.74-.4,4.38,4.38,0,0,1-.78-.54,6.41,6.41,0,0,1-.67-.69L65.9,70.9a4.69,4.69,0,0,0,1.36,1.24,3.05,3.05,0,0,0,1.52.4,1.25,1.25,0,0,0,.9-.31,1,1,0,0,0,.33-.78,1,1,0,0,0-.31-.68,5,5,0,0,0-1.09-.71,11,11,0,0,1-1.46-.87,3,3,0,0,1-.79-.82A2.84,2.84,0,0,1,66,67.6a2.71,2.71,0,0,1-.13-.83,3.94,3.94,0,0,1,1-2.82,4.06,4.06,0,0,1,1.45-1,4.26,4.26,0,0,1,1.74-.39,5.91,5.91,0,0,1,2.17.37,5.8,5.8,0,0,1,1.83,1.16l-1.48,2.4a4.65,4.65,0,0,0-1.13-.88,2.54,2.54,0,0,0-1.13-.24,1.14,1.14,0,0,0-.77.26.89.89,0,0,0-.28.68c0,.43.36.82,1.09,1.17" transform="translate(-11.73 -13.57)"/><path d="M60.09,55.93A36.77,36.77,0,0,1,59.82,52c0-.84.11-4.18.11-6.88,0-2.28-.49-6.32-.49-8.52a28.93,28.93,0,0,0,0-3.75c1-.68,2-1.12,4.88-2.88.94-.57,2.74-1.53,2.74-2.69,0-.51-.14-.85-.87-1.45a2.52,2.52,0,0,0-1.68-.53c-1.48,0-2.15,1.49-3.39,2.25-1.89,1.16-2.9,1.73-3.29,1.94A3.81,3.81,0,0,0,56,29.05c-1.08,0-2.34.49-2.34,1.89,0,.65.2,1.35-.66,1.8-.48.3-2.84,1.65-5.35,3.16-2.11,1.28-3.1,1.18-4,1.71a1.88,1.88,0,0,0-1,1.66A2.56,2.56,0,0,0,43,40.48a2.33,2.33,0,0,0,2,1.12c1.52,0,2.78-1.33,5.12-3,1.45-1,2.79-2.12,3.58-2.12s1.18.53,1.18,2.7c0,7.27-.44,8.42-.44,13.46,0,.91,0,2.58.07,3.28H50.6V44l-7.41,6.25L35.77,44v11.9h-24V13.57h23.4l8.06,8.48,8.05-8.48H74.77V31.68a56.73,56.73,0,0,0-4.55,9c-.5,1.3-.73,2.24-1.39,2.24S68,42.23,68,41.58c-.14-1.39-.46-4-.6-4.95-.28-1.85-.65-3.81-2.72-3.81A2.92,2.92,0,0,0,61.51,36a22.84,22.84,0,0,0,1.78,6.52c.45,1.17,2.8,7.35,3.14,8.24a2.68,2.68,0,0,0,2.84,2.09c1.72,0,2.31-.63,3-3,.6-2.06,1.63-5.41,2.48-7.52h0v13.7ZM80.27,32.42V55.93H76.41V38.73a45.46,45.46,0,0,1,3.86-6.31m-3.86-3.13V13.57l3.86,2.32V24.5a48.45,48.45,0,0,0-3.86,4.79M45.32,17.43l-2.13,2.24L37.42,13.6l7.32,3.21Zm.26,33h2.66l.72-.6V47.56Zm-8.17,5.52h3.18V50.24l-3.18-2.68Z" transform="translate(-11.73 -13.57)"/></g></g></g></svg>