<svg xmlns="http://www.w3.org/2000/svg" xmlns:xlink="http://www.w3.org/1999/xlink" viewBox="0 0 68.54 66.92"><defs><style>.cls-1{fill:none;}.cls-2{clip-path:url(#clip-path);}.cls-3{fill:#fff;}</style><clipPath id="clip-path" transform="translate(-11.73 -13.57)"><rect class="cls-1" width="92" height="94"/></clipPath></defs><title>mtv-rocks-white</title><g id="Слой_2" data-name="Слой 2"><g id="Слой_1-2" data-name="Слой 1"><g id="Layer_1" data-name="Layer 1"><g class="cls-2"><path class="cls-3" d="M35.91,65.52a3.16,3.16,0,0,0-1.39.3,3.38,3.38,0,0,0-1.1.81,3.84,3.84,0,0,0-.73,1.25,4.19,4.19,0,0,0-.27,1.57,2.63,2.63,0,0,0,1.65,2.69,3.08,3.08,0,0,0,1.23.25,3.5,3.5,0,0,0,1.39-.29,3.2,3.2,0,0,0,1.08-.82A3.75,3.75,0,0,0,38.48,70a4.71,4.71,0,0,0,.25-1.58A3,3,0,0,0,38,66.29a2.74,2.74,0,0,0-2.08-.77" transform="translate(-11.73 -13.57)"/><path class="cls-3" d="M23.75,65.73H22.7l-.27,1.81a1.41,1.41,0,0,1-.06.31l-.09.28h1.19c1,0,1.49-.43,1.49-1.3,0-.71-.4-1.06-1.21-1.06" transform="translate(-11.73 -13.57)"/><path class="cls-3" d="M11.73,80.49H80.27V57.57H11.73Zm13.64-9.92a1.27,1.27,0,0,1,.13.19,1.37,1.37,0,0,1,.13.2c.06.09.11.18.16.27l2.29,3.91H24.27L23,72.55c-.14-.28-.25-.51-.34-.71s-.18-.38-.25-.55-.14-.36-.21-.55L22,70h-.09v.75a2.36,2.36,0,0,1-.05.6l-.09.6c0,.2-.07.46-.11.77l-.39,2.38H17.9l2-12.22H24c3,0,4.45,1.21,4.46,3.63a3.73,3.73,0,0,1-.85,2.54,3.85,3.85,0,0,1-2.4,1.24l.15.24m16.5.29a6.82,6.82,0,0,1-1,2,5.85,5.85,0,0,1-2.46,1.94,8.61,8.61,0,0,1-3.5.69A6.35,6.35,0,0,1,32.24,75a5.78,5.78,0,0,1-2.08-1.66,5.34,5.34,0,0,1-1-1.71,6.48,6.48,0,0,1-.31-2,7,7,0,0,1,1.38-4.37,6.89,6.89,0,0,1,5.84-2.57,7.94,7.94,0,0,1,2.56.37,5,5,0,0,1,1.88,1.21,5.52,5.52,0,0,1,1.26,2,7,7,0,0,1,.43,2.48A7.33,7.33,0,0,1,41.83,71m5.51.9a3.57,3.57,0,0,0,2.51.81,5.15,5.15,0,0,0,1.3-.17A6.56,6.56,0,0,0,52.4,72l-.5,3.08a3.69,3.69,0,0,1-1.17.4,10.55,10.55,0,0,1-1.77.13,6.77,6.77,0,0,1-2.44-.41A5.13,5.13,0,0,1,44.66,74a5,5,0,0,1-1.13-2,6.56,6.56,0,0,1-.41-2.44,7.58,7.58,0,0,1,.52-2.82,6.74,6.74,0,0,1,1.51-2.32,6.34,6.34,0,0,1,4.7-1.85,7.16,7.16,0,0,1,3.91,1l-.51,3.34a4.4,4.4,0,0,0-1.48-1,4.78,4.78,0,0,0-1.87-.35,3.23,3.23,0,0,0-1.37.28,3,3,0,0,0-1.07.8,3.67,3.67,0,0,0-.7,1.23,4.71,4.71,0,0,0-.25,1.58,3,3,0,0,0,.87,2.29m13.14,3.38L58.77,72.3q-.23-.36-.36-.6l-.26-.47-.25-.46c-.08-.16-.18-.35-.29-.58h-.07v.52a1.34,1.34,0,0,1-.08.54,2.69,2.69,0,0,0-.09.69l-.52,3.15H53.5l1.94-12.22h3.33l-.41,2.48a3.82,3.82,0,0,1-.13.79c0,.21-.07.42-.12.61s-.09.39-.14.59a.61.61,0,0,0,0,.19H58c.18-.23.34-.43.46-.6s.25-.33.37-.48l.42-.47c.14-.17.33-.36.55-.6l2.34-2.53h4.19l-6,6.09,4.13,6.13Zm9.88-7.67,1,.52.56.29a3.15,3.15,0,0,1,1.14,1.18,3.36,3.36,0,0,1,.42,1.64,5.31,5.31,0,0,1-.25,1.72,3.45,3.45,0,0,1-.83,1.29,4.44,4.44,0,0,1-1.56,1,5,5,0,0,1-2,.38,8.34,8.34,0,0,1-1,0,5.66,5.66,0,0,1-.81-.12,6.44,6.44,0,0,1-.74-.25,6.58,6.58,0,0,1-.74-.4,4.17,4.17,0,0,1-.78-.54,6.25,6.25,0,0,1-.67-.69L65.9,70.9a4.73,4.73,0,0,0,1.36,1.24,3.11,3.11,0,0,0,1.52.4,1.24,1.24,0,0,0,.9-.31,1,1,0,0,0,.33-.78,1,1,0,0,0-.31-.68,5.24,5.24,0,0,0-1.09-.71,10.23,10.23,0,0,1-1.46-.87,3.08,3.08,0,0,1-.79-.82A2.84,2.84,0,0,1,66,67.6a2.62,2.62,0,0,1-.13-.83A3.87,3.87,0,0,1,68.32,63a4.37,4.37,0,0,1,1.74-.39,5.93,5.93,0,0,1,2.17.37,5.75,5.75,0,0,1,1.83,1.16l-1.48,2.4a4.59,4.59,0,0,0-1.13-.88,2.45,2.45,0,0,0-1.13-.24,1.14,1.14,0,0,0-.77.26.88.88,0,0,0-.28.68c0,.43.36.82,1.09,1.17" transform="translate(-11.73 -13.57)"/><path class="cls-3" d="M60.09,55.93A36.88,36.88,0,0,1,59.82,52c0-.84.11-4.18.11-6.88,0-2.28-.49-6.32-.49-8.52a29.33,29.33,0,0,0,0-3.75c1-.68,2-1.12,4.88-2.88.94-.57,2.74-1.53,2.74-2.69,0-.51-.14-.85-.87-1.45a2.54,2.54,0,0,0-1.68-.53c-1.48,0-2.15,1.49-3.39,2.25-1.89,1.16-2.9,1.73-3.29,1.94A3.75,3.75,0,0,0,56,29.05c-1.08,0-2.34.49-2.34,1.89,0,.65.2,1.35-.66,1.8-.48.3-2.84,1.65-5.35,3.16-2.11,1.28-3.1,1.18-4,1.71a1.89,1.89,0,0,0-1,1.66A2.46,2.46,0,0,0,43,40.48a2.32,2.32,0,0,0,2,1.12c1.52,0,2.78-1.33,5.12-3,1.45-1,2.79-2.12,3.58-2.12s1.18.53,1.18,2.7c0,7.27-.44,8.42-.44,13.46,0,.91,0,2.58.07,3.28H50.6V44l-7.41,6.25L35.77,44V55.9h-24V13.57h23.4l8.06,8.48,8.05-8.48H74.77V31.68a57.11,57.11,0,0,0-4.55,9c-.5,1.3-.73,2.24-1.39,2.24S68,42.23,68,41.58c-.14-1.39-.46-4-.6-4.95-.28-1.85-.65-3.81-2.72-3.81a2.91,2.91,0,0,0-3.17,2.65,2.35,2.35,0,0,0,0,.53,23,23,0,0,0,1.78,6.52c.45,1.17,2.8,7.35,3.14,8.24a2.68,2.68,0,0,0,2.84,2.09c1.72,0,2.31-.63,3-3,.6-2.06,1.63-5.41,2.48-7.52h0V56ZM80.27,32.42V55.93H76.41V38.73a44.76,44.76,0,0,1,3.86-6.31m-3.86-3.13V13.57l3.86,2.32V24.5a46.74,46.74,0,0,0-3.86,4.79M45.32,17.43l-2.13,2.24L37.42,13.6l7.32,3.21Zm.26,33h2.66l.72-.6V47.56ZM37.41,56h3.18V50.24l-3.18-2.68Z" transform="translate(-11.73 -13.57)"/></g></g></g></g></svg>