<svg xmlns="http://www.w3.org/2000/svg" xmlns:xlink="http://www.w3.org/1999/xlink" viewBox="0 0 68.55 66.92"><defs><style>.cls-1{fill:none;}.cls-2{clip-path:url(#clip-path);}</style><clipPath id="clip-path" transform="translate(-11.73 -13.54)"><rect class="cls-1" width="92" height="94"/></clipPath></defs><title>mtv-live-black</title><g id="Слой_2" data-name="Слой 2"><g id="Layer_1" data-name="Layer 1"><g class="cls-2"><path d="M60.09,55.9A36.77,36.77,0,0,1,59.82,52c0-.83.11-4.18.11-6.88,0-2.28-.49-6.32-.49-8.52a28.93,28.93,0,0,0,0-3.75c1-.68,2-1.12,4.88-2.88.94-.57,2.74-1.53,2.74-2.69,0-.51-.14-.85-.87-1.45a2.52,2.52,0,0,0-1.68-.53c-1.48,0-2.15,1.49-3.39,2.25-1.89,1.16-2.9,1.73-3.29,1.94A3.81,3.81,0,0,0,56,29c-1.08,0-2.34.49-2.34,1.89,0,.65.2,1.35-.66,1.8-.48.3-2.84,1.65-5.35,3.16-2.11,1.28-3.1,1.18-4,1.71a1.88,1.88,0,0,0-1,1.66A2.56,2.56,0,0,0,43,40.45a2.31,2.31,0,0,0,2,1.12c1.52,0,2.78-1.33,5.12-3,1.46-1,2.79-2.12,3.58-2.12s1.18.53,1.18,2.7c0,7.27-.44,8.42-.44,13.46,0,.91,0,2.59.07,3.28H50.6V44l-7.41,6.25L35.77,44V55.9h-24V13.54h23.4L43.19,22l8.05-8.48H74.77V31.65a56.73,56.73,0,0,0-4.55,9c-.5,1.3-.73,2.24-1.39,2.24S68,42.2,68,41.55c-.14-1.39-.46-4-.6-4.95-.28-1.85-.65-3.81-2.72-3.81a2.92,2.92,0,0,0-3.14,3.13,22.75,22.75,0,0,0,1.78,6.52c.45,1.17,2.8,7.35,3.14,8.25a2.68,2.68,0,0,0,2.84,2.08c1.72,0,2.31-.63,3-3.05.61-2.06,1.63-5.41,2.48-7.52h0V55.9ZM80.27,32.39V55.9H76.41V38.7a45.46,45.46,0,0,1,3.86-6.31m-3.86-3.13V13.54l3.86,2.32v8.61a48.45,48.45,0,0,0-3.86,4.79M45.32,17.4l-2.13,2.24-5.77-6.07,7.32,3.22Zm.26,33h2.66l.73-.61V47.53ZM37.41,55.9h3.18V50.21l-3.18-2.68Z" transform="translate(-11.73 -13.54)"/><path d="M71.17,65.65h-.92l-1,6.12-.05.31a2.19,2.19,0,0,1-.08.27l.24,0h.72a5.39,5.39,0,0,0,1.53-.19,2.41,2.41,0,0,0,1-.6,3.73,3.73,0,0,0,.83-1.39,5.55,5.55,0,0,0,.31-1.91,2.6,2.6,0,0,0-.67-1.92,2.64,2.64,0,0,0-1.93-.66" transform="translate(-11.73 -13.54)"/><path d="M11.73,80.46H80.27V57.54H11.73Zm10.58-5.34H15.39l1.94-12.21h3.31l-1.41,8.78c0,.15,0,.25-.05.31s0,.16-.08.28a1.45,1.45,0,0,1,.3,0h3.36Zm4.39,0H23.41l1.94-12.21h3.31Zm6,0L29.42,62.91h3.52L34,68.1c.08.4.15.72.2,1s.09.52.13.75.09.49.12.74.07.56.11.92l.1,0c.11-.34.2-.63.29-.88s.17-.48.25-.7l.29-.72q.15-.37.39-.9l2.38-5.4H42L35.57,75.12Zm16.83-9.41H45.78L45.54,67l-.06.32a2.73,2.73,0,0,1-.07.29,1.46,1.46,0,0,1,.29,0h3.5l-.48,2.73H45l-.24,1.43-.06.31a1.8,1.8,0,0,1-.07.27l.29,0h3.46L48,75.12h-7l1.94-12.21H50Zm13.73,9.41h-3.3l.66-4.23c0-.15,0-.25.06-.31l.09-.28a1.52,1.52,0,0,1-.31,0h-4l-.77,4.78h-3.3l1.94-12.21h3.32l-.64,4a1.81,1.81,0,0,1-.08.32l-.07.27.29,0h4l.73-4.57h3.3Zm13.55-4.74a7.51,7.51,0,0,1-.73,1.74,6.2,6.2,0,0,1-1.13,1.41,6.12,6.12,0,0,1-1.48,1,5.39,5.39,0,0,1-1.39.45,9,9,0,0,1-1.64.14h-5l1.94-12.21h4.28a6.71,6.71,0,0,1,2.46.4,4.39,4.39,0,0,1,1.68,1.14,4.56,4.56,0,0,1,1,1.74A7.58,7.58,0,0,1,77,68.43a7.34,7.34,0,0,1-.25,1.95" transform="translate(-11.73 -13.54)"/></g></g></g></svg>