<svg xmlns="http://www.w3.org/2000/svg" xmlns:xlink="http://www.w3.org/1999/xlink" viewBox="0 0 68.54 66.94"><defs><style>.cls-1{fill:none;}.cls-2{clip-path:url(#clip-path);}.cls-3{fill:#fff;}</style><clipPath id="clip-path" transform="translate(-11.73 -13.52)"><rect class="cls-1" width="92" height="94"/></clipPath></defs><title>mtv-live-white</title><g id="Слой_2" data-name="Слой 2"><g id="Слой_1-2" data-name="Слой 1"><g id="Layer_1" data-name="Layer 1"><g class="cls-2"><path class="cls-3" d="M60.09,55.9a36.32,36.32,0,0,1-.27-3.9c0-.83.11-4.18.11-6.88,0-2.28-.49-6.32-.49-8.52a29.33,29.33,0,0,0,0-3.75c1-.68,2-1.12,4.88-2.88.94-.57,2.74-1.53,2.74-2.69,0-.51-.14-.85-.87-1.45a2.54,2.54,0,0,0-1.68-.53c-1.48,0-2.15,1.49-3.39,2.25-1.89,1.16-2.9,1.73-3.29,1.94A3.91,3.91,0,0,0,56,29c-1.08,0-2.34.49-2.34,1.89,0,.65.2,1.35-.66,1.8-.48.3-2.84,1.65-5.35,3.16-2.11,1.28-3.1,1.18-4,1.71a1.89,1.89,0,0,0-1,1.66A2.54,2.54,0,0,0,43,40.45a2.3,2.3,0,0,0,2,1.12c1.52,0,2.78-1.33,5.12-3,1.46-1,2.79-2.12,3.58-2.12s1.18.53,1.18,2.7c0,7.27-.44,8.42-.44,13.46,0,.91,0,2.59.07,3.28H50.6V44l-7.41,6.25L35.77,44V55.9h-24V13.54h23.4l8,8.46,8.05-8.48H74.77V31.65a57.11,57.11,0,0,0-4.55,9c-.5,1.3-.73,2.24-1.39,2.24S68,42.2,68,41.55c-.14-1.39-.46-4-.6-4.95-.28-1.85-.65-3.81-2.72-3.81a2.92,2.92,0,0,0-3.14,2.68,3.38,3.38,0,0,0,0,.45,23,23,0,0,0,1.78,6.52c.45,1.17,2.8,7.35,3.14,8.25a2.68,2.68,0,0,0,2.84,2.08c1.72,0,2.31-.63,3-3.05.61-2.06,1.63-5.41,2.48-7.52h0V55.9ZM80.27,32.39V55.9H76.41V38.7a44.76,44.76,0,0,1,3.86-6.31m-3.86-3.13V13.54l3.86,2.32v8.61a46.74,46.74,0,0,0-3.86,4.79M45.32,17.4l-2.13,2.24-5.77-6.07,7.32,3.22Zm.26,33h2.66l.73-.61V47.53Zm-8.17,5.5h3.18V50.21l-3.18-2.68Z" transform="translate(-11.73 -13.52)"/><path class="cls-3" d="M71.17,65.65h-.92l-1,6.12,0,.31a2.76,2.76,0,0,1-.08.27h1a5.26,5.26,0,0,0,1.53-.19,2.44,2.44,0,0,0,1-.6,3.66,3.66,0,0,0,.83-1.39,5.62,5.62,0,0,0,.31-1.91,2.33,2.33,0,0,0-2.6-2.58" transform="translate(-11.73 -13.52)"/><path class="cls-3" d="M11.73,80.46H80.27V57.54H11.73Zm10.58-5.34H15.39l1.94-12.21h3.31l-1.41,8.78c0,.15,0,.25-.05.31s0,.16-.08.28a1.5,1.5,0,0,1,.3,0h3.36Zm4.39,0H23.41l1.94-12.21h3.31Zm6,0L29.42,62.91h3.52L34,68.1c.08.4.15.72.2,1l.13.75c0,.23.09.49.12.74s.07.56.11.92h.1c.11-.34.2-.63.29-.88l.25-.7.29-.72q.15-.37.39-.9l2.38-5.4H42L35.57,75.12Zm16.83-9.41H45.78L45.54,67l-.06.32c0,.1,0,.19-.07.29a1.41,1.41,0,0,1,.29,0h3.5l-.48,2.73H45l-.24,1.43-.06.31a2.68,2.68,0,0,1-.07.27h3.75L48,75.12H41l1.94-12.21H50Zm13.73,9.41H60l.66-4.23c0-.15,0-.25.06-.31l.09-.28a1.61,1.61,0,0,1-.31,0h-4l-.77,4.78h-3.3l1.94-12.21h3.32l-.64,4a1.67,1.67,0,0,1-.08.32l-.07.27h4.29l.73-4.57h3.3Zm13.55-4.74a7.38,7.38,0,0,1-.73,1.74A6.43,6.43,0,0,1,75,73.53a6.22,6.22,0,0,1-1.48,1,5.65,5.65,0,0,1-1.39.45,9,9,0,0,1-1.64.14h-5l1.94-12.21h4.28a6.65,6.65,0,0,1,2.46.4,4.3,4.3,0,0,1,1.68,1.14,4.53,4.53,0,0,1,1,1.74,7.35,7.35,0,0,1,.2,2.24,7.56,7.56,0,0,1-.25,1.95" transform="translate(-11.73 -13.52)"/></g></g></g></g></svg>