<svg xmlns="http://www.w3.org/2000/svg" viewBox="0 0 1472 896"><defs><style>.cls-1{fill:#fff;}</style></defs><title>mtv-white</title><g id="Слой_2" data-name="Слой 2"><g id="Layer_1" data-name="Layer 1"><g id="g3"><path id="path5" class="cls-1" d="M.19.44Q251.85.35,503.43.51q85.92,89.67,172.48,178.7C733,119.3,791,60.16,848.2.44q253-.09,506,0,.11,184.11.07,368.21c-.39,5.59,1.23,11.81-1.55,17-41.85,67.28-78.14,138-105.39,212.24-3.49,8-6.71,17.22-14.59,22.11-6.72,2.8-16.6,1.59-20.21-5.4-4.78-8.83-4.53-19.12-5.88-28.78-4.39-37.41-8.4-75-14.66-112.25-3.75-19-8-39.51-22.41-53.81-13.49-12.95-34.16-14.23-51.72-10-16.15,3.49-31.32,13-39.46,27.38-10.59,17.85-10.46,39.51-6.65,59.27,6.65,34.62,18.53,68,30.67,101.07,24,62.38,48.37,124.77,72.46,187.08,6,16,15.5,32.4,32.09,39.58,14.27,5.91,30.42,5.85,45.53,3.69,13.11-2,24.41-10.55,30.93-21.67,12.14-20.32,16.85-43.77,24-66.06,14.34-45.49,28.09-91.36,46.56-135.44.39,97.07,0,194.2.13,291.27q-157.89.09-315.9.06c-4.27-36.08-7.37-72.48-5.43-108.76.45-35.45,1.94-70.7,1.55-106.15,1.1-51.39-5.68-102.34-8.65-153.61-3.36-39.77,1-79.79-2.58-119.56,29.89-18.42,61.08-34.62,91.18-52.72,20.21-12.33,41.91-22.94,59.21-39.33,9.56-9.14,17-23.12,11.24-36.21-12.14-24.26-44.11-37.41-69.87-26.74-21.12,9.53-33.65,30.3-52.89,42.37-24,14.61-48.24,29-72.91,42.63-18.66-9.59-41.07-12.77-61.21-6.54-11,3.49-21.12,10.86-25.51,21.59-5.17,11.82-.84,24.78-3.17,36.91-1.48,7.5-7.42,12.84-13.88,16.39-27.25,15.88-54.76,31.39-82,47.39-28,16.08-55.08,34.56-86.53,43.52-19.11,5.53-41.52,11.88-50.75,31.06-8.85,18.68,1.61,40.15,16.4,52.6,12.72,11.95,32.16,14.49,48.43,8.83,21.25-6.86,38.75-21.34,56.37-34.3,22-16.52,44.43-32.27,66.91-48.09,12.14-8.19,24.34-17.15,38.61-21.53,9.69-3.56,21.89.57,26,10.22,9.62,21.22,6.59,45.23,7,67.85.58,75.47-6.46,150.68-9.11,226.09-.19,35.39-.51,70.71,1.17,106.09-27.9-.13-55.73.25-83.63-.25q.39-125.22.07-250.49-79.44,65.65-158.73,131.5c-53-43.71-105.84-87.67-158.73-131.37q-.2,125.21,0,250.55-258.42.18-516.86,0Q.29,448.16.19.44Z"/><path id="path7" class="cls-1" d="M550.77.57c51.07,21.79,101.83,44,152.85,65.88,7.74,3.18,12.72,10,18.53,15.63-15.18,16.39-31.19,32-46.37,48.47C634.2,87.16,592,44.34,550.77.57Z"/><path id="path9" class="cls-1" d="M1388.25,0c28,16.52,56,32.91,83.75,49.61-.19,60.8-.06,121.66-.06,182.52a1171.15,1171.15,0,0,0-83.57,101.51c-.32-111.17-.06-222.4-.12-333.64Z"/><path id="path11" class="cls-1" d="M1394.57,519.33a984.66,984.66,0,0,1,77.24-121q.2,248.8.06,497.54-41.85.1-83.69,0-.09-178.47-.06-357.08c-.65-7,3.22-13.34,6.45-19.44Z"/><path id="path13" class="cls-1" d="M551,717.53c23.12,18.87,45.85,38.37,69.23,56.92.45,40.47.13,80.94.19,121.47H551q0-89.19,0-178.39Z"/><path id="path15" class="cls-1" d="M726,779.22q36.9-30.69,73.94-61.24c-.2,16.45.26,32.91-.33,49.23-5.16,4-10.2,8-15.17,12.14-19.57.06-38.94.25-58.44-.13Z"/></g></g></g></svg>