<svg xmlns="http://www.w3.org/2000/svg" viewBox="0 0 499.7 132.6"><defs><style>.cls-1{fill:#221e1f;}</style></defs><title>nickjr-black</title><g id="Слой_2" data-name="Слой 2"><g id="Layer_1" data-name="Layer 1"><path class="cls-1" d="M455.72,96.08a16.78,16.78,0,1,0,16.78,16.77A16.77,16.77,0,0,0,455.72,96.08Zm-88.08-52.9c-9.36,0-17,7.57-17,19.88v41.18c0,5.59-3.22,6.38-4.28.33-3-17.32-23.55-15.49-29.4-5.54-6.33,10.73-.06,20.88,9.53,27.06,5.52,3.56,14.37,5.8,22.83,5.8h.93c24.19,0,34.24-13.36,34.24-34l.05-37.74A16.93,16.93,0,0,0,367.64,43.18ZM471.1,63.64A16.92,16.92,0,0,0,457.54,43.9c-11.3-2.11-19.26,1.43-28.5,8.56l0,0c-.65.5-2.39,2-3,2.53a16.94,16.94,0,0,0-33.09,5.11V128.7H426.8V83.07c0-3.29,2.06-8.84,5.88-10.33s7.45.23,11.71,1.83C458.47,79.93,469.41,72.83,471.1,63.64ZM367.64,37.85a16.78,16.78,0,1,0-16.78-16.77A16.77,16.77,0,0,0,367.64,37.85Z"/><path class="cls-1" d="M44.69,43.17A44.67,44.67,0,0,0,0,87.86v40.82H33.93V88.56a23.66,23.66,0,0,1,3.15-12.31c2-3.19,4.59-5.08,7.61-5.1s5.61,1.91,7.61,5.1a23.66,23.66,0,0,1,3.15,12.31v40.12H89.38V87.86A44.71,44.71,0,0,0,44.69,43.17Zm81.19-11a18.86,18.86,0,1,0-26.67,0l4.17,4.17c7,7,7.45,8.79.83,15.4l-3.78,3.79a17.08,17.08,0,0,0-5,12.13v61H129.7v-61a17.13,17.13,0,0,0-5-12.13l-3.79-3.79c-6.6-6.6-6.11-8.45.84-15.41ZM179,67.81c3,0,5.61,2.2,7.62,5.88a28.22,28.22,0,0,1,2.91,10h34A44.71,44.71,0,1,0,208,121.93a44.21,44.21,0,0,0,15.53-29.82h-34a28.11,28.11,0,0,1-2.91,10c-2,3.69-4.59,5.88-7.62,5.88s-5.6-2.19-7.61-5.88a30.59,30.59,0,0,1-3.15-14.21,30.66,30.66,0,0,1,3.15-14.22C173.44,70,176,67.83,179,67.81Zm133.35,51.85L293.81,91.57l12.86-23.36A17,17,0,0,0,277.44,51L262.08,78.44V60.13a17,17,0,0,0-33.93,0v68.55h33.93V101.84L280,128.67h27.39a5.89,5.89,0,0,0,5-9Z"/><path class="cls-1" d="M480,45.77h-3.45V44h9v1.77h-3.44v9.61H480Zm8-2h.34L493.87,50l5.48-6.16h.35V55.38h-2.06V48.22l-3.58,4.25h-.38l-3.6-4.25v7.16H488Z"/></g></g></svg>