<svg xmlns="http://www.w3.org/2000/svg" viewBox="0 0 300 53.19"><title>nicktoons-black</title><g id="Слой_2" data-name="Слой 2"><g id="svg9362"><g id="layer1"><g id="g9333"><path id="path8634" d="M152.8,17.15H131.66a6.74,6.74,0,1,0,0,13.47h3.82V51.18H149l0-20.56h3.83a6.74,6.74,0,0,0,0-13.47"/><path id="path8638" d="M290.22,32.35c-5.08-2.25-7.75-3.1-7.84-4.93-.07-1.64,1.69-1.93,2.31-1.93,3.58,0,3.85,3.62,3.85,4.45h10.91c0-6.2-5.59-12.59-15.14-12.59-8.21,0-13.77,5.6-13.77,10.89,0,2,.91,6,9.78,10,5.07,2.25,7.75,3.09,7.84,4.92.07,1.64-1.69,2.1-2.31,2.1-3.58,0-3.85-3.78-3.85-4.61H271.09c0,6.2,5.59,12.58,15.14,12.58,8.21,0,13.77-5.59,13.77-10.89,0-2-.91-6-9.78-9.95"/><path id="path8642" d="M74.15,40.57c-.8,1.46-1.82,2.33-3,2.34s-2.23-.88-3-2.34a12.17,12.17,0,0,1-1.25-5.65,12.12,12.12,0,0,1,1.25-5.64c.8-1.47,1.83-2.33,3-2.34s2.22.87,3,2.34a11.16,11.16,0,0,1,1.16,4H88.8A17.75,17.75,0,1,0,58.57,47.48a0,0,0,0,1,0,0,17.76,17.76,0,0,0,25.11,0,0,0,0,0,1,0,0A17.79,17.79,0,0,0,88.8,36.59H75.31a11.27,11.27,0,0,1-1.16,4"/><path id="path8646" d="M17.75,17.15A17.75,17.75,0,0,0,0,34.9V51.21H13.48v-16a9.4,9.4,0,0,1,1.25-4.89,3.66,3.66,0,0,1,3-2,3.67,3.67,0,0,1,3,2A9.4,9.4,0,0,1,22,35.18v16H35.5V34.9A17.74,17.74,0,0,0,17.75,17.15"/><path id="path8650" d="M121.82,27.1a6.74,6.74,0,1,0-11.6-6.85l-6.11,10.91V23.89a6.74,6.74,0,1,0-13.47,0V51.21h13.47V40.46l7.14,11h11.13c2,0,2.89-2,1.27-4.4l-6.94-10.65,5.11-9.28Z"/><path id="path8654" d="M50,12.79a7.5,7.5,0,1,0-10.59,0l1.65,1.65c2.76,2.77,3,3.5.33,6.12l-1.5,1.51a6.75,6.75,0,0,0-2,4.81V51.21H51.52V26.88a6.78,6.78,0,0,0-2-4.81L48,20.57c-2.63-2.63-2.43-3.36.33-6.13L50,12.79Z"/><path id="path8658" d="M263.11,22.4A17.79,17.79,0,0,0,232.75,35V51.22h13.5v-16a9.41,9.41,0,0,1,1.26-4.9,3.28,3.28,0,0,1,6.06,0,9.41,9.41,0,0,1,1.25,4.9v16h13.5V35a17.74,17.74,0,0,0-5.21-12.57"/><path id="path8662" d="M216.33,40.65c-.8,1.46-1.83,2.33-3,2.34s-2.23-.88-3-2.34A12.21,12.21,0,0,1,209,35a12.21,12.21,0,0,1,1.25-5.66c.8-1.46,1.82-2.33,3-2.34s2.23.88,3,2.35A12.14,12.14,0,0,1,217.58,35a12.21,12.21,0,0,1-1.25,5.66m9.54-18.24a17.78,17.78,0,0,0-25.14,25.15h0c.29.3,1,.93,1,1a17.78,17.78,0,0,0,23.06,0c.05,0,.76-.67,1.05-1a17.76,17.76,0,0,0,0-25.15"/><path id="path8666" d="M179.73,40.65c-.8,1.46-1.83,2.33-3,2.34s-2.23-.88-3-2.34A12.09,12.09,0,0,1,172.42,35a12.09,12.09,0,0,1,1.25-5.66c.8-1.46,1.82-2.33,3-2.34s2.23.88,3,2.35A12.14,12.14,0,0,1,181,35a12.21,12.21,0,0,1-1.25,5.66m9.54-18.24a17.78,17.78,0,0,0-25.15,25.15h0c.3.3,1,.93,1,1a17.78,17.78,0,0,0,23.06,0c.05,0,.76-.67,1.05-1a17.78,17.78,0,0,0,0-25.15"/></g></g></g></g></svg>