<svg xmlns="http://www.w3.org/2000/svg" viewBox="0 0 300 53.25"><defs><style>.cls-1{fill:#fff;}</style></defs><title>nicktoons-white</title><g id="Слой_2" data-name="Слой 2"><g id="Слой_1-2" data-name="Слой 1"><g id="svg9362"><g id="layer1"><g id="g9333"><path id="path8634" class="cls-1" d="M152.8,17.17H131.66a6.74,6.74,0,0,0-.52,13.47h4.34V51.2H149V30.64h3.83a6.74,6.74,0,0,0,0-13.47"/><path id="path8638" class="cls-1" d="M290.22,32.37c-5.08-2.25-7.75-3.1-7.84-4.93-.07-1.64,1.69-1.93,2.31-1.93,3.58,0,3.85,3.62,3.85,4.45h10.91c0-6.2-5.59-12.59-15.14-12.59-8.21,0-13.77,5.6-13.77,10.89,0,2,.91,6,9.78,10,5.07,2.25,7.75,3.09,7.84,4.92.07,1.64-1.69,2.1-2.31,2.1-3.58,0-3.85-3.78-3.85-4.61H271.09c0,6.2,5.59,12.58,15.14,12.58,8.21,0,13.77-5.59,13.77-10.89,0-2-.91-6-9.78-10"/><path id="path8642" class="cls-1" d="M74.15,40.59c-.8,1.46-1.82,2.33-3,2.34s-2.23-.88-3-2.34a12.25,12.25,0,0,1-1.25-5.65,12.11,12.11,0,0,1,1.25-5.64C69,27.83,70,27,71.15,27s2.22.87,3,2.34a11.23,11.23,0,0,1,1.16,4H88.8A17.75,17.75,0,1,0,58.57,47.5h0a17.76,17.76,0,0,0,25.11,0h0A17.76,17.76,0,0,0,88.8,36.61H75.31a11.17,11.17,0,0,1-1.16,4"/><path id="path8646" class="cls-1" d="M17.75,17.17A17.75,17.75,0,0,0,0,34.92H0V51.23H13.48v-16a9.43,9.43,0,0,1,1.25-4.89,3.67,3.67,0,0,1,3-2,3.69,3.69,0,0,1,3,2A9.35,9.35,0,0,1,22,35.2v16H35.5V34.92A17.74,17.74,0,0,0,17.77,17.17h0"/><path id="path8650" class="cls-1" d="M121.82,27.12a6.74,6.74,0,0,0-11.36-7.26l-.24.41-6.11,10.91V23.91a6.74,6.74,0,0,0-13.47-.52,4.51,4.51,0,0,0,0,.52V51.23h13.47V40.48l7.14,11h11.13c2,0,2.89-2,1.27-4.4l-6.94-10.65,5.11-9.28Z"/><path id="path8654" class="cls-1" d="M50,12.81a7.5,7.5,0,1,0-10.61,0h0l1.65,1.65c2.76,2.77,3,3.5.33,6.12l-1.5,1.51a6.79,6.79,0,0,0-2,4.81V51.23H51.52V26.9a6.79,6.79,0,0,0-2-4.81L48,20.59c-2.63-2.63-2.43-3.36.33-6.13Z"/><path id="path8658" class="cls-1" d="M263.11,22.42A17.79,17.79,0,0,0,232.75,35V51.24h13.5v-16a9.36,9.36,0,0,1,1.26-4.9,3.28,3.28,0,0,1,6.06,0,9.35,9.35,0,0,1,1.25,4.9v16h13.5V35a17.76,17.76,0,0,0-5.21-12.57"/><path id="path8662" class="cls-1" d="M216.33,40.67c-.8,1.46-1.83,2.33-3,2.34s-2.23-.88-3-2.34A12.2,12.2,0,0,1,209,35a12.32,12.32,0,0,1,1.25-5.66c.8-1.46,1.82-2.33,3-2.34s2.23.88,3,2.35A12.2,12.2,0,0,1,217.58,35a12.32,12.32,0,0,1-1.25,5.66m9.54-18.24a17.78,17.78,0,1,0-25.14,25.15h0c.29.3,1,.93,1,1a17.78,17.78,0,0,0,23.06,0,9.15,9.15,0,0,0,1.05-1,17.75,17.75,0,0,0,0-25.11l0,0"/><path id="path8666" class="cls-1" d="M179.73,40.67c-.8,1.46-1.83,2.33-3,2.34s-2.23-.88-3-2.34A12.06,12.06,0,0,1,172.42,35a12.07,12.07,0,0,1,1.25-5.66c.8-1.46,1.82-2.33,3-2.34s2.23.88,3,2.35A12.2,12.2,0,0,1,181,35a12.32,12.32,0,0,1-1.25,5.66m9.54-18.24a17.78,17.78,0,1,0-25.15,25.15h0a13,13,0,0,1,1,1,17.78,17.78,0,0,0,23.06,0,9.15,9.15,0,0,0,1.05-1,17.78,17.78,0,0,0,0-25.14h0"/></g></g></g></g></g></svg>