<svg xmlns="http://www.w3.org/2000/svg" width="88" height="26" viewBox="0 0 88 26"><g><g><g><g><path fill="#fff" d="M84.695 23.221a2.904 2.904 0 1 1 0 5.81 2.905 2.905 0 0 1 0-5.81m-15.218-9.136a2.925 2.925 0 0 1 2.925 2.925l-.008 6.517c0 3.571-1.736 5.879-5.914 5.879h-.16c-1.46 0-2.99-.388-3.941-1.003-1.658-1.066-2.738-2.82-1.646-4.673 1.01-1.718 4.551-2.033 5.076.957.184 1.045.74.908.74-.057v-7.111c.001-2.125 1.31-3.435 2.928-3.434m17.867 3.533c-.295 1.588-2.183 2.815-4.614 1.888-.736-.276-1.349-.573-2.021-.315-.662.257-1.016 1.216-1.016 1.784v7.878h-5.85V17.01a2.924 2.924 0 0 1 5.714-.882c.107-.088.407-.351.52-.437l.003-.002c1.596-1.232 2.97-1.844 4.92-1.479a2.924 2.924 0 0 1 2.344 3.408m-17.867-4.452a2.897 2.897 0 1 1 0-5.795 2.897 2.897 0 0 1 0 5.795"/></g><g><g><path fill="#fff" d="M8.259 16.338A7.69 7.69 0 0 0 6 21.79v7.04h5.858v-6.921c.003-.843.203-1.565.544-2.122.347-.552.792-.876 1.314-.88.523.004.968.328 1.314.88.341.557.543 1.28.544 2.122v6.921h5.86v-7.04c0-2.121-.87-4.066-2.262-5.45a7.704 7.704 0 0 0-5.457-2.258 7.712 7.712 0 0 0-5.456 2.257zm19.465-4.156a3.25 3.25 0 0 0 .951-2.3c0-.902-.364-1.715-.951-2.305a3.233 3.233 0 0 0-2.299-.952 3.248 3.248 0 0 0-3.247 3.256c0 .9.364 1.713.952 2.301l.716.72c1.198 1.201 1.284 1.52.145 2.66l-.652.655a2.957 2.957 0 0 0-.865 2.095v10.533h5.906V18.312c0-.817-.33-1.558-.865-2.095l-.654-.653c-1.137-1.14-1.052-1.46.145-2.662zm10.498 7.168c.252.481.429 1.063.504 1.73h5.856a7.704 7.704 0 0 0-2.222-4.731 7.701 7.701 0 0 0-10.902 0 7.704 7.704 0 0 0-2.256 5.455 7.712 7.712 0 0 0 7.707 7.719 7.698 7.698 0 0 0 4.995-1.843 7.63 7.63 0 0 0 2.678-5.15h-5.856c-.075.668-.252 1.25-.504 1.728-.347.637-.792 1.017-1.313 1.017-.523 0-.967-.38-1.313-1.017-.34-.644-.542-1.477-.542-2.454 0-.975.203-1.807.542-2.454.346-.635.792-1.014 1.313-1.015.521.001.966.38 1.313 1.015zm18.5 3.086l2.219-4.031a2.932 2.932 0 0 0-1.034-4.012 2.924 2.924 0 0 0-4.007 1.036l-2.65 4.74v-3.16a2.927 2.927 0 0 0-2.925-2.928 2.927 2.927 0 0 0-2.927 2.928v11.836h5.852v-4.634l3.089 4.633 4.722-.002a1.02 1.02 0 0 0 .866-1.553z"/></g></g><g><path fill="#fff" d="M88.886 16.193h.358v-1.66h.595v-.305H88.29v.306h.596zm1.377 0h.36v-1.235l.628.735h.065l.623-.735v1.235h.358v-1.996h-.06l-.954 1.065-.96-1.064h-.06z"/></g></g></g></g></svg>