<svg xmlns="http://www.w3.org/2000/svg" width="140" height="20" viewBox="0 0 140 20"><defs><clipPath id="ggvaa"><path d="M29.762 17.935H17.887V6.025h11.875z"/></clipPath><clipPath id="ggvab"><path d="M82.843 17.936H70.938V.25h11.905v17.686z"/></clipPath><clipPath id="ggvac"><path d="M0 17.936h138.865V.25H0z"/></clipPath></defs><g><g><g><g><g><path fill="#fff" d="M5.949 6.025a5.934 5.934 0 0 0-4.206 1.742A5.94 5.94 0 0 0 0 11.977v5.44h4.516v-5.35c.003-.65.159-1.205.42-1.635.268-.427.61-.677 1.013-.68.406.003.745.253 1.012.68.264.43.418.984.42 1.635v5.35h4.517v-5.44c0-1.636-.67-3.14-1.743-4.21a5.93 5.93 0 0 0-4.206-1.742"/></g></g><g><path fill="#fff" d="M114.049 6.025a5.945 5.945 0 0 0-4.207 1.742 5.955 5.955 0 0 0-1.742 4.21v5.44h4.519v-5.35c0-.65.157-1.205.417-1.635.265-.427.611-.677 1.013-.68.406.003.752.253 1.012.68.264.43.418.984.42 1.635v5.35h4.517v-5.44a5.94 5.94 0 0 0-1.743-4.21 5.923 5.923 0 0 0-4.206-1.742"/></g><g><path fill="#fff" d="M16.76 4.56a2.48 2.48 0 0 0 .738-1.776c0-.693-.28-1.322-.738-1.778a2.486 2.486 0 0 0-1.771-.731c-.696 0-1.323.277-1.773.731a2.505 2.505 0 0 0-.741 1.778c0 .696.284 1.323.741 1.776l.552.556c.922.928.99 1.172.11 2.052l-.502.506c-.413.411-.67.985-.67 1.613v8.13h4.564v-8.13c0-.628-.256-1.202-.666-1.613l-.506-.507c-.88-.88-.815-1.123.112-2.05z"/></g><g><g/><g clip-path="url(#ggvaa)"><path fill="#fff" d="M24.852 13.871c-.267.494-.613.784-1.012.785-.401-.001-.748-.291-1.016-.785-.262-.496-.418-1.139-.42-1.892.002-.75.158-1.394.42-1.893.268-.49.615-.782 1.016-.784.399.002.745.294 1.012.784.198.369.332.819.388 1.334h4.522a5.962 5.962 0 0 0-1.716-3.65 5.948 5.948 0 0 0-10.159 4.209 5.954 5.954 0 0 0 5.953 5.956 5.955 5.955 0 0 0 3.853-1.423 5.888 5.888 0 0 0 2.07-3.973H25.24c-.056.516-.19.966-.388 1.332"/></g></g><g><path fill="#fff" d="M47.086 6.013c1.654 0 3.072.652 4.188 1.78 1.917 1.936 1.437 4.798 1.437 4.798h-7.01c.064.47.194.878.373 1.22.265.489.611.782 1.012.784.96 0 1.519-1.407 1.519-1.407h4.028s-.06 1.523-1.303 2.95c-.986.993-2.45 1.782-4.217 1.782a5.955 5.955 0 1 1-.026-11.907zm1.306 4.88c-.05-.252-.163-.635-.282-.853-.286-.512-.614-.799-1.024-.802-.401.003-.811.356-1.012.785a4.773 4.773 0 0 0-.298.88z"/></g><g><path fill="#fff" d="M89.369 6.013c1.65 0 3.067.652 4.184 1.78 1.913 1.936 1.433 4.798 1.433 4.798H87.98c.064.47.194.878.376 1.22.262.489.61.782 1.013.784.956 0 1.519-1.407 1.519-1.407h4.02s-.055 1.523-1.3 2.95c-.99.993-2.457 1.782-4.217 1.782-1.72 0-3.19-.701-4.232-1.744a5.943 5.943 0 0 1 0-8.418 5.943 5.943 0 0 1 4.21-1.745zm1.312 4.88c-.052-.252-.162-.635-.285-.853-.28-.512-.617-.799-1.02-.802-.405.003-.82.356-1.018.785a4.232 4.232 0 0 0-.307.88z"/></g><g><path fill="#fff" d="M55.61.25a2.26 2.26 0 0 0-2.26 2.26l.004 14.902h4.516l-.004-14.908A2.258 2.258 0 0 0 55.61.25"/></g><g><path fill="#fff" d="M64.449 6.025a5.952 5.952 0 0 1 5.949 5.957c0 3.291-2.662 5.962-5.95 5.962-3.285 0-5.948-2.67-5.948-5.961a5.953 5.953 0 0 1 5.949-5.958m.006 8.634c.796 0 1.44-1.2 1.44-2.683 0-1.481-.644-2.68-1.44-2.68-.792 0-1.439 1.199-1.439 2.68 0 1.483.647 2.683 1.439 2.683"/></g><g><path fill="#fff" d="M101.599 6.025a5.952 5.952 0 0 1 5.948 5.957c0 3.291-2.66 5.962-5.948 5.962-3.28 0-5.949-2.67-5.949-5.961a5.957 5.957 0 0 1 5.949-5.958m0 8.634c.788 0 1.436-1.2 1.436-2.683 0-1.481-.647-2.68-1.436-2.68-.793 0-1.433 1.199-1.433 2.68 0 1.483.64 2.683 1.433 2.683"/></g><g><g/><g clip-path="url(#ggvab)"><path fill="#fff" d="M72.68 16.19a5.955 5.955 0 0 1 4.21-10.164c.491 0 .971.063 1.433.179V2.51A2.26 2.26 0 0 1 80.575.25a2.255 2.255 0 0 1 2.264 2.254l.004 9.476a5.926 5.926 0 0 1-1.75 4.21c-.682.689-2.152 1.746-4.203 1.746s-3.529-1.057-4.21-1.746m4.21-1.534c.789 0 1.433-1.2 1.433-2.682 0-1.481-.644-2.68-1.433-2.68-.792 0-1.44 1.199-1.44 2.68 0 1.482.647 2.682 1.44 2.682"/></g></g><g><path fill="#fff" d="M41.794 16.623a.793.793 0 0 0-.119-.411l-2.476-3.743 1.712-3.111a2.264 2.264 0 0 0-.796-3.095 2.255 2.255 0 0 0-3.09.801l-2.047 3.655V8.283a2.257 2.257 0 1 0-4.515 0v9.131h4.515V13.84l2.382 3.574h3.645a.793.793 0 0 0 .789-.79"/></g><g><path fill="#fff" d="M122.875 7.688h2.081v3h2.919v-3h2.087v7.986h-2.087V12.43h-2.919v3.243h-2.081z"/></g><g><path fill="#fff" d="M131.738 7.688h3.332c2.148 0 3.796 1.595 3.796 3.9 0 2.333-1.555 4.086-3.774 4.086h-3.355zm2.114 6.192h.915c1.237 0 1.997-.981 1.997-2.322 0-1.222-.817-2.13-1.933-2.13h-.979z"/></g><g/><g clip-path="url(#ggvac)"><path fill="#fff" d="M122.875 6.839h15.955v-.877h-15.955z"/></g><g clip-path="url(#ggvac)"><path fill="#fff" d="M122.875 17.415h15.969v-.877h-15.969z"/></g></g></g></g></svg>