<svg xmlns="http://www.w3.org/2000/svg" viewBox="0 0 547.95 78"><defs><style>.cls-1{fill:#fff;}</style></defs><title>nick-white</title><g id="Слой_2" data-name="Слой 2"><g id="Слой_1-2" data-name="Слой 1"><g id="Layer_1" data-name="Layer 1"><path class="cls-1" d="M536.39,70.05h-2V69h5.27v1h-2v5.7h-1.22Zm4.69-1.15h.2l3.24,3.62,3.23-3.62h.2v6.8h-1.21V71.49l-2.1,2.5h-.22l-2.12-2.5V75.7h-1.22Z"/><path class="cls-1" d="M26.25,25.46A26.24,26.24,0,0,0,0,51.69v24H19.92V52.12a13.85,13.85,0,0,1,1.86-7.22c1.18-1.88,2.69-3,4.47-3s3.29,1.11,4.46,3a13.85,13.85,0,0,1,1.86,7.22V75.7H52.5v-24A26.26,26.26,0,0,0,26.25,25.46"/><path class="cls-1" d="M503.38,25.46a26.26,26.26,0,0,0-26.26,26.26h0v24h19.94V52.12a13.85,13.85,0,0,1,1.86-7.22c1.17-1.88,2.7-3,4.47-3s3.3,1.11,4.47,3a14.07,14.07,0,0,1,1.86,7.22V75.7h19.92v-24a26.26,26.26,0,0,0-26.25-26.26"/><path class="cls-1" d="M74,19a11.08,11.08,0,1,0-15.68,0l2.45,2.44c4.09,4.09,4.39,5.17.5,9L59,32.74a10.1,10.1,0,0,0-2.94,7.12V75.7H76.2V39.86a10,10,0,0,0-3-7.12L71,30.51c-3.88-3.89-3.59-5,.49-9.06Z"/><path class="cls-1" d="M109.66,60.1c-1.18,2.16-2.7,3.45-4.47,3.45s-3.29-1.29-4.47-3.45a18.08,18.08,0,0,1-1.85-8.36,18,18,0,0,1,1.85-8.35c1.18-2.16,2.69-3.45,4.47-3.45s3.29,1.29,4.47,3.45a16.87,16.87,0,0,1,1.72,5.89h20a26.25,26.25,0,1,0,0,4.94h-20A16.61,16.61,0,0,1,109.66,60.1Z"/><path class="cls-1" d="M207.8,25.45A26.26,26.26,0,1,0,226.53,70.1a23.1,23.1,0,0,0,5.74-13H214.5s-2.45,6.19-6.7,6.19c-1.78,0-3.3-1.28-4.47-3.45a16.11,16.11,0,0,1-1.65-5.37h30.95s2.12-12.63-6.34-21.17A25.44,25.44,0,0,0,207.8,25.45ZM202,47a21.19,21.19,0,0,1,1.31-3.89c.89-1.89,2.69-3.45,4.47-3.45s3.26,1.27,4.51,3.53A15.52,15.52,0,0,1,213.56,47Z"/><path class="cls-1" d="M394.39,25.45A26.26,26.26,0,1,0,413.1,70.1a23,23,0,0,0,5.75-13H401.08s-2.45,6.19-6.69,6.19c-1.79,0-3.31-1.28-4.48-3.45a16.33,16.33,0,0,1-1.64-5.37h30.94s2.11-12.63-6.34-21.17A25.42,25.42,0,0,0,394.39,25.45ZM388.59,47a21.22,21.22,0,0,1,1.32-3.89c.89-1.89,2.69-3.45,4.48-3.45s3.24,1.27,4.5,3.53A16.38,16.38,0,0,1,400.15,47Z"/><path class="cls-1" d="M245.42,0a10,10,0,0,0-9.95,10V75.73h19.94V10a10,10,0,0,0-10-10"/><path class="cls-1" d="M284.43,25.46a26.26,26.26,0,1,0,26.25,26.27h0A26.26,26.26,0,0,0,284.43,25.46Zm0,38.08c-3.48,0-6.33-5.29-6.33-11.82S281,39.9,284.43,39.9s6.32,5.28,6.32,11.82S287.92,63.54,284.43,63.54Z"/><path class="cls-1" d="M448.4,25.46a26.26,26.26,0,1,0,26.25,26.27h0a26.25,26.25,0,0,0-26.24-26.26Zm0,38.08c-3.5,0-6.32-5.29-6.32-11.82S444.9,39.9,448.4,39.9s6.32,5.28,6.32,11.82S451.89,63.54,448.4,63.54Z"/><path class="cls-1" d="M365.59,51.72h0V9.94a10,10,0,0,0-19.93,0V26.26a26.66,26.66,0,0,0-6.35-.77,26.25,26.25,0,0,0-18.56,44.82h0a26.25,26.25,0,0,0,37.12,0h0a26.22,26.22,0,0,0,7.69-18.57ZM339.33,63.54c-3.49,0-6.32-5.29-6.32-11.82s2.83-11.82,6.32-11.82,6.33,5.28,6.33,11.82S342.83,63.54,339.33,63.54Z"/><path class="cls-1" d="M184.43,72.22a3.46,3.46,0,0,0-.52-1.82L173,53.89l7.55-13.72a10,10,0,1,0-16.26-11.64,9.35,9.35,0,0,0-.9,1.52l-9,16.13V35.43a10,10,0,1,0-19.93-1.67,9.31,9.31,0,0,0,0,1.67V75.7h19.93V59.93L164.88,75.7H181A3.46,3.46,0,0,0,184.43,72.22Z"/></g></g></g></svg>