<svg xmlns="http://www.w3.org/2000/svg" viewBox="0 0 500.03 143.37"><defs><style>.cls-1{fill:#201c1d;}.cls-2{fill:#ec681c;}.cls-3{fill:#e08c44;}</style></defs><title>nick-hd-colored</title><g id="Слой_2" data-name="Слой 2"><g id="Слой_1-2" data-name="Слой 1"><polyline class="cls-1" points="368.41 59.09 385.57 59.09 385.57 83.81 409.59 83.81 409.59 59.09 426.75 59.09 426.75 124.81 409.59 124.81 409.59 98.14 385.57 98.14 385.57 124.81 368.41 124.81"/><path class="cls-1" d="M441.34,59.1H468.8C486.48,59.1,500,72.23,500,91.21c0,19.21-12.79,33.63-31.06,33.63H441.34m17.42-14.77h7.54c10.14,0,16.41-8.07,16.41-19.13,0-10-6.71-17.5-15.89-17.5h-8.06v36.63Z"/><rect class="cls-1" x="368.36" y="44.92" width="131.35" height="7.22"/><rect class="cls-1" x="368.37" y="131.93" width="131.46" height="7.22"/><path class="cls-2" d="M48.32,46.69A48.31,48.31,0,0,0,0,95v44.15H36.68V95.76a25.71,25.71,0,0,1,3.42-13.3c2.17-3.45,5-5.5,8.22-5.5s6.06,2.05,8.23,5.5A25.52,25.52,0,0,1,60,95.76v43.38H96.64V95A48.29,48.29,0,0,0,48.32,46.69"/><path class="cls-2" d="M136.14,34.81a20.4,20.4,0,1,0-28.85,0l4.51,4.51c7.51,7.52,8,9.5.9,16.66l-4.09,4.08a18.51,18.51,0,0,0-5.43,13.12v66h37.08v-66a18.55,18.55,0,0,0-5.43-13.12L130.73,56c-7.15-7.15-6.62-9.14.89-16.67"/><path class="cls-2" d="M201.84,110.42c-2.16,4-5,6.34-8.22,6.37s-6.08-2.38-8.22-6.37A32.91,32.91,0,0,1,182,95.06a33,33,0,0,1,3.42-15.37c2.14-4,5-6.34,8.22-6.36s6.06,2.37,8.22,6.36A30.21,30.21,0,0,1,205,90.53h36.73a48.36,48.36,0,1,0,0,9H205a30,30,0,0,1-3.15,10.84"/><path class="cls-2" d="M339.45,132.73a6.25,6.25,0,0,0-1-3.34L318.4,99l13.91-25.25A18.35,18.35,0,0,0,300.7,55.13L284.1,84.81V65a18.35,18.35,0,0,0-36.7,0v74.12h36.7v-29l19.35,29,29.6,0h0a6.4,6.4,0,0,0,6.4-6.39"/><path class="cls-3" d="M344.36,132.33h-2.45v-1.25h6.34v1.25h-2.44v6.81h-1.45m5.64-8.2h.24l3.91,4.38,3.89-4.38h.23v8.2h-1.46v-5.08l-2.53,3H354l-2.55-3v5.08H350v-8.2Z"/></g></g></svg>