<svg xmlns="http://www.w3.org/2000/svg" width="125" height="20" viewBox="0 0 125 20"><defs><clipPath id="anu9a"><path d="M29.765 17.926H17.888V6.025h11.877v11.901z"/></clipPath><clipPath id="anu9b"><path d="M70.963 17.931h11.91V.25h-11.91v17.681z"/></clipPath></defs><g><g><g><g><path fill="#fff" d="M121.112 15.723v.236h.462v1.282h.275V15.96h.461v-.236zm3.037-.023l-.734.82-.735-.82h-.043v1.541h.28v-.955l.478.568h.048l.476-.568v.955h.274V15.7z"/></g><g><g><path fill="#fff" d="M5.953 6.025a5.938 5.938 0 0 0-4.21 1.745A5.916 5.916 0 0 0 0 11.979v5.435h4.518V12.07c.003-.651.156-1.208.42-1.639.263-.425.608-.677 1.015-.678.4 0 .742.253 1.008.678.264.432.419.988.419 1.639v5.344h4.52v-5.435c0-1.639-.671-3.14-1.739-4.209a5.956 5.956 0 0 0-4.208-1.745"/></g><g><path fill="#fff" d="M114.089 6.025a5.95 5.95 0 0 0-5.951 5.954v5.435h4.52l-.004-2.379V12.07c.004-.651.159-1.208.422-1.639.262-.425.613-.677 1.013-.678.402 0 .747.253 1.015.678.264.432.415.988.421 1.639v5.344h4.514v-5.435a5.952 5.952 0 0 0-5.95-5.954"/></g><g><path fill="#fff" d="M16.765 4.564a2.506 2.506 0 0 0 .736-1.778c0-.694-.281-1.319-.736-1.775a2.499 2.499 0 0 0-1.776-.736c-.692 0-1.325.281-1.778.736a2.497 2.497 0 0 0-.736 1.775c0 .694.28 1.323.736 1.778l.556.556c.927.925.99 1.17.112 2.049l-.505.506A2.268 2.268 0 0 0 12.7 9.29v8.124h4.574V9.29c0-.631-.256-1.201-.671-1.615l-.507-.506c-.878-.879-.813-1.124.11-2.051z"/></g><g><g/><g clip-path="url(#anu9a)"><path fill="#fff" d="M24.856 13.868c-.267.49-.615.782-1.017.783-.398-.001-.744-.292-1.013-.783-.261-.498-.419-1.142-.419-1.892 0-.752.158-1.395.42-1.892.268-.493.614-.783 1.012-.786.402.003.75.293 1.017.786.193.367.33.817.386 1.331h4.523a5.952 5.952 0 0 0-1.716-3.649 5.935 5.935 0 0 0-4.21-1.741 5.932 5.932 0 0 0-4.205 1.741 5.946 5.946 0 0 0 0 8.419 5.95 5.95 0 0 0 8.061.321 5.872 5.872 0 0 0 2.07-3.97h-4.522a3.76 3.76 0 0 1-.387 1.332"/></g></g><g><path fill="#fff" d="M47.105 6.025c1.65-.004 3.071.651 4.188 1.778C53.212 9.74 52.73 12.6 52.73 12.6h-7.015c.065.467.196.877.375 1.217.263.492.606.782 1.014.783.961 0 1.516-1.405 1.516-1.405h4.03s-.056 1.525-1.301 2.95c-.989.993-2.453 1.78-4.219 1.78a5.95 5.95 0 0 1-4.236-10.16 5.934 5.934 0 0 1 4.21-1.741zm1.318 4.88c-.056-.254-.166-.639-.284-.856-.285-.513-.62-.801-1.028-.803-.41.002-.815.355-1.018.784-.11.23-.219.535-.302.883z"/></g><g><path fill="#fff" d="M89.386 6.025c1.657-.004 3.078.651 4.195 1.778 1.917 1.937 1.435 4.798 1.435 4.798h-7.015c.063.467.194.877.377 1.217.267.492.61.782 1.008.783.962 0 1.523-1.405 1.523-1.405h4.024s-.058 1.525-1.303 2.95c-.985.993-2.45 1.78-4.214 1.78a5.97 5.97 0 0 1-4.238-1.741 5.958 5.958 0 0 1-1.74-4.21 5.947 5.947 0 0 1 5.949-5.95zm1.308 4.88c-.052-.254-.165-.639-.283-.856-.282-.513-.617-.801-1.025-.803-.397.002-.812.355-1.009.784-.108.23-.22.535-.298.883z"/></g><g><path fill="#fff" d="M55.623.25a2.259 2.259 0 0 0-2.26 2.261l.002 14.895h4.522l-.007-14.9A2.256 2.256 0 0 0 55.623.25"/></g><g><path fill="#fff" d="M64.463 6.025a5.953 5.953 0 1 1 .004 11.905 5.953 5.953 0 0 1-.004-11.905m0 8.634c.792 0 1.435-1.2 1.435-2.683 0-1.48-.643-2.679-1.435-2.679-.793 0-1.43 1.2-1.43 2.68 0 1.482.637 2.682 1.43 2.682"/></g><g><path fill="#fff" d="M101.627 6.025a5.952 5.952 0 1 1 0 11.904 5.952 5.952 0 0 1 0-11.904m.007 8.634c.796 0 1.436-1.2 1.436-2.683 0-1.48-.64-2.679-1.436-2.679-.796 0-1.443 1.2-1.443 2.68 0 1.482.647 2.682 1.443 2.682"/></g><g><g/><g clip-path="url(#anu9b)"><path fill="#fff" d="M82.859 11.981a5.91 5.91 0 0 1-1.74 4.209c-.683.687-2.154 1.741-4.21 1.741-2.049 0-3.52-1.054-4.21-1.741v-.001a5.949 5.949 0 0 1-1.736-4.208 5.948 5.948 0 0 1 1.736-4.21 5.953 5.953 0 0 1 5.649-1.566V2.512c0-1.25 1.013-2.26 2.258-2.262a2.261 2.261 0 0 1 2.26 2.257l.007 9.474-.014-.006zm-5.944 2.662c.796 0 1.443-1.198 1.443-2.677 0-1.476-.647-2.672-1.443-2.672-.792 0-1.436 1.196-1.436 2.672 0 1.48.644 2.677 1.436 2.677z"/></g></g><g><path fill="#fff" d="M41.8 16.619a.803.803 0 0 0-.116-.41l-2.475-3.741 1.716-3.113a2.263 2.263 0 0 0-.805-3.091 2.258 2.258 0 0 0-3.092.797l-2.043 3.658V8.28a2.262 2.262 0 0 0-4.523 0v9.13h4.523v-3.575l2.382 3.573h3.648v-.002c.43 0 .785-.352.785-.787"/></g></g></g></g></g></svg>