<svg xmlns="http://www.w3.org/2000/svg" viewBox="0 0 500 143.41"><defs><style>.cls-1{fill:#fff;}</style></defs><title>nick-hd-white</title><g id="Слой_2" data-name="Слой 2"><g id="Слой_1-2" data-name="Слой 1"><g id="Слой_1-2-2" data-name="Слой 1-2"><polyline class="cls-1" points="368.41 59.1 385.57 59.1 385.57 83.83 409.59 83.83 409.59 59.1 426.75 59.1 426.75 124.83 409.59 124.83 409.59 98.16 385.57 98.16 385.57 124.83 368.41 124.83"/><path class="cls-1" d="M441.34,59.11H468.8c17.68,0,31.2,13.13,31.2,32.11,0,19.21-12.79,33.63-31.06,33.63h-27.6m17.42-14.77h7.54c10.14,0,16.41-8.07,16.41-19.13,0-10-6.71-17.5-15.89-17.5h-8.06Z"/><rect class="cls-1" x="368.36" y="44.93" width="131.35" height="7.22"/><rect class="cls-1" x="368.37" y="131.94" width="131.46" height="7.22"/><path class="cls-1" d="M48.32,46.7A48.32,48.32,0,0,0,0,95H0v44.15H36.68V95.77a25.75,25.75,0,0,1,3.42-13.3c2.17-3.45,5-5.5,8.22-5.5s6.06,2,8.23,5.5A25.56,25.56,0,0,1,60,95.77v43.38H96.64V95A48.3,48.3,0,0,0,48.37,46.7h0"/><path class="cls-1" d="M136.14,34.82a20.4,20.4,0,1,0-28.85,0l4.51,4.51c7.51,7.52,8,9.5.9,16.66l-4.09,4.08a18.51,18.51,0,0,0-5.43,13.12v66h37.08v-66a18.57,18.57,0,0,0-5.43-13.12L130.73,56c-7.15-7.15-6.62-9.14.89-16.67"/><path class="cls-1" d="M201.84,110.43c-2.16,4-5,6.34-8.22,6.37s-6.08-2.38-8.22-6.37A32.8,32.8,0,0,1,182,95.07a33,33,0,0,1,3.42-15.37c2.14-4,5-6.34,8.22-6.36s6.06,2.37,8.22,6.36A30.33,30.33,0,0,1,205,90.54h36.73a48.37,48.37,0,1,0,0,9H205a29.78,29.78,0,0,1-3.15,10.84"/><path class="cls-1" d="M339.45,132.74a6.31,6.31,0,0,0-1-3.34L318.4,99l13.91-25.25A18.35,18.35,0,0,0,300.7,55.14L284.1,84.82V65a18.35,18.35,0,0,0-36.7,0v74.12h36.7v-29l19.35,29h29.6a6.4,6.4,0,0,0,6.4-6.39"/><path class="cls-1" d="M344.36,132.34h-2.45v-1.25h6.34v1.25h-2.44v6.81h-1.45M350,131h.24l3.91,4.38L358,131h.23v8.2h-1.46v-5.08l-2.53,3H354l-2.55-3v5.08H350V131Z"/></g></g></g></svg>