<svg xmlns="http://www.w3.org/2000/svg" viewBox="0 0 238.94 238.75"><defs><style>.cls-1{fill:#231f20;}</style></defs><title>p-channel-black</title><g id="Слой_2" data-name="Слой 2"><g id="Layer_1" data-name="Layer 1"><path class="cls-1" d="M37.16,145.7c6.33-7.46,11.4-13.63,13.22-16.35,3.83-3,14.91-13.11,14.91-13.11L96.46,71.48l3.9-3.65,6.35-7.23,3.16-4.6,10.59-8.38,6.23,8.21,4.93,1.53,3,12.29,3.84,3.68,3.64,10.14,8.15,12.32,1.28,7.11L172,112.24,186.19,136l.66,4.15,9.26,13.69,9.1,14.27h.11a99.14,99.14,0,1,0-177.62-11C30.92,153.24,35,148.19,37.16,145.7Z"/><path class="cls-1" d="M70.87,125c3.09-4.62,4.42-6.35,4.14-6.66-.48-.54-4,3.16-7,6a39.29,39.29,0,0,0-4.17,4.24c-2.84,3.52-6.25,8.72-11.53,15.77-1.64,2.19-4,4.56-6,7.18-1.33,1.77-1.38,2.58,1.05,0s10.73-11.93,12.17-13.79c3.24-4.2,4-1.85,6.08-5.15C65.6,132.61,68.83,128.07,70.87,125Z"/><path class="cls-1" d="M90.4,110c3.2-5.12,4.79-8.16,6.41-9.12s2.68-2.34,5.11-5.65,2.6-3.63,3.16-3.23-1.7,3.8-3.17,7.43-1.23,5.9-1.48,9.78-2.44,5.09-4.64,9.61-3.17,6.38-4.55,6.78-1.94.81-3.08,3.23a15.23,15.23,0,0,1-3.33,4.84c-1.41,1.49-1.58,1.73-1.94,2.86a5.17,5.17,0,0,1-2.4,2.71c-1.17.72-4.06,5-4.91,5.92s-1.21.93,0-1.78,3.74-7.18,4.47-8.67.33-2.31,2.2-6.87,2.65-5.73,3.42-6.86.49-1.9.09-2-.81-.57.49-2.79S88.47,113,90.4,110Z"/><path class="cls-1" d="M124,116c-1-3.78-1.12-4.31-1.73-6.15s-.86-2.81.89-4.74,1-6.25-.66-10.89c0,0-2.77-7.37-1.88-8s2.9,5.14,7.65,13.56,7.23,13.36,11.7,21.62,4.18,8.91,4.3,10.12c.19,2.1-2.09,2.85-1.67,4.24.6,2,2.8,9.87,3.48,11.25s1.41,1.66,3.14,5,1.73,4.74,1.08,5.42-.94,1.29-.41,3.28a46.57,46.57,0,0,0,3.25,7.73c.76,1.29.8,1.82-.61,1s-1.82-1.17-2.95-3.56S143.8,153.56,142,149.8s-3.41-7.41-5.1-10.93-2-5.46-3.46-6.24-2.91-.49-3.84-2.07-.88-2.17-1.57-2.64-1.12-2-2.16-5.7S124.79,118.68,124,116Z"/><path class="cls-1" d="M145.14,108.49c1.94,3.84,3.86,8.1,6.19,13s5.31,10.28,7.48,14.49,5.55,8.83,7.73,10.05,2.91.09,5.41,2.44,9,10.13,11.2,12.32,4.84,7.21,6.37,8.67-.32-2.75-2.57-6.24-5.55-9.87-8-13.92-3.54-5.19-3.94-6.56-.32-1.3-5.16-5.84-7.58-6.91-8.87-8.85,1-2.65-1.44-5.65-5.48-6.57-8.46-9.57a61.8,61.8,0,0,1-5.88-7c-1.86-2.35-2.42-3.72-3.07-3.24S143.74,105.72,145.14,108.49Z"/><path class="cls-1" d="M59.35,232.62a7.29,7.29,0,0,1-12.35,4,6.16,6.16,0,0,1-1.68-3.34,43.71,43.71,0,0,1,0-8.76A6.19,6.19,0,0,1,47,221.17a7.15,7.15,0,0,1,12.35,4H55.52a3.16,3.16,0,0,0-3.27-2.75,3.08,3.08,0,0,0-2.64,1.28c-.49.69-.73,2.42-.73,5.2,0,1.5,0,2.45,0,2.83a4.86,4.86,0,0,0,.9,2.64,3.09,3.09,0,0,0,2.42,1,3.15,3.15,0,0,0,3.27-2.75Z"/><path class="cls-1" d="M81.24,238.58H77.46v-8.1H70.9v8.1H67.12V219.21H70.9v7.92h6.56v-7.92h3.78Z"/><path class="cls-1" d="M105.22,238.58h-3.94l-1.15-3.42H93.25l-1.17,3.42h-4l7.05-19.37h3ZM99.12,232l-2.36-7.05L94.31,232Z"/><path class="cls-1" d="M126.94,238.58h-3.37l-7.67-11.89v11.89h-3.79V219.21h3.38l7.67,11.87V219.21h3.78Z"/><path class="cls-1" d="M150.79,238.58h-3.38l-7.67-11.89v11.89H136V219.21h3.37L147,231.08V219.21h3.79Z"/><path class="cls-1" d="M172.56,238.58H159.81V219.21h12.75v3.38h-9v4.54h7.64v3.37h-7.64v4.71h9Z"/><path class="cls-1" d="M193.33,238.58H180.77V219.21h3.78v16h8.78Z"/><path class="cls-1" d="M42.48,166.65c14.93.76,23.7,8.1,23.68,16-.07,14-22.35,16.38-22.35,16.38-3.92,19.42-19.39,26.81-30.08,26.67C-.58,225.52-.35,213.92.17,212.4c.58-1.73,1.48-3.28,3.3-3.27a3.29,3.29,0,0,1,3.28,3.29,3.13,3.13,0,0,1-1.5,2.69c-1.91,1.18-1.56,2.63-1.56,2.63,0,6.18,8,6.68,10,6.69,21.39.06,19-35.14,37.88-47.05.87-.55,1.54,0,1,.62-5.91,7.34-8.16,19.21-8.16,19.21,9.09,0,15.09-8.59,15.11-14.6,0-10.31-9.22-14.64-17.1-14.66-22-.06-31.59,15.28-31.61,23.65S16.11,203,20,203.05c5.3,0,7-3.57,6.33-5.29-1-2.75.45-5,2.09-5,.65,0,2.83-.1,2.82,3.76,0,3.71-5.3,7.43-11.1,7.42S5.94,200.77,6,191.58C6,172.94,29,166,42.48,166.65Z"/><path class="cls-1" d="M213.74,191.68h3.84l.75-1.56h-3.91l3.76-8.33-5.19,0-3.86,8.34h-2.69l-.76,1.56h2.67c-1.44,3.44-2.52,5.55-4.15,9.1-1.83,4-5.49,6.23-6.26,5.77-.56-.33-.46-1.06-.19-1.84,1.45-3.16,3.11-6.72,4.54-10,.6-1.26,1.07-2.69.29-4.05-.65-1.15-2.09-1.24-3.25-1-2.49.38-4.6,2-6.54,3.55l1.26-3h-5.21c-1.44,3-2.48,5.3-3.85,8.36-1.33,2.6-5.1,6.79-7.33,8.05-.37.18-1,.28-1.24-.2a3.53,3.53,0,0,1,.57-2.61c1.68-3.73,4-8.82,6-13.62h-5.08c-1.55,3.55-3.12,6.52-4.74,10.07-1.44,2.87-4.24,6.26-6,6.52-.59.1-1.14,0-1.14-.5a4,4,0,0,1,.49-2l6.29-14.28c-1.38,0-3.78.06-5,0-.21.57-.59,1.42-.9,2.21-1.14,1.9-3.94,4.4-6,2.85a6.77,6.77,0,0,0-.39-2,4.63,4.63,0,0,0-2.75-3.36c-4-1.37-8.29.91-11,3.9a15.74,15.74,0,0,0-4.73,9,19.76,19.76,0,0,1-4,4.31c-.3.18-1,.47-1.35.18a1.28,1.28,0,0,1,0-1.22c1.53-3.2,4.24-9.43,5.59-12.58,1.08-2.31-.27-4.72-3.74-3.87-2.41.57-4.11,2-5.76,3.17.11-1.27-.55-3-2-3.28-2.59-.59-6.07,2.21-7.43,3.45-.07,0-.2-.11-.2-.11l1.41-2.95-5,0c-1.35,3.06-2.51,5.73-3.78,8.42-1.35,2.9-4.72,6.63-6.62,7.44a1.64,1.64,0,0,1-1.66.12c-.28-.19-.57-.48-.17-1.34,2.32-5.08,4.13-9.1,6.55-14.47-3.44-2.22-8.16-1.2-11.61.43a19.36,19.36,0,0,0-4.52,3.17,15.14,15.14,0,0,1-2,1.43c-.76.58-1.33.29-1.54-.21a4.68,4.68,0,0,1,.5-2c.47-1.06,1.34-1.94,1.44-3.06s-1.61-1.27-2.38-.9a41.24,41.24,0,0,0-5.1,3.94c-.11.07-.11,0,0-.19l1.32-2.87-4.87,0-3.48,7.66c-2,3.72-4.44,7-7.24,8.32a1.11,1.11,0,0,1-1.14,0c-.49-.29-.29-1.14-.11-1.63,2.23-5.07,4-8.92,6.38-14.29-3.43-1.83-8.35-1.27-11.52.54-5,2.78-8.68,6.51-10.68,11.7a8,8,0,0,0-.24,5.78,3,3,0,0,0,3.58,1.81c2.79-.57,4.81-2.29,6.91-4.4h.21a7.65,7.65,0,0,0,0,2.7,2.32,2.32,0,0,0,1.71,1.63c2.61.51,5.87-2.19,8.56-4.59.11-.09.2,0,.11.12l-1.93,4.21h5.17l4.47-10a10.75,10.75,0,0,1,3-4.33c.19-.09.48-.08.39,0a3.23,3.23,0,0,0,.48,1.92,3,3,0,0,0,1.71,1.09,5.21,5.21,0,0,0,2.5-.3,25.26,25.26,0,0,0-2.4,4.51,6.59,6.59,0,0,0-.31,5.86,3.32,3.32,0,0,0,3.64,1.85c2.78-.66,4.78-2.4,7-4.49.1-.12.21-.12.21,0a6.23,6.23,0,0,0-.12,2.67,2.29,2.29,0,0,0,1.83,1.63c2.6.51,6.16-2.47,9-4.77,0-.09.1,0,.1.09-.58,1.14-1.54,3.36-2,4.5l5.09,0,3.89-8.51a31.5,31.5,0,0,1,2.31-4.42,10.7,10.7,0,0,1,3.18-3.45c.56-.28,1.34-.69,1.83-.48a1.25,1.25,0,0,1,.16,1.34c-2.31,5.2-4.53,10.27-6.87,15.53l5.21,0c1.55-3.75,3.36-7.38,5-11.24a8.21,8.21,0,0,1,1.53-2.46,9.57,9.57,0,0,1,4-3.56c.6-.28,1.44.19,1.14.78-1.84,4.3-3.39,7.86-5.22,11.68-.55,1.27-1.07,2.81-.2,4.26a2.05,2.05,0,0,0,1.34,1.16c3.84.56,6.64-2.58,9.14-5.08a5.78,5.78,0,0,0,1.92,4.26c2.37,1.62,5.08,1.33,7.49.2,4.89-2.32,8.08-7.2,9.25-12.58,0-.09,0-.09.11-.09a6.07,6.07,0,0,0,3.81-.28c-1.61,3.82-3.07,7-3.56,8.17-1.84,4.21.75,6.25,3.65,5.39,2.58-.87,4.42-2.6,6.34-4.52.1-.06.18-.06.18,0a4,4,0,0,0,.21,3.66,2.29,2.29,0,0,0,2.67,1.08c2.68-.69,5.4-3.08,7.51-5.18,0-.09.09-.09.09,0-.66,1.55-1.55,3.47-2.13,4.91h5.09c1.15-2.32,2.33-4.71,3.4-7.12,1.56-3.54,3.38-7,7-9.66.76-.57,1.62-.57,1.89-.28.21.08.32.76.21.94-1.76,4.13-3.38,7.69-5.21,11.64a5.74,5.74,0,0,0-.31,3.13c.3,1.37,1.91,1.86,3.18,1.67,2.89-.58,5.08-2.68,7.39-4.42a8.21,8.21,0,0,0,0,3.49,5,5,0,0,0,.76,1.7,4.37,4.37,0,0,0,3.37,1.85c4.21.11,8.63-3.92,10.68-7.94.08-.2-1.46-.4-1.55-.13-1.74,2.7-3.76,5.21-6.73,6.23-1,.31-2,.11-2.31-.75-.39-1.55.38-4.06,1.15-5.57C209.67,200.29,211.52,196.36,213.74,191.68ZM69.63,199.41c-1.55,3-4.24,6.42-6.16,6.41-.89,0-1.65-.67-1.35-2.28.48-3.08,3.48-7.29,5.33-9.5,1.52-1.81,4-4,6.15-4,.18,0,.37,0,.27.19C72,194.35,71.17,196.15,69.63,199.41Zm34.38.09c-1.53,3-4.23,6.42-6.13,6.42-1,0-1.66-.67-1.36-2.28.49-3.08,3.48-7.3,5.29-9.5,1.55-1.82,4-4,6.18-4,.19,0,.39,0,.29.2C106.34,194.44,105.55,196.25,104,199.5ZM153.59,201c-2.32,4.32-5,9-7.13,7.94s-.27-6.36,2-10.66,5.13-8.54,7.32-7.66C157.75,191.31,155.9,196.68,153.59,201Z"/><path class="cls-1" d="M120.12,14.4l4.94-3.17L129.57,15l-1.49-5.75L133,6l-5.89-.38L125.74,0l-2.12,5.39L117.76,5l4.57,3.84Zm95.46,63.06,4.91,3.22-1.61,5.65,4.65-3.72,5,3.22-2.08-5.54L231,76.74l-5.78.26-2.06-5.52-1.67,5.74Zm14.89,14.79-2.72,5.32-5.88-.93,4.2,4.11L223.43,106l5.27-2.74,4.28,4.1-.95-5.83,5.16-2.63L231.45,98Zm-10.65,73.24,1.36,5.81,2.35-5.41,5.76.59L225,162.67l2.36-5.39-5.2,3-4.45-4L219,162l-5.08,2.95Zm10.68-20.34,5.78-.5-5-2.94,1.29-5.73-4.54,3.9-5.1-3,2.37,5.39-4.44,3.85,5.93-.58,2.44,5.42Zm3-25.26.17-5.88-3.7,4.71-5.59-2,3.35,4.8-3.61,4.64,5.7-1.68,3.42,4.85.17-5.9,5.54-1.59ZM140.2,16.54l5.47-2.18,3.7,4.57L149,13l5.51-2.23-5.72-1.5-.32-5.77-3.1,4.89-5.68-1.48,3.74,4.65Zm71,45.58-.5,5.86,3.88-4.52,5.5,2.2-3.08-5,3.8-4.34-5.62,1.34-3.1-5-.52,5.94-5.78,1.36Zm-46-40.75L168,26.54l.78-5.89,5.83-1.16-5.33-2.56.8-5.73-4,4.22-5.31-2.52,2.79,5.28-4.1,4.3Zm27.59,23.18,5.75,1.14.63,5.84,2.92-5.2,5.83,1.12-4-4.36,2.89-5-5.27,2.4-4-4.33.61,6ZM183,32l1.74,5.61,1.88-5.63,5.94-.06-4.74-3.51,1.89-5.45L185,26.29l-4.72-3.51L182,28.49l-4.86,3.44ZM14.16,74.35l5.39-2.62L23.68,76l-.9-5.79,5.29-2.59-5.88-1-1-5.86L18.5,66l-5.67-1,4,4.15Zm-3.58,80.19,1.65,5.63,2.07-5.62,6,.2-4.68-3.54,2-5.53-4.91,3.37L7.9,145.5l1.68,5.66-4.8,3.24Zm70-132.72L84,17l5.6,1.8L86,14,89.4,9.16,83.82,11,80.41,6.33l.06,5.8L74.9,14l5.66,1.87Zm-19,3.36L62.71,31l2.4-5.37,5.83.7-4.39-4L69,16.9,63.8,19.81l-4.23-3.95,1.18,5.68-5.12,2.91ZM44.65,38l2.26,5.51,1.32-5.73,5.87-.43L49,34.21l1.31-5.8-4.48,3.82-4.92-3.06,2.21,5.36-4.46,3.8ZM100,16.19l4.25-4.08L109.39,15l-2.57-5.37,4.25-4.14-5.85.76L102.79,1l-1.07,5.7-5.82.78,5.2,2.91ZM30.49,53.64l3.25,5L34,52.76l5.68-1.56-5.56-2.07.16-5.94-3.67,4.62-5.39-2.08,3.2,4.84-3.66,4.58ZM7.42,95.2l4.78-3.58L17.08,95l-2-5.51,4.71-3.56-6,.17-2.06-5.57L10.09,86.2l-5.78.07,4.78,3.28ZM4.8,117l4-4.46L14.25,115l-3-5.06,3.92-4.36-5.8,1.28L6.28,101.8l-.56,5.86-5.67,1.2,5.31,2.32ZM6.41,139l3.1-5.11,5.8,1.34-3.92-4.39,3-5L9,128.12l-4-4.39.56,5.87L.2,131.86l5.65,1.25Z"/></g></g></svg>