<svg xmlns="http://www.w3.org/2000/svg" width="37" height="44" viewBox="0 0 37 44"><g><g><g><g><g><path fill="#fff" d="M36.019 24.59c.993.292.392 1.912.29 2.615-.214 1.352-.264 1.783-.533 3.124.092.604.05 2.398.073 2.81.025.944-.241 1.55-.993 1.767-.404.113-1.023.232-1.428.34-3.233 4.66-8.5 7.498-14.209 7.49-4.1-.006-7.5-.773-10.79-3.246-.46.023-1.576-.036-2.036-.073a4.3 4.3 0 0 1-1.153-.237c-1.26-.385-1.852-1.44-2.109-2.4-.921-5.26-1.002-5.782-1.002-5.782-2.62-.768-2.58-4.356-1.183-4.651-1.235-.713-1.679-5.915 3.112-7.897.565-1.337 1.064-1.91 2.16-3.034C5.831 14.797 2 10.58 2 10.58l2.777-3.91s5.761-.925 8.127-1.336c-.335-.57-.72-1.236-1.132-2.161L14.344.498 22.57.19l-.061 2.404c-.082 1.933-.177 3.586-.276 5.519l.496-.207c1.8-.103 2.93-.205 4.68-.257-.071 1.32-.278 3.24-.373 4.558 2.601 1.391 4.612 3.533 6.154 6.024.985-1.581 2.862-.105 2.866 1.342a102.59 102.59 0 0 1-.106 2.001c1.461.552.473 2.776.07 3.017m-.063 1.341c.338-1.301-.692-1.243-.53-1.35.465-.146.98-1.701.654-2.085-.104-.254-.365-.808-.8-.468a97.252 97.252 0 0 0 .218-2.33 1.73 1.73 0 0 0-.152-.828 1.161 1.161 0 0 0-.759-.63.846.846 0 0 0-.762.174c-.211.199-.303.477-.307.762l-.017.244-.018.245-.072.044-.07.043a16.11 16.11 0 0 0-2.832-4.22 16.37 16.37 0 0 0-4.068-3.106c.051-.626.413-3.484.452-4.08-.672-.001-3.428.183-4.114.206l-1.169.629c.059-1.215.117-2.325.171-3.54.042-.926.081-1.85.12-2.776l.115-1.836-3.728.15-3.729.152c-.314.358-.613.737-.947 1.076-.343.297-.68.596-1.016.9l1.234 2.777c-1.462.27-6.892 1.028-8.744 1.337-.367.452-1.81 2.616-2.16 3.085.605.761 4.43 5.018 5.144 5.863-.927 1.439-.836 1.427-1.081 2.314-.09-.02-.225-.051-.308-.051-3.19.102-4.595 1.56-5.442 3.29-.778 1.587-.782 4.395.84 4.854C.353 26.31.26 28.123 1.048 29.43c.783 1.3 1.85 1.057 1.94 1.083-.055.118-.24.144-.168.723-.066.332.633 4.214.747 4.727.21.796.442 1.512 1.051 2.079.541.478 1.21.763 1.938.757.94-.022 1.879-.06 2.818-.112 1.01-.055 2.02-.127 3.029-.212 1.746-.15 3.488-.34 5.228-.563 1.81-.236 3.614-.51 5.413-.821l.142-.012.141-.013c.29-.004.572.086.792.277.195.182.31.433.301.703-.014.382-.153.775-.286 1.13-.206.523-.492 1.03-.942 1.38-.18.138-.27.345.026.377.476.03.96-.19 1.378-.393 1.275-.64 2.473-1.413 3.536-2.365a12.376 12.376 0 0 0 2.149-2.56 108.832 108.832 0 0 0 4.16-1.075c.308-.098.802-.443.778-.903.047-.868-.027-2.71-.049-3.195.12-.545.683-3.96.785-4.51"/></g></g><g><path fill="#fff" d="M13.984 37.281c-.424-2.199-.82-4.406-1.144-6.622-.09-.639-.166-1.281-.236-1.922l.853-.121a232.945 232.945 0 0 0 3.101 3.995l1.992-4.707c.302-.041.603-.083.904-.126.402 2.926.81 5.85 1.227 8.773-.605.086-1.212.165-1.82.243a515.788 515.788 0 0 1-.606-3.802l-1.04 2.502-.353.046c-.6-.731-1.194-1.466-1.783-2.206.21 1.272.428 2.543.657 3.812a144.5 144.5 0 0 1-1.752.135"/></g><g><path fill="#fff" d="M20.368 27.645c.413 2.924.824 5.849 1.238 8.774 1.667-.23 3.33-.489 4.99-.778-.054-.455-.11-.91-.166-1.365-1.051.187-2.102.364-3.157.53-.088-.764-.178-1.529-.269-2.293.917-.134 1.833-.273 2.747-.418-.056-.487-.112-.976-.17-1.463-.931.148-1.863.29-2.796.429l-.325-2.211c1.014-.126 2.027-.257 3.041-.391l-.235-1.465c-1.632.225-3.264.442-4.898.651"/></g><g><path fill="#fff" d="M30.546 26.408c.786 1.506 1.553 3.02 2.299 4.544.082 1.093.152 2.186.205 3.28.422-.102.843-.208 1.264-.316-.039-1.12-.097-2.237-.17-3.355.31-1.492.589-2.99.84-4.495l-1.342.067a127.6 127.6 0 0 1-.34 2.59c-.372-.817-.752-1.632-1.139-2.444l-1.617.13"/></g><g><path fill="#fff" d="M9.308 31.017c-.012-.247.154-.432.387-.488l.197-.023c.271-.02.523.123.576.403.254 1.624.531 3.245.834 4.861.05.269-.046.483-.325.543a38.67 38.67 0 0 1-.38.02c-.246-.025-.39-.198-.453-.427a147.718 147.718 0 0 1-.836-4.889m-1.479.344c.23 1.486.485 2.968.768 4.444.208.98 1.006 1.81 2.045 1.823.275-.009.55-.017.823-.028 1.068-.074 1.62-1.021 1.495-2.026a190.444 190.444 0 0 1-.84-5.042c-.217-1.006-1.117-1.546-2.111-1.46l-.707.097c-1.039.163-1.598 1.202-1.473 2.192"/></g><g><path fill="#fff" d="M3.968 31.68c.155 1.472.43 2.927.759 4.37.216.799.816 1.634 1.712 1.684l.714-.012c.721-.074 1.14-.759 1.029-1.444a7.04 7.04 0 0 0-.343-1.343.233.233 0 0 0-.24-.18c-.274.019-.549.037-.823.053-.167.036-.205.223-.177.369.075.339.153.677.232 1.014.023.19-.064.33-.253.375l-.3-.008c-.204-.022-.339-.206-.383-.394a101.09 101.09 0 0 1-.819-4.494c-.024-.218.12-.44.35-.452l.202-.001c.175.01.295.116.338.283.058.375.118.75.182 1.123.019.112.09.252.223.242l.894-.091c.149-.066.207-.2.195-.355-.056-.389-.11-.778-.164-1.166-.162-.696-.644-1.368-1.427-1.345l-.568.032c-.884.071-1.416.899-1.333 1.74"/></g><g><path fill="#fff" d="M27.959 28.117l.754-.101c.283-.017.492.186.542.456.21 1.544.403 3.089.575 4.636.016.31-.09.567-.415.636l-.771.136a223.271 223.271 0 0 0-.685-5.763m-1.943-1.214c.4 2.89.765 5.784 1.08 8.684.819-.17 1.637-.35 2.453-.536 1.036-.212 1.877-1.007 1.837-2.118a161.917 161.917 0 0 0-.533-4.728c-.252-.957-1.024-1.695-2.06-1.595-.926.1-1.85.198-2.777.293"/></g><g><path fill="#fff" d="M5.71 27.596c-.228.59-.524 1.157-.957 1.624-.44.434-.977.75-1.605.785a1.76 1.76 0 0 1-1.365-.661c-.274-.377-.413-.824-.476-1.282a1.207 1.207 0 0 1 .036-.51.5.5 0 0 1 .197-.26c.204-.1.408.013.519.193.121.247.096.523.013.779-.057.265-.063.543.05.794.154.26.427.36.72.356.164-.01.327-.04.482-.1.267-.12.478-.326.644-.565.2-.304.337-.642.451-.986.273-.886.427-1.8.603-2.708.259-1.335.46-2.905 1.61-3.798l.213-.139-.084.24c-.365.997-.481 2.053-.499 3.109 1.16-.406 1.564-1.621 1.628-2.747.014-.482-.08-.975-.393-1.355-.574-.553-1.37-.5-2.1-.378-.71.133-1.34.489-1.857.992-.838.918-1.233 2.101-1.397 3.317-.036.377.001.768.184 1.105.154.236.392.39.68.376.32-.038.677-.148.727-.515-.08-.289-.154-.628.021-.896a.38.38 0 0 1 .495-.085.577.577 0 0 1 .236.482 1.79 1.79 0 0 1-.262.923c-.278.384-.693.595-1.144.712a1.275 1.275 0 0 1-.764-.214 1.794 1.794 0 0 1-.55-.643c-.197-.407-.288-.853-.328-1.301-.03-.632.143-1.238.391-1.813A5.81 5.81 0 0 1 2.717 21c.687-.733 1.501-1.346 2.488-1.596.7-.143 1.42-.202 2.124-.054.527.142.996.42 1.37.819.366.439.534.984.505 1.553a4.501 4.501 0 0 1-.271 1.183 4.09 4.09 0 0 1-.61 1.034c-.55.625-1.285.99-2.067 1.239a10.741 10.741 0 0 1-.546 2.418"/></g><g><path fill="#fff" d="M10.199 24.233c.226.37-.25.942-.4 1.273-.155.368-.413 1.412-1.002 1.148-.12-.522.165-1.021.407-1.466.224-.388.513-.823.972-.952zm5.962-.905c.155.38-.187.854-.32 1.2-.174.467-.413 1.485-1.112 1.26-.178-.506.236-1.029.454-1.456.21-.401.472-.87.942-1.003zm9.54-1.506c.484.392.124 1.183-.038 1.652-.143.4-.476 1.64-1.095 1.393-.211-.587.01-1.222.201-1.785.12-.326.433-1.448.933-1.26zm9.11-1.392a.189.189 0 0 1-.095-.128c-.038-.246.04-.49.054-.735.001-.201-.035-.476-.261-.542-.193-.055-.336.114-.356.292-.018.37-.013.758-.169 1.101-.069.056-.167.042-.25.044-.065.029-.142.086-.15.162-.011.09.039.177.102.237a.854.854 0 0 0 .168.107c-.09.643-.1 1.322-.388 1.917-.08.128-.142.268-.23.392-.077.07-.25.322-.37.27-.072-.197.05-.434.097-.627.103-.465.177-.936.225-1.41.026-.258.053-.527-.087-.758-.13-.17-.339-.224-.545-.197-.172.038-.296.164-.409.291-.1.11-.218.168-.359.096-.03-.15-.139-.281-.3-.288-.186-.007-.337.123-.4.29-.246.84-.45 1.696-.84 2.484-.08.163-.143.388-.348.427-.19.008-.21-.188-.197-.335.09-.576.275-1.13.415-1.694l.114-.487a.41.41 0 0 0-.06-.318c-.072-.09-.191-.177-.314-.169a.545.545 0 0 0-.474.39c-.178.72-.287 1.464-.606 2.14-.115.23-.214.5-.47.606-.19.051-.249-.13-.236-.288.053-.446.188-.875.28-1.314.06-.3.118-.599.175-.9a.663.663 0 0 0-.135-.455.348.348 0 0 0-.277-.107c-.29.046-.424.33-.548.562a.985.985 0 0 1-.322.376.516.516 0 0 1-.284.084c-.201-.01-.295-.292-.36-.446-.209-.343-.596-.494-.986-.455-.515.103-.948.389-1.29.781-.378.469-.625 1.012-.805 1.583-.095.308-.194.614-.295.92-.108.185-.332.615-.604.48.071-.317.15-.634.234-.948.11-.408.22-.817.321-1.228.088-.381.101-.757-.264-.99-.3-.156-.598-.043-.863.129-.144.109-.21.293-.393.353-.205.037-.357-.105-.475-.257-.268-.283-.685-.117-.95.082-.132.126-.18.35-.396.347-.26-.055-.341-.372-.605-.42-.314.006-.6.262-.72.54l-.205.593c-.233.68-.452 1.365-.703 2.04-.107.256-.34.4-.584.512-.048.017-.102-.003-.138-.037-.06-.081-.04-.192-.028-.286.026-.227.096-.447.157-.667.18-.605.73-1.48.385-2.104-.31-.329-.803-.172-1.171-.05-.623.226-1.136.635-1.56 1.14-.078.088-.216.207-.343.182-.093-.098-.005-.256.031-.36.073-.214.143-.481-.076-.633-.335-.145-.612.239-.807.452-.082.089-.16.184-.26.254-.028-.202-.119-.411-.335-.465-.291-.026-.48.217-.605.448-.072.147-.129.3-.169.46-.252.791-.424 2.003-1.317 2.333-.13-.081-.117-.26-.09-.39.067-.297.134-.591.21-.885.115-.415.645-1.424.157-1.74-.295-.084-.603.084-.87.193a3.314 3.314 0 0 0-1.275.945c-.38.502-.75 1.018-.953 1.62a1.961 1.961 0 0 0 .155 1.476.644.644 0 0 0 .51.294c.353.02.681-.084.88-.392.06-.106.104-.253.218-.313.226.057.222.475.52.476.238.001.467-.162.631-.319l.381-.296c-.01.212.095.466.341.463.273-.006.428-.28.48-.515.306-.818.593-1.645.954-2.44.082-.029.133-.111.219-.135.101.32.306.532.654.415-.207.527-.367 1.086-.302 1.658a.824.824 0 0 0 .283.511c.152.105.334.19.523.179.276-.037.548-.078.787-.231.223-.155.42-.342.58-.564.063.292.318.533.627.534.446.001.678-.52 1.11-.563.112.18.32.255.525.248.293-.046.447-.31.485-.585.278-.831.546-1.665.862-2.48.06-.115.17-.19.267-.272.085-.035.215-.11.303-.047.038.04.028.104.019.154-.152.645-.295 1.293-.498 1.924-.068.201-.159.404-.14.62.044.253.22.464.482.502.341-.054.59-.31.725-.615.305-.83.53-1.685.783-2.53a.414.414 0 0 1 .184-.213c.17-.085.302.03.321.204-.078.369-.136.743-.232 1.108-.1.364-.203.727-.242 1.104-.012.219.044.439.227.574.283.168.63.128.913-.015.295-.176.527-.473.875-.547.244-.005.363.242.555.348.428.164.854.061 1.245-.15.96-.564 1.428-1.56 1.673-2.609.04-.155.132-.35.32-.346.272.101.036.637-.012.824-.12.48-.446 1.154-.05 1.586.154.13.318.27.53.264.337-.044.619-.222.85-.463.078-.086.159-.235.284-.254.213.141.372.382.654.372.25-.054.348-.34.592-.401.253-.005.411.282.66.27.232-.012.325-.319.378-.5.244-.841.4-1.723.815-2.503.087-.127.395-.504.54-.263.101.424-.127.858-.22 1.262-.092.39-.315.798-.23 1.208.066.244.232.492.515.464.353-.078.643-.296.933-.502a1.6 1.6 0 0 0 .305.407c.184.16.374.271.625.25.268-.045.466-.24.603-.465.116-.212.184-.443.254-.672.074-.265-.119-.507-.263-.187-.1.264-.226.7-.582.674-.106-.016-.162-.107-.176-.206-.012-.115-.008-.23-.003-.345.145-.826.242-1.66.44-2.476.085-.006.173-.01.255-.037.098-.042.133-.134.12-.237a.281.281 0 0 0-.17-.227z"/></g><g><path fill="#fff" d="M23.042 19.618l-.01.491c.649-.064 1.293-.121 1.93-.17l.054-.479zm.048-1.89l-.024 1.035 2.067-.184.116-1.024zm.047-2.025l-.023 1.034 2.252-.201.116-1.02zm.048-2.025l-.024 1.032 2.438-.216.115-1.02zm.048-2.026l-.024 1.033 2.623-.234.115-1.018zm.023-.993l2.809-.251.127-1.122-2.91.237z"/></g><g><path fill="#fff" d="M19.278 20.506c.289-.038.58-.076.87-.111l-.103-.758-.911.049zm1.247-.895l.099.725.834-.096c-.026-.19-.054-.416-.084-.675zm-.7-1.596l-.973.052.168.923.937-.054zm.482-.025l.132.943.866-.051c-.027-.266-.07-.631-.097-.94zm-.718-1.772l-1.047.057.18 1.048 1.004-.06zm.485-.025l.135 1.042.936-.055c-.027-.33-.05-.676-.073-1.04zm-.726-1.879l-1.133.061.198 1.156 1.08-.063zm.489-.027l.144 1.152 1.06-.061c-.019-.37-.036-.753-.05-1.152zm-.733-2.082l-1.265.066c.083.44.157.839.218 1.182l1.189-.069zm.488-.026l.134 1.177 1.226-.071a91.58 91.58 0 0 1-.018-1.179zm-.607-.904l-.132-1.181-1.412.076.226 1.182zm.387-1.208c.038.388.077.78.119 1.178l1.443-.084a66.9 66.9 0 0 1 .017-1.179zm-.638-1.201c-.044-.431-.086-.856-.126-1.272l-1.649.087.25 1.274zm.418-1.301c.032.417.066.84.104 1.27l1.73-.103.043-1.269zm-.67-1.2c-.041-.477-.08-.945-.116-1.404l-1.92.104.275 1.404zm.508-1.437c.022.46.047.929.077 1.403l2.014-.117.042-1.399zm-.064-2.756c-.001.459.005.928.016 1.406l2.204-.13c.027-1.231.014-1.368.014-1.368zm-2.742 1.58l2.084-.123c-.032-.487-.06-.963-.084-1.428l-2.287.095z"/></g><g><path fill="#fff" d="M8.337 7.597c2.866 4.105 5.39 8.815 6.958 13.527l-.424.077c-1.705-4.815-4.527-9.602-7.526-13.458zm1.834-.271c2.562 4.384 4.849 9.04 6.094 13.63l-.45.077c-1.56-4.698-4.061-9.437-6.819-13.534zm1.812-.267c2.297 4.529 4.209 9.108 5.254 13.741l-.469.075c-1.36-4.79-3.558-9.53-6.005-13.636zm1.825-.27c1.998 4.996 3.78 11.519 4.396 13.865l-.42.062c-1.195-4.762-3.036-9.557-5.27-13.737zM6.714 7.837c3.076 3.909 6.04 8.603 7.686 13.467l-.59.118c-.464-1.375-1.469-3.987-3.137-6.614-2.005-3.156-4.439-6.23-4.918-6.83z"/></g></g></g></g></svg>