<svg xmlns="http://www.w3.org/2000/svg" viewBox="0 0 1439.41 586.1"><title>spike</title><g id="Слой_2" data-name="Слой 2"><g id="Layer_1" data-name="Layer 1"><polygon points="1376.56 151.24 1385.26 151.24 1385.27 175.8 1391.99 175.8 1391.98 151.24 1400.68 151.23 1400.68 145.29 1376.56 145.29 1376.56 151.24"/><polygon points="1439.41 145.27 1429.28 145.28 1422.22 165.19 1422.13 165.19 1415.1 145.28 1404.93 145.29 1404.94 175.79 1411.66 175.79 1411.66 152.39 1411.74 152.39 1419.46 175.78 1424.59 175.78 1432.6 152.39 1432.68 152.39 1432.69 175.78 1439.41 175.78 1439.41 145.27"/><path d="M555.18,138c-32.65,0-54.22,10.75-64.75,19.24-3.32,2.25-5.55,4.53-11.06,11.31V145.92H368.12V285.76c-10.54-60.64-60.95-79-82.68-86.09-38.76-13-75.27-18.12-89.12-20.38-10.51-1.7-33.77-6.22-43.72-12.44-5.55-4-10-10.74-10-18.1,0-13.57,13.29-19.8,15.51-20.93,11.62-5.1,26.56-5.1,29.33-5.1,29.34,0,68.63,6.23,91.33,27.72,3.32,2.84,6.09,6.22,11.07,13l73.39-70.94c-8.19-8.44-14.92-15.29-25.25-23-55.89-41.85-126.19-43-146.1-43-15,0-118.44-1.11-158.3,73.54-13.83,25.45-14.4,49.76-14.4,60.51-.54,43.56,21.59,70.14,33.78,80.9,18.81,17,47.6,30.53,101.28,41.28,34.89,7.35,59.78,10.74,73.61,15.83,11.61,4,16,9.05,18.81,14.72.57,1.69,2.78,5.1,2.78,9.6,0,19.78-24.37,30.54-59.22,30.54-27.12,0-68.09-8.49-90.23-28.27-5.53-4.52-10.51-10.74-18.81-24.33L0,379.29a183.18,183.18,0,0,0,28.07,26.25c46.5,35.63,100.73,45.24,157.74,45.24,16.59,0,82.46,1.13,132.82-36.77,14.73-11.17,42-36.53,49.49-81V586.1L479.92,471V413.94a49.81,49.81,0,0,0,12.88,15.17c5.93,4.1,11.53,7.9,17.8,10.21l168-175C670.67,195.32,633.74,138,555.18,138ZM544.66,355.5a42.19,42.19,0,0,1-22.13,6,38.39,38.39,0,0,1-19.93-4.87c-22.14-12-23.8-40.76-23.8-62.49,0-22.31,1.12-50.56,24.35-63.06a46.2,46.2,0,0,1,22.16-5.43c5.51,0,20.47,2.18,30.41,15.22,11.09,14.67,12.2,36.95,12.2,54.33C567.92,315.83,565.14,343,544.66,355.5Z"/><polygon points="792.97 143.59 678.95 262.95 678.95 438.9 792.97 438.9 792.97 143.59"/><path d="M735.92,142.75c31.45,0,57-26.08,57-58.22s-25.5-58.22-57-58.22-57,26.06-57,58.22S704.45,142.75,735.92,142.75Z"/><polygon points="931.88 356.89 961.76 327.48 1023.76 438.9 1153.8 438.9 1120.28 383.85 1115.87 376.63 1039.79 251.7 1148.83 145.92 1009.9 145.92 931.88 229.64 931.88 0 817.85 118.66 817.85 438.9 931.88 438.9 931.88 356.89"/><path d="M1389.13,237.29a140,140,0,0,0-29.23-52.11c-39.84-44-96.17-46.68-114.74-46.68-15.4,0-70.13,2.7-109.47,41.25-15.91,15.74-42,51.57-42,109.67,0,29.69,7.17,58.22,20.94,82.48l4.21,6.93a135.56,135.56,0,0,0,62,52.29c20.7,8.69,42.47,11.95,65.33,11.95s44.63-3.26,65.36-11.95c41-17.24,68.22-51.48,80.18-92.29h-98.64c-5.21,11.1-16.61,25.65-41.2,25.19l-.39-.21c-29.2.54-42.82-20.11-46.55-30.95-2.68-8.7-2.68-21.72-2.68-21.72h194.8C1397.09,285.63,1396.55,261.74,1389.13,237.29ZM1203.38,252c1.06-6,3.73-28.79,23.9-38,3.19-1.63,11.5-3.8,20-4.36,8.5,0,28.68,3.27,36.11,26.63,2.14,7,2.14,12.47,2.65,15.74Z"/></g></g></svg>