<svg xmlns="http://www.w3.org/2000/svg" width="55" height="24" viewBox="0 0 55 24"><g><g><g><g><path fill="#fff" d="M51.32 5.681v.223h.325v.914h.251v-.914h.325V5.68z"/></g><g><path fill="#fff" d="M53.288 5.68l-.264.743h-.004l-.261-.743h-.379v1.138h.251v-.871h.003l.288.871h.19l.3-.873h.003v.872h.25V5.68z"/></g><g><g><path fill="#fff" d="M20.698 5.405c2.928 0 4.305 2.136 4.6 4.707l-6.262 6.526c-.234-.086-.442-.228-.665-.38a1.857 1.857 0 0 1-.48-.566v2.128l-4.167 4.29v-9.437a4.753 4.753 0 0 1-1.845 3.021c-1.877 1.414-4.334 1.372-4.952 1.372-2.124 0-4.148-.36-5.881-1.688A6.89 6.89 0 0 1 0 14.4l3.027-2.922c.309.506.495.738.7.906.827.737 2.354 1.054 3.366 1.054 1.298 0 2.208-.4 2.208-1.138 0-.168-.084-.295-.104-.359-.104-.21-.269-.401-.702-.548-.516-.19-1.444-.317-2.744-.591-2-.4-3.074-.906-3.775-1.538-.455-.4-1.28-1.392-1.26-3.016 0-.401.02-1.307.537-2.257 1.486-2.783 5.343-2.741 5.9-2.741.743 0 3.364.043 5.447 1.603.387.287.637.542.942.855l-2.736 2.645c-.185-.252-.289-.379-.413-.485-.846-.8-2.31-1.033-3.404-1.033-.104 0-.66 0-1.094.19-.083.042-.578.275-.578.78 0 .274.165.527.372.675.372.232 1.238.401 1.63.464.516.084 1.878.274 3.322.76.81.264 2.69.948 3.083 3.21V5.698h4.147v.844c.206-.253.288-.338.412-.421.393-.317 1.197-.717 2.415-.717m-.393 8.117c.763-.467.868-1.48.868-2.254 0-.648-.042-1.48-.456-2.029-.37-.487-.927-.568-1.133-.568-.165 0-.495.02-.826.203-.867.467-.908 1.522-.908 2.355 0 .813.062 1.887.888 2.334.33.182.597.182.742.182.186 0 .475-.02.825-.223"/></g><g><path fill="#fff" d="M29.56 5.62l-4.25 4.45v6.56h4.25z"/></g><g><path fill="#fff" d="M27.435 5.581c1.172 0 2.123-.972 2.123-2.17s-.951-2.171-2.123-2.171c-1.174 0-2.125.973-2.125 2.171s.951 2.17 2.125 2.17"/></g><g><path fill="#fff" d="M34.74 13.565l1.115-1.097 2.311 4.155h4.848l-1.25-2.053-.165-.269-2.835-4.657 4.065-3.945h-5.18l-2.908 3.123V.26L30.49 4.684v11.939h4.25z"/></g><g><path fill="#fff" d="M51.792 9.113c.277.912.297 1.803.297 2.754h-7.262s0 .485.1.81a1.758 1.758 0 0 0 1.736 1.153l.013.009c.917.016 1.343-.526 1.536-.94h3.677c-.444 1.52-1.458 2.798-2.988 3.44-.773.324-1.587.446-2.437.446-.852 0-1.663-.122-2.435-.445a5.048 5.048 0 0 1-2.312-1.95l-.156-.258c-.513-.905-.781-1.968-.781-3.076 0-2.165.971-3.501 1.564-4.087C43.81 5.53 45.85 5.43 46.425 5.43c.692 0 2.793.101 4.277 1.74a5.206 5.206 0 0 1 1.09 1.943zm-3.844.547c-.019-.12-.019-.323-.098-.586-.277-.871-1.03-.993-1.347-.993-.315.02-.626.101-.745.162-.751.344-.851 1.195-.89 1.417z"/></g></g></g></g></g></svg>