<svg xmlns="http://www.w3.org/2000/svg" width="57" height="34" viewBox="0 0 57 34"><g><g><g><g><path fill="#fff" d="M31.724 16.077a.903.903 0 0 1-.905.906l-7.395.01a.905.905 0 0 1-.907-.904l-.004-1.696c0-.502.406-.907.906-.908h.506c.5 0 .906-.354.906-.855l-.005-3.21c0-.252-.158-.454-.409-.454l-.547.002c-.5 0-.907.002-.908-.905l-.001-1.036c-.001-.501.465-.908.967-.908 1.045-.144 1.617-.502 2.4-1.193.165-.178.484-.333.746-.333l1.67-.003c.501 0 .907.405.908.906l.014 7.073h-.002c0 .5.406.881.908.906h.243c.5-.001.906.403.907.903zm-4.654-6.073c.092-.247-.084-.298-.195-.298-.184 0-.241.066-.287.216l-.37 1.19h-.019l-.27-1.178c-.041-.187-.208-.246-.389-.246a.691.691 0 0 0-.227.047c-.085.034-.152.088-.15.172 0 .192.163.132.191.24l.35 1.237c.054.197.21.352.433.352.236 0 .37-.176.434-.353zm2.048 1.67c.091-.031.16-.086.16-.19 0-.15-.182-.111-.182-.217l.013-1.33c.003-.177-.13-.246-.298-.246-.17.001-.296.072-.296.248l-.002.525h-.447l.002-.418c0-.258-.13-.36-.374-.36a.735.735 0 0 0-.24.048c-.096.031-.162.086-.16.19 0 .149.177.111.177.218l-.01 1.326c-.002.18.128.25.297.248.169 0 .3-.072.3-.246l.002-.558h.448l-.002.45c0 .259.124.358.37.357.081 0 .16-.017.242-.045z"/></g><g><g><path fill="#fff" d="M6.894 27.732c-.58.051-1.329-.147-1.497-.795-.067-.232-.184-.382-.35-.382a.825.825 0 0 0-.596.267c-.465.533-.563 1.547-.562 2.128 0 .5.1.898.283 1.18.317.448.782.547 1.182.547.465-.002.896-.152 1.428-.485.548-.35 1.096-.168 1.429.296.3.415.217.897-.147 1.297-.448.5-1.577 1.265-3.471 1.268-1.729.004-2.792-.378-3.608-1.29-.665-.78-.983-1.66-.985-2.89-.003-2.342 2.02-4.622 4.696-4.627 1.03-.002 2.076.063 2.958.643.715.465.783 1.013.701 1.545-.133.93-.38 1.213-1.46 1.298"/></g></g><g><path fill="#fff" d="M13.183 32.543c-.548.217-1.013.317-1.778.318-.98.002-1.944-.66-1.946-1.758l-.014-8.508c0-1.113.829-1.514 1.875-1.515 1.031-.002 1.879.395 1.881 1.509l.012 7.495c0 .714 1.03.231 1.032 1.294 0 .566-.381.899-1.062 1.165"/></g><g><path fill="#fff" d="M19.578 29.618c0 .416-.298.798-.946.8-.248 0-.531-.165-.532-.482v-.116c0-.167.149-.365.364-.432l.781-.267c.2-.067.333.032.333.149zm4.023.792c-.432-.132-.516-.249-.517-.631l-.002-2.143c-.003-2.194-1.186-3.372-3.927-3.368-.598.002-1.579.168-2.31.42-1.41.517-1.477 1.015-1.476 1.746.002.948.484 1.28 1.365 1.278.698 0 1.296-.086 1.544-.817.132-.366.215-.465.63-.465.383-.001.616.247.617.629v.415l-2.508.653c-1.296.351-2.209.834-2.206 2.247.002 1.446.768 2.491 2.662 2.488.598-.001 1.745-.319 2.342-1.283l.033.084c.2.663.766 1.144 1.614 1.143a3.672 3.672 0 0 0 1.676-.419c.665-.332.963-.665.963-1.197-.001-.449-.251-.714-.5-.78z"/></g><g><path fill="#fff" d="M28.403 33.033c-1.976.003-3.025-.66-3.491-1.224-.366-.448-.4-1.08-.051-1.463.464-.482 1.128-.533 1.627-.102.366.316.765.481 1.23.48.35 0 .598-.1.698-.25.082-.133.016-.316-.234-.516-.283-.214-.831-.363-1.596-.777-.765-.415-1.713-1.078-1.715-2.341-.003-1.595 1.758-2.612 3.768-2.615 1.877-.002 2.742.611 3.192 1.175.366.449.367.881.102 1.313-.282.432-.98.6-1.561.218a2.28 2.28 0 0 0-1.165-.363c-.265-.017-.465.067-.531.217-.083.25.084.431.632.697.516.264 1.065.446 1.58.727.715.416 1.331 1.046 1.333 2.142.001 1.081-1.076 2.678-3.818 2.682"/></g><g><path fill="#fff" d="M36.701 33.023c-1.977.003-3.025-.661-3.491-1.224-.367-.449-.4-1.08-.052-1.462.464-.483 1.13-.535 1.628-.104.366.316.765.482 1.23.48.35 0 .598-.1.698-.25.083-.133.016-.316-.234-.514-.282-.216-.83-.365-1.596-.78-.766-.413-1.713-1.076-1.715-2.34-.003-1.595 1.757-2.611 3.768-2.615 1.877-.002 2.742.611 3.192 1.176.366.448.366.88.102 1.313-.282.431-.98.599-1.562.218a2.27 2.27 0 0 0-1.164-.364c-.265-.017-.465.067-.53.217-.084.25.083.431.631.697.516.265 1.065.446 1.58.728.715.415 1.331 1.045 1.333 2.142.002 1.08-1.076 2.677-3.818 2.682"/></g><g><path fill="#fff" d="M43.362 23.552c.864 0 2.093-.235 2.09-1.349 0-1.03-.931-1.294-1.795-1.293-.848.001-2.276.336-2.274 1.416.002 1.08 1.148 1.227 1.979 1.226m2.025 9.004c.564-.184.913-.5.912-1.114-.002-.881-1.098-.648-1.1-1.313l.012-4.287c-.003-1.13-.901-1.51-1.881-1.509-.998.002-1.877.386-1.876 1.517l.008 4.701c.002 1.612.884 2.242 2.429 2.24a5.055 5.055 0 0 0 1.496-.235"/></g><g><path fill="#fff" d="M53.292 27.658c-.582.051-1.33-.148-1.497-.795-.067-.232-.183-.382-.349-.381-.2 0-.432.083-.598.266-.465.533-.563 1.546-.562 2.128.001.498.1.897.285 1.179.315.448.78.547 1.18.547.465 0 .897-.15 1.428-.484.548-.35 1.096-.168 1.43.296.299.416.217.897-.148 1.297-.448.5-1.576 1.266-3.472 1.268-1.726.003-2.79-.377-3.607-1.291-.666-.779-.983-1.66-.985-2.889-.004-2.344 2.021-4.623 4.695-4.627 1.03-.002 2.078.063 2.96.644.715.463.782 1.012.7 1.544-.132.93-.38 1.213-1.46 1.298"/></g><g><g><path fill="#fff" d="M55.749 23.594c-.115 0-.17-.046-.17-.163l.005-.353h-.01l-.112.239c-.019.043-.049.068-.095.068-.045 0-.074-.025-.093-.067l-.107-.244-.01.002-.004.408c0 .075-.03.111-.11.111-.074 0-.106-.035-.106-.107l.008-.606c0-.015-.002-.025-.015-.032-.03-.015-.055-.034-.055-.066 0-.097.134-.11.203-.11.083 0 .14.034.18.11l.149.285h.007l.147-.303c.034-.07.075-.092.15-.092.08-.001.138.03.136.116l-.003.595c-.003.046.082.03.082.098 0 .085-.112.11-.177.11m-1.048-.709c-.022 0-.046 0-.07-.004l-.046-.002c-.027 0-.063-.007-.063.021l.001.582c0 .083-.066.115-.145.115-.077 0-.143-.032-.143-.114l-.001-.588c0-.02-.043-.015-.064-.015l-.049.002c-.022.004-.046.004-.07.004-.055 0-.089-.048-.089-.102 0-.06.042-.099.102-.099h.637c.058 0 .1.028.1.09 0 .055-.04.11-.1.11"/></g></g><g><path fill="#fff" d="M27.219 0c6.272 0 11.357 5.085 11.357 11.357 0 6.272-5.085 11.357-11.357 11.357-6.272 0-11.357-5.085-11.357-11.357C15.862 5.085 20.947 0 27.22 0m.005 19.492c4.49 0 8.13-3.64 8.13-8.13a8.129 8.129 0 1 0-16.259 0 8.13 8.13 0 0 0 8.13 8.13"/></g></g></g></g></svg>