<svg xmlns="http://www.w3.org/2000/svg" viewBox="0 0 645.82 250"><title>vh1-black</title><g id="Слой_2" data-name="Слой 2"><g id="Layer_1" data-name="Layer 1"><path d="M458.87,87.6a4.61,4.61,0,0,1-4.6-4.6V4.59A4.6,4.6,0,0,0,449.68,0H384.06a4.6,4.6,0,0,0-4.59,4.59V83a4.61,4.61,0,0,1-4.6,4.6H310.13a4.6,4.6,0,0,0-4.6,4.59v65.62a4.6,4.6,0,0,0,4.6,4.59h64.74a4.61,4.61,0,0,1,4.6,4.6v78.41a4.6,4.6,0,0,0,4.59,4.59h65.62a4.6,4.6,0,0,0,4.59-4.59V167a4.61,4.61,0,0,1,4.6-4.6h64.75a4.6,4.6,0,0,0,4.59-4.59V87.6Z"/><path d="M641.23,0H579.05a16.27,16.27,0,0,0-8.28,2.74l-37.72,28A10.29,10.29,0,0,0,529.36,38V86.32h37.06a4.61,4.61,0,0,1,4.59,4.6V245.41a4.61,4.61,0,0,0,4.6,4.59h65.62a4.6,4.6,0,0,0,4.59-4.59V4.59A4.6,4.6,0,0,0,641.23,0Z"/><path d="M165.37,0a6.59,6.59,0,0,0-5.93,4.4L121.85,127.91c-.73,2.42-1.51,4.39-3,4.39s-2.31-2-3-4.39L78.17,4.4A6.61,6.61,0,0,0,72.24,0H3.32A3.06,3.06,0,0,0,.24,4.34L85,245.67A7,7,0,0,0,91.16,250h55.28a7,7,0,0,0,6.12-4.33L234.22,13.29c.83-2.39,1.31-4.34,3.05-4.34,1.57,0,1.52,2.07,1.52,4.6V245.41a4.61,4.61,0,0,0,4.6,4.59h64.47a4.61,4.61,0,0,0,4.59-4.59V4.59A4.61,4.61,0,0,0,307.86,0Z"/></g></g></svg>