<svg xmlns="http://www.w3.org/2000/svg" viewBox="0 0 72.86 43.05"><defs><style>.cls-1{fill:#201600;fill-rule:evenodd;}</style></defs><title>vh1-classic</title><g id="Слой_2" data-name="Слой 2"><g id="Слой_1-2" data-name="Слой 1"><path class="cls-1" d="M37.93,15.21a1.2,1.2,0,0,1-.32.06c-.32,0-.48-.13-.48-.47v-.59h-.58v.73c0,.23-.17.32-.39.32s-.39-.09-.39-.32V13.21c0-.14-.23-.09-.23-.28a.26.26,0,0,1,.21-.25.85.85,0,0,1,.31-.06c.32,0,.49.13.49.47v.54h.58V13c0-.23.17-.33.39-.33s.39.09.39.32l0,1.74c0,.14.23.09.23.28a.26.26,0,0,1-.2.25ZM35.26,13l-.65,1.8a.61.61,0,0,1-.57.46.59.59,0,0,1-.56-.46L33,13.22c0-.14-.25-.06-.25-.32s.09-.18.2-.22a.89.89,0,0,1,.3-.06c.23,0,.45.08.5.32l.36,1.54h0l.48-1.55a.33.33,0,0,1,.38-.29c.14,0,.37.07.25.39Zm6.06,5.7a1.18,1.18,0,0,0-1.18-1.18h-.32a1.2,1.2,0,0,1-1.18-1.18h0V7.16A1.19,1.19,0,0,0,37.44,6H35.27a1.45,1.45,0,0,0-1,.43A5.3,5.3,0,0,1,31.17,8a1.24,1.24,0,0,0-1.26,1.19V10.5c0,1.18.53,1.18,1.18,1.18h.71a.54.54,0,0,1,.54.59v4.18a1.14,1.14,0,0,1-1.18,1.12H30.5a1.17,1.17,0,0,0-1.17,1.18V21a1.18,1.18,0,0,0,1.18,1.18l9.63,0a1.18,1.18,0,0,0,1.18-1.18V18.73Z"/><path class="cls-1" d="M9,36.12a1.73,1.73,0,0,1-1.95-1c-.09-.31-.24-.5-.45-.5a1.06,1.06,0,0,0-.78.35,4.61,4.61,0,0,0-.73,2.77,2.83,2.83,0,0,0,.37,1.54A1.77,1.77,0,0,0,7,40a3.42,3.42,0,0,0,1.86-.63,1.31,1.31,0,0,1,1.87.38,1.28,1.28,0,0,1-.2,1.69A6,6,0,0,1,6,43.05h-.1c-2.19,0-3.55-.51-4.6-1.68A5.4,5.4,0,0,1,0,37.69v-.08a6.19,6.19,0,0,1,6.12-6,6.76,6.76,0,0,1,3.85.84,1.81,1.81,0,0,1,.91,2c-.17,1.21-.49,1.58-1.9,1.69Z"/><path class="cls-1" d="M17.17,42.39a5.68,5.68,0,0,1-2.31.41,2.38,2.38,0,0,1-2.54-2.29l0-11.08c0-1.45,1.08-2,2.45-2s2.44.51,2.45,2v9.76c0,.93,1.34.3,1.35,1.69,0,.74-.5,1.17-1.39,1.52Z"/><path class="cls-1" d="M31.39,40.64a1,1,0,0,0-.65-1c-.56-.18-.67-.32-.67-.82V36c0-2.85-1.55-4.39-5.12-4.38a11,11,0,0,0-3,.54C20.1,32.84,20,33.49,20,34.44c0,1.23.63,1.67,1.77,1.66.91,0,1.7-.1,2-1.06.17-.48.28-.61.82-.61a.75.75,0,0,1,.8.82v.54l-3.27.85c-1.68.46-2.87,1.09-2.87,2.93s1,3.25,3.47,3.25a3.84,3.84,0,0,0,3-1.68l0,.11A2.08,2.08,0,0,0,28,42.74a4.77,4.77,0,0,0,2.19-.55c.87-.43,1.26-.86,1.25-1.55Zm-5.89-2c0,.54-.39,1-1.23,1a.66.66,0,0,1-.7-.63v-.15a.65.65,0,0,1,.48-.56l1-.35c.26-.09.43,0,.43.19v.46Z"/><path class="cls-1" d="M37,43c-2.57,0-3.94-.86-4.55-1.6a1.45,1.45,0,0,1,2.06-2,2.37,2.37,0,0,0,1.6.62A1.09,1.09,0,0,0,37,39.7c.11-.18,0-.42-.3-.67s-1.09-.48-2.08-1a3.54,3.54,0,0,1-2.24-3c0-2.07,2.29-3.4,4.91-3.4,2.45,0,3.57.79,4.16,1.53a1.34,1.34,0,0,1,.13,1.71,1.47,1.47,0,0,1-2,.28,3,3,0,0,0-1.51-.47.69.69,0,0,0-.7.28c-.11.32.11.56.82.91s1.39.58,2.06,1A3.08,3.08,0,0,1,42,39.54c0,1.4-1.4,3.48-5,3.49Z"/><path class="cls-1" d="M47.81,43c-2.58,0-3.94-.86-4.55-1.59a1.45,1.45,0,0,1,2.05-2,2.34,2.34,0,0,0,1.61.62,1,1,0,0,0,.9-.32c.11-.17,0-.41-.3-.67s-1.09-.48-2.08-1a3.53,3.53,0,0,1-2.24-3.05c0-2.07,2.29-3.4,4.91-3.4,2.45,0,3.58.79,4.16,1.53a1.34,1.34,0,0,1,.13,1.71,1.47,1.47,0,0,1-2,.28,3,3,0,0,0-1.52-.47.68.68,0,0,0-.69.28c-.11.33.11.57.83.91s1.38.58,2,.95a3.07,3.07,0,0,1,1.74,2.79c0,1.41-1.4,3.49-5,3.49Z"/><path class="cls-1" d="M59.13,42.41a6.41,6.41,0,0,1-2,.31c-2,0-3.16-.82-3.17-2.92V33.67c0-1.47,1.15-2,2.45-2s2.44.49,2.45,2l0,5.58c0,.87,1.44.56,1.44,1.71a1.45,1.45,0,0,1-1.19,1.45ZM56.49,30.68c-1.08,0-2.58-.18-2.58-1.6s1.86-1.84,3-1.84,2.33.34,2.34,1.68-1.6,1.76-2.73,1.76Z"/><path class="cls-1" d="M69.42,36a1.73,1.73,0,0,1-2-1c-.09-.3-.24-.49-.45-.49a1.08,1.08,0,0,0-.78.35,4.61,4.61,0,0,0-.73,2.77,2.77,2.77,0,0,0,.37,1.53,1.73,1.73,0,0,0,1.54.71,3.33,3.33,0,0,0,1.85-.63,1.32,1.32,0,0,1,1.87.39A1.28,1.28,0,0,1,71,41.31,6.08,6.08,0,0,1,66.42,43c-2.25,0-3.63-.49-4.69-1.68a5.32,5.32,0,0,1-1.29-3.76,6.19,6.19,0,0,1,6.12-6,6.76,6.76,0,0,1,3.85.84,1.83,1.83,0,0,1,.92,2c-.18,1.21-.5,1.58-1.91,1.69Z"/><path class="cls-1" d="M71.26,29.82h-.15s-.08,0-.08,0v.76c0,.11-.09.15-.19.15s-.19,0-.19-.15v-.76s-.05,0-.08,0h-.15a.14.14,0,0,1,0-.27h.83c.08,0,.13,0,.13.12a.14.14,0,0,1-.13.15Zm1.36.92c-.14,0-.21-.06-.22-.22v-.45h0l-.15.31a.13.13,0,0,1-.24,0l-.14-.32h0v.54a.14.14,0,0,1-.28,0v-.79s0,0,0,0-.07,0-.07-.09.17-.14.26-.14a.25.25,0,0,1,.24.14l.19.37h0l.19-.39a.18.18,0,0,1,.19-.12c.11,0,.19,0,.18.15v.77c0,.06.11.05.11.14s-.15.14-.24.14Z"/><path class="cls-1" d="M35.45,25.38A10.59,10.59,0,1,1,46,14.8,10.58,10.58,0,0,1,35.45,25.38ZM35.45,0a14.8,14.8,0,1,0,14.8,14.79A14.79,14.79,0,0,0,35.45,0Z"/></g></g></svg>