<svg xmlns="http://www.w3.org/2000/svg" viewBox="0 0 645.87 250.02"><defs><style>.cls-1{fill:#fff;}</style></defs><title>vh1-white</title><g id="Слой_2" data-name="Слой 2"><g id="Слой_1-2" data-name="Слой 1"><g id="Layer_1" data-name="Layer 1"><path class="cls-1" d="M458.92,87.62a4.61,4.61,0,0,1-4.6-4.6V4.61A4.6,4.6,0,0,0,449.73,0H384.11a4.59,4.59,0,0,0-4.59,4.59V83a4.62,4.62,0,0,1-4.6,4.6H310.18a4.59,4.59,0,0,0-4.6,4.59v65.62a4.6,4.6,0,0,0,4.6,4.59h64.74a4.61,4.61,0,0,1,4.6,4.6v78.41a4.6,4.6,0,0,0,4.59,4.59h65.62a4.61,4.61,0,0,0,4.59-4.59V167a4.6,4.6,0,0,1,4.6-4.6h64.75a4.61,4.61,0,0,0,4.59-4.59V87.62Z"/><path class="cls-1" d="M641.28,0H579.1a16.24,16.24,0,0,0-8.28,2.74l-37.72,28A10.27,10.27,0,0,0,529.41,38V86.34h37.06a4.61,4.61,0,0,1,4.59,4.6V245.43a4.61,4.61,0,0,0,4.6,4.59h65.62a4.61,4.61,0,0,0,4.59-4.59V4.61A4.6,4.6,0,0,0,641.28,0Z"/><path class="cls-1" d="M165.42,0a6.58,6.58,0,0,0-5.93,4.4L121.9,127.93c-.73,2.42-1.51,4.39-3,4.39s-2.31-2-3-4.39L78.22,4.42A6.6,6.6,0,0,0,72.29,0H3.37A3.05,3.05,0,0,0,0,2.75,3,3,0,0,0,.29,4.36L85.05,245.69A7,7,0,0,0,91.21,250h55.28a7,7,0,0,0,6.12-4.33L234.27,13.31c.83-2.39,1.31-4.34,3-4.34,1.57,0,1.52,2.07,1.52,4.6V245.43a4.61,4.61,0,0,0,4.6,4.59h64.47a4.62,4.62,0,0,0,4.59-4.59V4.61A4.61,4.61,0,0,0,307.91,0Z"/></g></g></g></svg>