<svg xmlns="http://www.w3.org/2000/svg" width="49" height="28" viewBox="0 0 49 28"><defs><clipPath id="z0kia"><path d="M24.33.167H4.189v26.06h20.143V.167z"/></clipPath><clipPath id="z0kib"><path d="M48.02 3.608V2.442h-.84v1.166h.84z"/></clipPath></defs><g><g><g><g><path fill="#fff" d="M25.935 26.331l20.26-2.264V2.257L25.935.178z"/></g><g><g><path fill="#fff" d="M3.052 4.251C.722 3.751.118 1.828 0 1.333c.12.555.66 3.045.748 3.415.1.417.43 2.616 1.47 3.375.383.28 1.237.601 1.97.846V4.52c-.359-.097-.737-.181-1.136-.268"/></g><g><g/><g clip-path="url(#z0kia)"><path fill="#fff" d="M24.33 13.99v12.238L4.189 24.122V8.969a31.51 31.51 0 0 0 1.248.388c1.906.456 2.82 2.084 2.82 2.084-.607-5.292-2.01-6.364-4.068-6.923V2.352L24.331.167V12.03c-2.458.061-2.187-2.14-2.187-2.14l-1.95.007.007 12.58 2.382.229V13.99zM12.315 5.649l-1.057.126-2.216 10.433-.73-4.082c-1.205-2.47-3.858-2.747-3.858-2.747l2.62 11.845 3.427.328 1.814-7.618zm7.181 16.761l-.004-12.498c-3.158-.805-4.17 1.816-4.17 1.816V5.321l-2.415.268v16.19l2.444.235-.03-6.412c0-.18 0-2.534 1.639-2.652 1.638-.12 1.488 2.382 1.488 2.382v6.978z"/></g></g><g><path fill="#fff" d="M46.695 2.576h-.238v-.134h.629v.134h-.233v.862h-.158z"/></g><g><g/><g clip-path="url(#z0kib)"><path fill="#fff" d="M47.18 2.442h.247l.176.738h.003l.174-.738h.24v.996h-.15V2.61h-.003l-.2.828h-.132l-.202-.828h-.004v.828h-.149z"/></g></g></g></g></g></g></svg>