<svg xmlns="http://www.w3.org/2000/svg" viewBox="0 0 511.09 63.41"><defs><style>.cls-1{fill:#fff;}</style></defs><title>vimn-logo</title><g id="Слой_2" data-name="Слой 2"><g id="LOGO"><path class="cls-1" d="M0,1.22H18.81L32.66,39.81,46.6,1.22H65.06l-24.56,61h-16Zm67.94,0h16.9v61H67.94Zm45.47,0h16.66l25.76,61H137.71l-4.35-11H109.75l-4.35,11H87.72Zm15,36.84L121.6,20.82l-6.88,17.24Zm21.68-6.18v-.17C150.07,13.94,163.66,0,182.13,0,194.58,0,202.6,5.23,208,12.63l-12.72,9.84c-3.48-4.26-7.49-7.14-13.33-7.14-8.53,0-14.54,7.32-14.54,16.2v.18c0,9.14,6,16.28,14.54,16.28,6.36,0,10.11-3,13.76-7.4l12.72,9.06c-5.75,7.92-13.5,13.76-26.91,13.76A31,31,0,0,1,150.07,31.88Zm56.18,0v-.17C206.25,14.2,220.36,0,239.17,0s32.75,14,32.75,31.53v.18c0,17.5-14.11,31.7-32.93,31.7S206.25,49.39,206.25,31.88Zm48.34,0v-.17c0-8.89-6.27-16.47-15.59-16.47s-15.51,7.49-15.51,16.29v.18c0,8.79,6.36,16.46,15.68,16.46S254.59,40.68,254.59,31.88Zm77.1-.92v-.18c0-8.28,3-18,8-23.61V1.22H321.82l-14.54,23.6L292.73,1.22H274.87v61h16.55V27.26L306.93,51h.35l15.59-23.86v35h16.81V54.56C334.71,49.06,331.69,39.4,331.69,31Z"/><path class="cls-1" d="M339.49,31.88v-.17C339.49,13.94,353.08,0,371.55,0,384,0,392,5.23,397.42,12.63L384.7,22.47c-3.49-4.26-7.49-7.14-13.33-7.14-8.53,0-14.54,7.32-14.54,16.2v.18c0,9.14,6,16.28,14.54,16.28,6.36,0,10.11-3,13.76-7.4l12.72,9.06c-5.75,7.92-13.5,13.76-26.91,13.76A31,31,0,0,1,339.49,31.88Z"/><path class="cls-1" d="M401.69,1.22H433c7.66,0,13.06,1.92,16.63,5.4a13.73,13.73,0,0,1,3.92,9.93v.17c0,7.06-4,11.24-9.4,13.59,7.4,2.44,12.1,6.62,12.1,14.9v.17c0,10.45-8.53,16.81-23.08,16.81H401.69ZM436.88,20c0-3.39-2.7-5.22-7.67-5.22H418.15V25.52h10.63c5.14,0,8.1-1.74,8.1-5.31ZM431,37.37H418.15V48.6h13.06c5.23,0,8.11-2,8.11-5.57v-.18C439.32,39.55,436.7,37.37,431,37.37Z"/><path class="cls-1" d="M457.87,53.13l9.41-11.23c6.1,4.79,12.72,7.31,19.77,7.31,4.62,0,7.06-1.56,7.06-4.18v-.17c0-2.61-2-3.92-10.37-5.92-13-3-23-6.62-23-19.08v-.17c0-11.33,9-19.52,23.6-19.52,10.37,0,18.47,2.79,25.09,8.11L501,20.21a29.92,29.92,0,0,0-17.07-6c-4.1,0-6.1,1.65-6.1,3.92v.17c0,2.79,2.09,4,10.62,5.92,13.94,3.05,22.65,7.58,22.65,19v.18c0,12.45-9.84,19.86-24.65,19.86C475.64,63.24,465.45,59.84,457.87,53.13Z"/></g></g></svg>